<?xml version="1.0" encoding="UTF-8"?>
<svg id="Layer_1" data-name="Layer 1" xmlns="http://www.w3.org/2000/svg" viewBox="0 0 1490.84 765.96">
  <defs>
    <style>
      .cls-1 {
        fill: #3cbfc5;
      }

      .cls-2 {
        fill: #ca2c00;
      }

      .cls-3 {
        fill: #e6e6e6;
      }

      .cls-4 {
        fill: #148ea7;
      }

      .cls-5 {
        fill: #c73227;
      }

      .cls-6 {
        fill: #e6a800;
      }

      .cls-7 {
        fill: #2bc7cb;
      }

      .cls-8 {
        fill: #fff;
      }

      .cls-9 {
        letter-spacing: 0em;
      }

      .cls-10 {
        fill: #e4a724;
      }

      .cls-11 {
        font-family: Outfit-Medium, Outfit;
        font-size: 18px;
        font-variation-settings: 'wght' 500;
        font-weight: 500;
      }

      .cls-12 {
        letter-spacing: -.02em;
      }

      .cls-13 {
        letter-spacing: -.02em;
      }

      .cls-14 {
        letter-spacing: -.02em;
      }

      .cls-15 {
        letter-spacing: -.02em;
      }

      .cls-16 {
        fill: #35858d;
      }

      .cls-17 {
        letter-spacing: -.02em;
      }

      .cls-18 {
        letter-spacing: -.01em;
      }

      .cls-19 {
        letter-spacing: -.01em;
      }

      .cls-20 {
        letter-spacing: -.04em;
      }

      .cls-21 {
        letter-spacing: 0em;
      }

      .cls-22 {
        letter-spacing: 0em;
      }

      .cls-23 {
        letter-spacing: 0em;
      }

      .cls-24 {
        letter-spacing: 0em;
      }

      .cls-25 {
        letter-spacing: 0em;
      }

      .cls-26 {
        letter-spacing: 0em;
      }

      .cls-27 {
        letter-spacing: .01em;
      }

      .cls-28 {
        letter-spacing: 0em;
      }
    </style>
  </defs>
  <rect class="cls-3" x="83.97" y="677.53" width="1322.9" height="35.57"/>
  <rect class="cls-3" x="83.97" y="130.22" width="1322.9" height="35.57"/>
  <polygon class="cls-3" points="1403.98 110.07 747.65 0 86.86 110.07 86.86 121.62 1403.98 121.62 1403.98 110.07"/>
  <rect class="cls-3" y="730.39" width="1490.84" height="35.57"/>
  <g>
    <rect class="cls-3" x="130.05" y="194.33" width="296.79" height="451.31"/>
    <rect class="cls-3" x="442.64" y="194.33" width="296.79" height="451.31"/>
    <rect class="cls-3" x="755.23" y="194.33" width="296.79" height="451.31"/>
    <rect class="cls-3" x="1067.82" y="194.33" width="296.79" height="451.31"/>
    <g>
      <rect class="cls-2" x="129.87" y="363.51" width="297.23" height="119.65"/>
      <text class="cls-11" transform="translate(170.15 520.72)"><tspan class="cls-27" x="0" y="0">Suppo</tspan><tspan class="cls-21" x="51.23" y="0">r</tspan><tspan class="cls-28" x="58.77" y="0">ting individuals </tspan><tspan class="cls-9" x="184.59" y="0">w</tspan><tspan class="cls-27" x="198.2" y="0">ith </tspan><tspan class="cls-27" x="31.85" y="24">spinal co</tspan><tspan class="cls-14" x="102.9" y="24">r</tspan><tspan class="cls-27" x="110.15" y="24">d inju</tspan><tspan class="cls-24" x="153.06" y="24">r</tspan><tspan class="cls-27" x="160.57" y="24">ies, </tspan><tspan class="cls-27" x=".59" y="48">quad</tspan><tspan class="cls-25" x="41.94" y="48">r</tspan><tspan class="cls-27" x="49.45" y="48">iplegia, or conditions </tspan><tspan class="cls-27"><tspan x="38.63" y="72">limiting hand use.</tspan></tspan></text>
      <g>
        <path class="cls-8" d="M213.05,415.33v-16.94h3.79v16.94h-3.79ZM215.95,401.65v-3.26h8.88v3.26h-8.88ZM215.95,408.71v-3.29h8.5v3.29h-8.5Z"/>
        <path class="cls-8" d="M237.53,415.62c-1.28,0-2.46-.22-3.55-.67-1.09-.45-2.04-1.07-2.86-1.87s-1.45-1.73-1.9-2.8c-.45-1.06-.67-2.21-.67-3.44s.22-2.4.67-3.46c.45-1.06,1.07-1.98,1.87-2.77.8-.79,1.74-1.41,2.83-1.85,1.09-.44,2.27-.66,3.55-.66s2.44.22,3.52.66c1.08.44,2.03,1.06,2.84,1.85.82.79,1.44,1.72,1.88,2.78.44,1.06.66,2.22.66,3.47s-.22,2.38-.67,3.44c-.45,1.06-1.07,1.99-1.87,2.78-.8.79-1.74,1.41-2.81,1.86-1.07.45-2.24.67-3.5.67ZM237.48,412.16c1.01,0,1.89-.22,2.64-.67.75-.45,1.34-1.07,1.76-1.87.42-.8.64-1.73.64-2.78,0-.78-.12-1.5-.36-2.15-.24-.65-.58-1.21-1.03-1.68-.45-.47-.98-.83-1.61-1.08-.62-.25-1.3-.37-2.04-.37-1.01,0-1.89.22-2.65.66-.76.44-1.35,1.06-1.76,1.85s-.62,1.72-.62,2.77c0,.8.12,1.53.36,2.18.24.66.58,1.22,1.03,1.69.45.47.98.83,1.6,1.08.62.25,1.3.37,2.05.37Z"/>
        <path class="cls-8" d="M259.2,415.59c-1.26,0-2.44-.22-3.52-.66-1.08-.44-2.02-1.06-2.83-1.86s-1.44-1.73-1.88-2.8c-.45-1.06-.67-2.21-.67-3.44s.22-2.38.67-3.44c.45-1.06,1.08-1.99,1.88-2.77s1.75-1.4,2.82-1.84c1.07-.44,2.25-.66,3.53-.66,1.34,0,2.54.22,3.59.65,1.05.43,1.96,1.02,2.75,1.78l-2.54,2.57c-.43-.48-.96-.86-1.6-1.13-.63-.27-1.36-.41-2.2-.41-.74,0-1.41.12-2.02.37s-1.14.6-1.58,1.07-.79,1.02-1.03,1.68c-.24.66-.36,1.37-.36,2.14s.12,1.52.36,2.17c.24.65.58,1.21,1.03,1.68.45.47.98.83,1.58,1.08.61.25,1.28.37,2.02.37.86,0,1.62-.13,2.26-.4s1.18-.64,1.63-1.14l2.57,2.57c-.8.77-1.73,1.36-2.78,1.79-1.06.42-2.28.64-3.67.64Z"/>
        <path class="cls-8" d="M276.96,415.59c-1.41,0-2.64-.3-3.71-.9-1.06-.6-1.9-1.42-2.5-2.47-.6-1.05-.9-2.24-.9-3.56v-10.27h3.79v10.46c0,.69.15,1.28.44,1.78.3.5.69.87,1.19,1.13.5.26,1.06.38,1.68.38s1.16-.13,1.64-.38c.49-.26.87-.63,1.14-1.13s.41-1.08.41-1.75v-10.49h3.82v10.3c0,1.33-.3,2.51-.89,3.55s-1.42,1.86-2.47,2.46c-1.06.6-2.27.9-3.65.9Z"/>
        <path class="cls-8" d="M294.26,415.59c-1.41,0-2.61-.22-3.61-.67-1-.45-1.91-1.14-2.72-2.06l2.45-2.45c.54.62,1.15,1.11,1.81,1.45.66.34,1.44.52,2.32.52.78,0,1.4-.15,1.84-.44.44-.29.66-.7.66-1.21,0-.45-.14-.82-.42-1.1-.28-.29-.66-.54-1.14-.74s-1-.4-1.56-.59-1.12-.4-1.69-.66c-.57-.26-1.09-.57-1.56-.94-.47-.37-.85-.84-1.14-1.42-.29-.58-.43-1.29-.43-2.14,0-1.06.25-1.96.76-2.71.5-.75,1.21-1.32,2.12-1.72.91-.39,1.94-.59,3.1-.59s2.29.21,3.26.62c.98.42,1.78.98,2.42,1.68l-2.47,2.47c-.51-.53-1.03-.92-1.55-1.18-.52-.25-1.1-.38-1.74-.38s-1.18.12-1.56.37c-.38.25-.58.6-.58,1.07,0,.42.14.76.43,1.02.29.26.67.49,1.14.68.47.19.99.38,1.56.58.57.19,1.14.41,1.7.66.57.25,1.08.57,1.55.97.46.4.84.9,1.14,1.49.3.59.44,1.34.44,2.23,0,1.62-.58,2.88-1.73,3.8-1.15.92-2.75,1.38-4.8,1.38Z"/>
        <path class="cls-8" d="M320.62,415.62c-1.28,0-2.46-.22-3.55-.67-1.09-.45-2.04-1.07-2.86-1.87s-1.45-1.73-1.9-2.8c-.45-1.06-.67-2.21-.67-3.44s.22-2.4.67-3.46c.45-1.06,1.07-1.98,1.87-2.77.8-.79,1.74-1.41,2.83-1.85,1.09-.44,2.27-.66,3.55-.66s2.44.22,3.52.66c1.08.44,2.03,1.06,2.84,1.85.82.79,1.44,1.72,1.88,2.78.44,1.06.66,2.22.66,3.47s-.22,2.38-.67,3.44c-.45,1.06-1.07,1.99-1.87,2.78-.8.79-1.74,1.41-2.81,1.86-1.07.45-2.24.67-3.5.67ZM320.57,412.16c1.01,0,1.89-.22,2.64-.67.75-.45,1.34-1.07,1.76-1.87.42-.8.64-1.73.64-2.78,0-.78-.12-1.5-.36-2.15-.24-.65-.58-1.21-1.03-1.68-.45-.47-.98-.83-1.61-1.08-.62-.25-1.3-.37-2.04-.37-1.01,0-1.89.22-2.65.66-.76.44-1.35,1.06-1.76,1.85s-.62,1.72-.62,2.77c0,.8.12,1.53.36,2.18.24.66.58,1.22,1.03,1.69.45.47.98.83,1.6,1.08.62.25,1.3.37,2.05.37Z"/>
        <path class="cls-8" d="M334.25,415.33v-16.94h2.66l1.13,3.38v13.56h-3.79ZM345.94,415.33l-9.96-12.79.94-4.15,9.98,12.79-.96,4.15ZM345.94,415.33l-1.01-3.38v-13.56h3.82v16.94h-2.81Z"/>
        <path class="cls-8" d="M175.88,439.33v-16.94h3.79v16.94h-3.79Z"/>
        <path class="cls-8" d="M185.32,439.33v-16.94h2.66l1.13,3.38v13.56h-3.79ZM197.01,439.33l-9.96-12.79.94-4.15,9.98,12.79-.96,4.15ZM197.01,439.33l-1.01-3.38v-13.56h3.82v16.94h-2.81Z"/>
        <path class="cls-8" d="M205.43,439.33v-16.94h3.79v16.94h-3.79ZM208.02,439.33v-3.31h4.18c1.02,0,1.92-.21,2.68-.62s1.35-1.01,1.76-1.79.62-1.7.62-2.77-.21-1.97-.64-2.75c-.42-.78-1.02-1.37-1.78-1.78-.76-.41-1.64-.61-2.65-.61h-4.3v-3.31h4.34c1.28,0,2.46.2,3.54.61s2.02.99,2.83,1.75c.81.76,1.44,1.65,1.88,2.68.45,1.02.67,2.17.67,3.43s-.22,2.36-.67,3.4c-.45,1.03-1.07,1.93-1.87,2.69-.8.76-1.74,1.35-2.82,1.76-1.08.42-2.25.62-3.52.62h-4.27Z"/>
        <path class="cls-8" d="M225.93,439.33v-16.94h3.79v16.94h-3.79ZM228.83,425.65v-3.26h9.17v3.26h-9.17ZM228.83,432.27v-3.19h8.45v3.19h-8.45ZM228.83,439.33v-3.26h9.31v3.26h-9.31Z"/>
        <path class="cls-8" d="M243.08,439.33v-16.94h3.79v16.94h-3.79ZM245.99,433.16v-2.95h3.65c.46,0,.88-.09,1.26-.28.38-.18.68-.46.9-.83s.34-.81.34-1.32-.11-.98-.34-1.34-.52-.64-.9-.83-.8-.28-1.26-.28h-3.65v-2.95h4.2c1.07,0,2.04.22,2.92.65s1.56,1.05,2.06,1.86c.5.81.76,1.77.76,2.89s-.25,2.06-.76,2.87-1.19,1.43-2.06,1.86c-.87.43-1.84.65-2.92.65h-4.2Z"/>
        <path class="cls-8" d="M260.39,439.33v-16.94h3.79v16.94h-3.79ZM263.29,425.65v-3.26h9.17v3.26h-9.17ZM263.29,432.27v-3.19h8.45v3.19h-8.45ZM263.29,439.33v-3.26h9.31v3.26h-9.31Z"/>
        <path class="cls-8" d="M277.55,439.33v-16.94h2.66l1.13,3.38v13.56h-3.79ZM289.24,439.33l-9.96-12.79.94-4.15,9.98,12.79-.96,4.15ZM289.24,439.33l-1.01-3.38v-13.56h3.82v16.94h-2.81Z"/>
        <path class="cls-8" d="M297.66,439.33v-16.94h3.79v16.94h-3.79ZM300.25,439.33v-3.31h4.18c1.02,0,1.92-.21,2.68-.62s1.35-1.01,1.76-1.79.62-1.7.62-2.77-.21-1.97-.64-2.75c-.42-.78-1.02-1.37-1.78-1.78-.76-.41-1.64-.61-2.65-.61h-4.3v-3.31h4.34c1.28,0,2.46.2,3.54.61s2.02.99,2.83,1.75c.81.76,1.44,1.65,1.88,2.68.45,1.02.67,2.17.67,3.43s-.22,2.36-.67,3.4c-.45,1.03-1.07,1.93-1.87,2.69-.8.76-1.74,1.35-2.82,1.76-1.08.42-2.25.62-3.52.62h-4.27Z"/>
        <path class="cls-8" d="M318.16,439.33v-16.94h3.79v16.94h-3.79ZM321.06,425.65v-3.26h9.17v3.26h-9.17ZM321.06,432.27v-3.19h8.45v3.19h-8.45ZM321.06,439.33v-3.26h9.31v3.26h-9.31Z"/>
        <path class="cls-8" d="M335.32,439.33v-16.94h2.66l1.13,3.38v13.56h-3.79ZM347,439.33l-9.96-12.79.94-4.15,9.98,12.79-.96,4.15ZM347,439.33l-1.01-3.38v-13.56h3.82v16.94h-2.81Z"/>
        <path class="cls-8" d="M363.47,439.59c-1.26,0-2.44-.22-3.52-.66-1.08-.44-2.02-1.06-2.83-1.86s-1.44-1.73-1.88-2.8c-.45-1.06-.67-2.21-.67-3.44s.22-2.38.67-3.44c.45-1.06,1.08-1.99,1.88-2.77s1.75-1.4,2.82-1.84c1.07-.44,2.25-.66,3.53-.66,1.34,0,2.54.22,3.59.65,1.05.43,1.96,1.02,2.75,1.78l-2.54,2.57c-.43-.48-.96-.86-1.6-1.13-.63-.27-1.36-.41-2.2-.41-.74,0-1.41.12-2.02.37s-1.14.6-1.58,1.07-.79,1.02-1.03,1.68c-.24.66-.36,1.37-.36,2.14s.12,1.52.36,2.17c.24.65.58,1.21,1.03,1.68.45.47.98.83,1.58,1.08.61.25,1.28.37,2.02.37.86,0,1.62-.13,2.26-.4s1.18-.64,1.63-1.14l2.57,2.57c-.8.77-1.73,1.36-2.78,1.79-1.06.42-2.28.64-3.67.64Z"/>
        <path class="cls-8" d="M374.36,439.33v-16.94h3.79v16.94h-3.79ZM377.27,425.65v-3.26h9.17v3.26h-9.17ZM377.27,432.27v-3.19h8.45v3.19h-8.45ZM377.27,439.33v-3.26h9.31v3.26h-9.31Z"/>
      </g>
      <g>
        <circle class="cls-5" cx="280.15" cy="247.89" r="5.65"/>
        <path class="cls-5" d="M261.92,231.32c-4.23,4.33-3.22,20.78-.7,26.82s7.35,13.84,10.87,18.46c3.52,4.63,16.5,20.12,19.92,28.78,2.09,5.27,3.82,12.13,3.92,14.74.1,2.62.3,2.52.4,8.05,1.71-.65,2.41-6.69,2.62-10.31s-.3-10.77-1.71-14.59c-1.41-3.82-3.72-9.41-7.35-14.49-3.5-4.92-20.02-26.46-22.64-30.99-2.62-4.53-5.43-13.74-5.53-17.46-.1-3.72-.1-6.09.2-9.01Z"/>
        <path class="cls-5" d="M293.52,320.02h-32.28c.06-1.15.41-3.03.95-5.23h30.39c-.21-.87-.46-1.78-.73-2.72h-28.94c.5-1.73,1.07-3.53,1.69-5.23h25.55c-.18-.5-.36-.99-.55-1.46-.16-.4-.35-.83-.54-1.26h-23.36c.74-1.6,1.73-3.37,2.88-5.23h17.59c-.55-.89-1.14-1.8-1.75-2.72h-14.09c2.2-3.3,4.73-6.73,7.1-9.83-1.54-2.01-3-3.9-4.27-5.52-2.65,3.53-4.84,6.49-5.89,7.95-3.62,5.08-5.94,10.67-7.35,14.49-1.41,3.82-1.91,10.97-1.71,14.59.2,3.62.91,9.66,2.62,10.31.06-3.07.14-4.41.23-5.43h32.65c-.07-.82-.13-1.45-.18-2.62,0-.03,0-.07,0-.1Z"/>
        <path class="cls-5" d="M279.67,272.1c4.61-6.2,8.99-12.17,10.23-14.32,2.62-4.53,5.43-13.74,5.53-17.46s.1-6.09-.2-9.01c4.23,4.33,3.22,20.78.7,26.82s-7.35,13.84-10.87,18.46c-.3.39-.66.83-1.08,1.36-1.39-1.86-2.87-3.91-4.32-5.86Z"/>
      </g>
    </g>
    <g>
      <rect class="cls-6" x="442.6" y="363.51" width="296.3" height="119.65"/>
      <text class="cls-11" transform="translate(480.06 520.72)"><tspan class="cls-27" x="0" y="0">Inspi</tspan><tspan class="cls-13" x="38.02" y="0">r</tspan><tspan class="cls-28" x="45.27" y="0">ed by</tspan><tspan class="cls-22" x="89.58" y="0"> </tspan><tspan class="cls-28" x="93.08" y="0">TO</tspan><tspan class="cls-23" x="118.87" y="0">M</tspan><tspan class="cls-28" x="133.96" y="0">S “buy one, </tspan><tspan class="cls-27" x="-2.7" y="24">give one”: each paid su</tspan><tspan class="cls-14" x="183.26" y="24">r</tspan><tspan class="cls-27" x="190.51" y="24">ge</tspan><tspan class="cls-19" x="210.83" y="24">r</tspan><tspan class="cls-27" x="218.23" y="24">y </tspan><tspan class="cls-27" x="16" y="48">funds a f</tspan><tspan class="cls-14" x="87.17" y="48">r</tspan><tspan class="cls-27" x="94.43" y="48">ee su</tspan><tspan class="cls-13" x="135.2" y="48">r</tspan><tspan class="cls-27" x="142.45" y="48">ge</tspan><tspan class="cls-19" x="162.77" y="48">r</tspan><tspan class="cls-27" x="170.17" y="48">y for </tspan><tspan class="cls-27"><tspan x="41.69" y="72">someone in need.</tspan></tspan></text>
      <g>
        <path class="cls-8" d="M528.49,420.63v-16.95h3.79v16.95h-3.79ZM531.4,406.95v-3.27h9.17v3.27h-9.17ZM531.4,413.58v-3.19h8.45v3.19h-8.45ZM531.4,420.63v-3.26h9.31v3.26h-9.31Z"/>
        <path class="cls-8" d="M550.55,414.35l-6.53-10.66h4.37l5.02,8.59h-2.83l5.02-8.59h4.3l-6.58,10.66h-2.76ZM550.07,420.63v-8.04h3.82v8.04h-3.82Z"/>
        <path class="cls-8" d="M564.21,420.63v-16.95h3.79v16.95h-3.79ZM567.11,406.95v-3.27h9.17v3.27h-9.17ZM567.11,413.58v-3.19h8.45v3.19h-8.45ZM567.11,420.63v-3.26h9.31v3.26h-9.31Z"/>
        <path class="cls-8" d="M587.29,418.52l6.5-6.72c.38-.42.7-.79.95-1.12.25-.33.42-.64.53-.94.1-.29.16-.59.16-.88,0-.66-.21-1.17-.64-1.55-.42-.38-.97-.56-1.64-.56s-1.28.18-1.81.54c-.54.36-1.05.95-1.55,1.76l-2.54-2.21c.69-1.13,1.55-1.99,2.58-2.57,1.03-.58,2.23-.87,3.59-.87,1.17,0,2.18.22,3.05.65.86.43,1.53,1.05,1.99,1.85.46.8.7,1.74.7,2.81,0,.69-.08,1.32-.25,1.88-.17.57-.45,1.12-.84,1.67-.39.54-.92,1.14-1.57,1.8l-4.54,4.49-4.66-.05ZM587.29,420.63v-2.11l3.19-1.1h9.02v3.22h-12.22Z"/>
        <path class="cls-8" d="M611.22,420.63v-16.95h3.79v16.95h-3.79ZM614.12,406.95v-3.27h9.17v3.27h-9.17ZM614.12,413.58v-3.19h8.45v3.19h-8.45ZM614.12,420.63v-3.26h9.31v3.26h-9.31Z"/>
        <path class="cls-8" d="M633.28,414.35l-6.53-10.66h4.37l5.02,8.59h-2.83l5.02-8.59h4.3l-6.58,10.66h-2.76ZM632.8,420.63v-8.04h3.82v8.04h-3.82Z"/>
        <path class="cls-8" d="M646.93,420.63v-16.95h3.79v16.95h-3.79ZM649.84,406.95v-3.27h9.17v3.27h-9.17ZM649.84,413.58v-3.19h8.45v3.19h-8.45ZM649.84,420.63v-3.26h9.31v3.26h-9.31Z"/>
        <path class="cls-8" d="M521.35,444.63v-16.95h3.79v16.95h-3.79Z"/>
        <path class="cls-8" d="M530.79,444.63v-16.95h2.66l1.13,3.38v13.56h-3.79ZM542.47,444.63l-9.96-12.79.94-4.15,9.98,12.79-.96,4.15ZM542.47,444.63l-1.01-3.38v-13.56h3.82v16.95h-2.81Z"/>
        <path class="cls-8" d="M550.9,444.63v-16.95h3.79v16.95h-3.79Z"/>
        <path class="cls-8" d="M559.18,431v-3.31h14.4v3.31h-14.4ZM564.48,444.63v-16.73h3.82v16.73h-3.82Z"/>
        <path class="cls-8" d="M578.07,444.63v-16.95h3.79v16.95h-3.79Z"/>
        <path class="cls-8" d="M586.25,444.63l6.7-16.95h3.43l6.65,16.95h-4.01l-5.06-14.04h1.39l-5.18,14.04h-3.91ZM590.09,441.59v-3.07h9.22v3.07h-9.22Z"/>
        <path class="cls-8" d="M606.24,431v-3.31h14.4v3.31h-14.4ZM611.55,444.63v-16.73h3.82v16.73h-3.82Z"/>
        <path class="cls-8" d="M625.13,444.63v-16.95h3.79v16.95h-3.79Z"/>
        <path class="cls-8" d="M639.84,444.63l-6.53-16.95h4.06l4.97,13.71h-1.66l5.02-13.71h4.01l-6.6,16.95h-3.26Z"/>
        <path class="cls-8" d="M654.07,444.63v-16.95h3.79v16.95h-3.79ZM656.98,430.95v-3.27h9.17v3.27h-9.17ZM656.98,437.58v-3.19h8.45v3.19h-8.45ZM656.98,444.63v-3.26h9.31v3.26h-9.31Z"/>
      </g>
      <g>
        <path class="cls-10" d="M608.58,263.5c14.35-.29,27.85,7.62,32.54,17.33-6.85,16.21-43.44,29.75-62.86.07,3.23-4.9,6.89-8.65,10.89-11.38-3.83-1.86-8.1-3.19-12.57-3.75-3.56,3.68-6.82,8.17-9.84,13.51,26.62,47.42,76.77,25.79,86.16-.12-7.89-19.02-34.18-33.79-58.15-25.3,5.25,2.47,9.89,5.75,13.84,9.63Z"/>
        <path class="cls-10" d="M589.09,305.58c-18.76,6.42-43.1,1.32-58.6-26.29,25.91-45.75,74.87-27.33,86.16-.12-2.24,6.19-6.81,12.09-12.82,16.91-3.45-.61-6.86-1.74-10.17-3.49,5.3-3.19,9.37-7.35,11.23-11.75-8.24-17.03-43.96-28.56-62.86.07,9.79,14.96,23.96,18.9,36.47,17.09,3.12,2.76,7.28,5.88,10.61,7.58Z"/>
      </g>
    </g>
    <g>
      <rect class="cls-16" x="755.24" y="363.51" width="296.41" height="119.65"/>
      <text class="cls-11" transform="translate(786.46 520.72)"><tspan class="cls-27"><tspan x="0" y="0">Building sustainable solutions </tspan></tspan><tspan class="cls-27" x="13.81" y="24">and advanced cente</tspan><tspan class="cls-15" x="178.99" y="24">r</tspan><tspan class="cls-27" x="186.32" y="24">s for </tspan><tspan class="cls-27" x="32.86" y="48">unde</tspan><tspan class="cls-15" x="72.85" y="48">r</tspan><tspan class="cls-27" x="80.18" y="48">se</tspan><tspan class="cls-18" x="97.89" y="48">r</tspan><tspan class="cls-27" x="105.29" y="48">ved </tspan><tspan class="cls-14" x="138.84" y="48">r</tspan><tspan class="cls-27" x="146.1" y="48">egions.</tspan></text>
      <g>
        <path class="cls-8" d="M821.24,396.76v-16.94h3.79v16.94h-3.79ZM824.14,389.8v-2.83h3.58c.74,0,1.31-.19,1.73-.56.42-.38.62-.88.62-1.52s-.2-1.11-.61-1.51c-.41-.4-.98-.6-1.72-.6h-3.6v-2.95h4.03c1.14,0,2.13.21,2.98.64s1.51,1.01,1.98,1.76c.47.75.71,1.61.71,2.57,0,1.02-.24,1.91-.72,2.65-.48.74-1.15,1.32-2.02,1.74s-1.88.62-3.05.62h-3.91ZM830.45,396.76l-5.28-7.3,3.48-.96,6.29,8.26h-4.49Z"/>
        <path class="cls-8" d="M838.95,396.76v-16.94h3.79v16.94h-3.79ZM841.85,383.08v-3.26h9.17v3.26h-9.17ZM841.85,389.71v-3.19h8.45v3.19h-8.45ZM841.85,396.76v-3.26h9.31v3.26h-9.31Z"/>
        <path class="cls-8" d="M856.11,396.76v-16.94h3.79v16.94h-3.79ZM859.01,383.08v-3.26h8.88v3.26h-8.88ZM859.01,390.14v-3.29h8.5v3.29h-8.5Z"/>
        <path class="cls-8" d="M872.67,396.76v-16.94h3.79v16.94h-3.79ZM875.57,389.8v-2.83h3.58c.74,0,1.31-.19,1.73-.56.42-.38.62-.88.62-1.52s-.2-1.11-.61-1.51c-.41-.4-.98-.6-1.72-.6h-3.6v-2.95h4.03c1.14,0,2.13.21,2.98.64.85.42,1.51,1.01,1.98,1.76s.71,1.61.71,2.57c0,1.02-.24,1.91-.72,2.65-.48.74-1.15,1.32-2.02,1.74-.86.42-1.88.62-3.05.62h-3.91ZM881.88,396.76l-5.28-7.3,3.48-.96,6.29,8.26h-4.49Z"/>
        <path class="cls-8" d="M888.6,396.76l6.7-16.94h3.43l6.65,16.94h-4.01l-5.06-14.04h1.39l-5.18,14.04h-3.91ZM892.45,393.71v-3.07h9.22v3.07h-9.22Z"/>
        <path class="cls-8" d="M917.79,397.02c-1.26,0-2.44-.22-3.52-.66-1.08-.44-2.02-1.06-2.83-1.86-.81-.8-1.44-1.73-1.88-2.8-.45-1.06-.67-2.21-.67-3.44s.22-2.38.67-3.44c.45-1.06,1.08-1.99,1.88-2.77.81-.78,1.75-1.4,2.82-1.84,1.07-.44,2.25-.66,3.53-.66,1.34,0,2.54.22,3.59.65,1.05.43,1.96,1.02,2.75,1.78l-2.54,2.57c-.43-.48-.96-.86-1.6-1.13s-1.36-.41-2.2-.41c-.74,0-1.41.12-2.02.37-.61.25-1.14.6-1.58,1.07-.45.46-.79,1.02-1.03,1.68s-.36,1.37-.36,2.14.12,1.52.36,2.17c.24.65.58,1.21,1.03,1.68.45.47.98.83,1.58,1.08.61.25,1.28.37,2.02.37.86,0,1.62-.13,2.26-.4.64-.26,1.18-.64,1.63-1.14l2.57,2.57c-.8.77-1.73,1.36-2.78,1.79-1.06.42-2.28.64-3.67.64Z"/>
        <path class="cls-8" d="M927.53,383.13v-3.31h14.4v3.31h-14.4ZM932.84,396.76v-16.73h3.82v16.73h-3.82Z"/>
        <path class="cls-8" d="M946.42,396.76v-16.94h3.79v16.94h-3.79Z"/>
        <path class="cls-8" d="M961.13,396.76l-6.53-16.94h4.06l4.97,13.7h-1.66l5.02-13.7h4.01l-6.6,16.94h-3.26Z"/>
        <path class="cls-8" d="M975.36,396.76v-16.94h3.79v16.94h-3.79ZM978.27,383.08v-3.26h9.17v3.26h-9.17ZM978.27,389.71v-3.19h8.45v3.19h-8.45ZM978.27,396.76v-3.26h9.31v3.26h-9.31Z"/>
        <path class="cls-8" d="M799.49,421.02c-1.41,0-2.61-.22-3.61-.67-1-.45-1.91-1.14-2.72-2.06l2.45-2.45c.54.62,1.15,1.11,1.81,1.45s1.44.52,2.32.52c.78,0,1.4-.15,1.84-.44.44-.29.66-.7.66-1.21,0-.45-.14-.82-.42-1.1-.28-.29-.66-.54-1.14-.74-.48-.21-1-.4-1.56-.59-.56-.18-1.12-.4-1.69-.66s-1.09-.57-1.56-.94c-.47-.37-.85-.84-1.14-1.42-.29-.58-.43-1.29-.43-2.14,0-1.06.25-1.96.76-2.71.5-.75,1.21-1.32,2.12-1.72.91-.39,1.94-.59,3.1-.59s2.29.21,3.26.62c.98.42,1.78.98,2.42,1.68l-2.47,2.47c-.51-.53-1.03-.92-1.55-1.18-.52-.25-1.1-.38-1.74-.38s-1.18.12-1.56.37c-.38.25-.58.6-.58,1.07,0,.42.14.76.43,1.02.29.26.67.49,1.14.68.47.19.99.38,1.56.58.57.19,1.14.41,1.7.66.57.25,1.08.57,1.55.97.46.4.84.9,1.14,1.49.3.59.44,1.34.44,2.23,0,1.62-.58,2.88-1.73,3.8-1.15.92-2.75,1.38-4.8,1.38Z"/>
        <path class="cls-8" d="M817.92,421.02c-1.41,0-2.64-.3-3.71-.9-1.06-.6-1.9-1.42-2.5-2.47-.6-1.05-.9-2.24-.9-3.56v-10.27h3.79v10.46c0,.69.15,1.28.44,1.78s.69.87,1.19,1.13c.5.26,1.06.38,1.68.38s1.16-.13,1.64-.38c.49-.26.87-.63,1.14-1.13.27-.5.41-1.08.41-1.75v-10.49h3.82v10.3c0,1.33-.3,2.51-.89,3.55s-1.42,1.86-2.47,2.46c-1.06.6-2.27.9-3.65.9Z"/>
        <path class="cls-8" d="M830.31,420.76v-16.94h3.79v16.94h-3.79ZM833.21,413.8v-2.83h3.58c.74,0,1.31-.19,1.73-.56.42-.38.62-.88.62-1.52s-.2-1.11-.61-1.51c-.41-.4-.98-.6-1.72-.6h-3.6v-2.95h4.03c1.14,0,2.13.21,2.98.64.85.42,1.51,1.01,1.98,1.76s.71,1.61.71,2.57c0,1.02-.24,1.91-.72,2.65-.48.74-1.15,1.32-2.02,1.74-.86.42-1.88.62-3.05.62h-3.91ZM839.52,420.76l-5.28-7.3,3.48-.96,6.29,8.26h-4.49Z"/>
        <path class="cls-8" d="M855.96,421.05c-1.25,0-2.41-.23-3.49-.68-1.08-.46-2.02-1.08-2.82-1.88-.8-.8-1.43-1.73-1.88-2.78-.46-1.06-.68-2.2-.68-3.43s.23-2.4.7-3.44c.46-1.05,1.11-1.97,1.94-2.76s1.8-1.41,2.89-1.86c1.1-.45,2.28-.67,3.54-.67,1.46,0,2.78.27,3.98.8s2.19,1.27,2.98,2.2l-2.59,2.59c-.53-.7-1.16-1.24-1.91-1.6-.74-.36-1.57-.54-2.48-.54-.99,0-1.88.22-2.66.66-.78.44-1.4,1.06-1.84,1.85-.44.79-.66,1.72-.66,2.77s.22,1.96.65,2.76c.43.8,1.02,1.43,1.78,1.88.75.46,1.62.68,2.59.68s1.81-.19,2.51-.56c.7-.38,1.23-.92,1.61-1.64s.56-1.58.56-2.59l2.52,1.68-7.56-.12v-3.19h8.9v.55c0,2.02-.36,3.72-1.09,5.11-.73,1.39-1.74,2.44-3.02,3.16-1.29.71-2.77,1.07-4.45,1.07Z"/>
        <path class="cls-8" d="M869.19,420.76v-16.94h3.79v16.94h-3.79ZM872.09,407.08v-3.26h9.17v3.26h-9.17ZM872.09,413.71v-3.19h8.45v3.19h-8.45ZM872.09,420.76v-3.26h9.31v3.26h-9.31Z"/>
        <path class="cls-8" d="M886.35,420.76v-16.94h3.79v16.94h-3.79ZM889.25,413.8v-2.83h3.58c.74,0,1.31-.19,1.73-.56.42-.38.62-.88.62-1.52s-.2-1.11-.61-1.51c-.41-.4-.98-.6-1.72-.6h-3.6v-2.95h4.03c1.14,0,2.13.21,2.98.64s1.51,1.01,1.98,1.76c.47.75.71,1.61.71,2.57,0,1.02-.24,1.91-.72,2.65-.48.74-1.15,1.32-2.02,1.74s-1.88.62-3.05.62h-3.91ZM895.56,420.76l-5.28-7.3,3.48-.96,6.29,8.26h-4.49Z"/>
        <path class="cls-8" d="M908.5,414.47l-6.53-10.66h4.37l5.02,8.59h-2.83l5.02-8.59h4.3l-6.58,10.66h-2.76ZM908.02,420.76v-8.04h3.82v8.04h-3.82Z"/>
        <path class="cls-8" d="M928.44,420.76v-16.94h3.79v16.94h-3.79Z"/>
        <path class="cls-8" d="M937.87,420.76v-16.94h2.66l1.13,3.38v13.56h-3.79ZM949.56,420.76l-9.96-12.79.94-4.15,9.98,12.79-.96,4.15ZM949.56,420.76l-1.01-3.38v-13.56h3.82v16.94h-2.81Z"/>
        <path class="cls-8" d="M963.41,407.13v-3.31h14.4v3.31h-14.4ZM968.71,420.76v-16.73h3.82v16.73h-3.82Z"/>
        <path class="cls-8" d="M982.3,420.76v-16.94h3.79v16.94h-3.79ZM984.58,413.71v-3.29h9.46v3.29h-9.46ZM992.79,420.76v-16.94h3.82v16.94h-3.82Z"/>
        <path class="cls-8" d="M1002.22,420.76v-16.94h3.79v16.94h-3.79ZM1005.12,407.08v-3.26h9.17v3.26h-9.17ZM1005.12,413.71v-3.19h8.45v3.19h-8.45ZM1005.12,420.76v-3.26h9.31v3.26h-9.31Z"/>
        <path class="cls-8" d="M817.5,444.76v-16.94h3.79v16.94h-3.79ZM820.1,444.76v-3.31h4.18c1.02,0,1.92-.21,2.68-.62s1.35-1.01,1.76-1.79.62-1.7.62-2.77-.21-1.97-.64-2.75c-.42-.78-1.02-1.37-1.78-1.78-.76-.41-1.64-.61-2.65-.61h-4.3v-3.31h4.34c1.28,0,2.46.2,3.54.61s2.02.99,2.83,1.75c.81.76,1.44,1.65,1.88,2.68.45,1.02.67,2.17.67,3.43s-.22,2.36-.67,3.4-1.07,1.93-1.87,2.69-1.74,1.35-2.82,1.76c-1.08.42-2.25.62-3.52.62h-4.27Z"/>
        <path class="cls-8" d="M838,444.76v-16.94h3.79v16.94h-3.79ZM840.9,431.08v-3.26h9.17v3.26h-9.17ZM840.9,437.71v-3.19h8.45v3.19h-8.45ZM840.9,444.76v-3.26h9.31v3.26h-9.31Z"/>
        <path class="cls-8" d="M860.1,444.76l-6.53-16.94h4.06l4.97,13.7h-1.66l5.02-13.7h4.01l-6.6,16.94h-3.26Z"/>
        <path class="cls-8" d="M874.34,444.76v-16.94h3.79v16.94h-3.79ZM877.24,431.08v-3.26h9.17v3.26h-9.17ZM877.24,437.71v-3.19h8.45v3.19h-8.45ZM877.24,444.76v-3.26h9.31v3.26h-9.31Z"/>
        <path class="cls-8" d="M891.5,444.76v-16.94h3.79v16.94h-3.79ZM894.42,444.76v-3.31h8.38v3.31h-8.38Z"/>
        <path class="cls-8" d="M914.54,445.05c-1.28,0-2.46-.22-3.55-.67-1.09-.45-2.04-1.07-2.86-1.87-.82-.8-1.45-1.73-1.9-2.8-.45-1.06-.67-2.21-.67-3.44s.22-2.4.67-3.46c.45-1.06,1.07-1.98,1.87-2.77.8-.79,1.74-1.41,2.83-1.85,1.09-.44,2.27-.66,3.55-.66s2.44.22,3.52.66c1.08.44,2.03,1.06,2.84,1.85.82.79,1.44,1.72,1.88,2.78.44,1.06.66,2.22.66,3.47s-.22,2.38-.67,3.44c-.45,1.06-1.07,1.99-1.87,2.78-.8.79-1.74,1.41-2.81,1.86-1.07.45-2.24.67-3.5.67ZM914.49,441.59c1.01,0,1.89-.22,2.64-.67s1.34-1.07,1.76-1.87c.42-.8.64-1.73.64-2.78,0-.78-.12-1.5-.36-2.15-.24-.65-.58-1.21-1.03-1.68-.45-.47-.98-.83-1.61-1.08-.62-.25-1.3-.37-2.04-.37-1.01,0-1.89.22-2.65.66-.76.44-1.35,1.06-1.76,1.85s-.62,1.72-.62,2.77c0,.8.12,1.53.36,2.18.24.66.58,1.22,1.03,1.69.45.47.98.83,1.6,1.08.62.25,1.3.37,2.05.37Z"/>
        <path class="cls-8" d="M928.17,444.76v-16.94h3.79v16.94h-3.79ZM931.07,438.59v-2.95h3.65c.46,0,.88-.09,1.26-.28.38-.18.68-.46.9-.83.22-.37.34-.81.34-1.32s-.11-.98-.34-1.34c-.22-.37-.52-.64-.9-.83s-.8-.28-1.26-.28h-3.65v-2.95h4.2c1.07,0,2.04.22,2.92.65s1.56,1.05,2.06,1.86c.5.81.76,1.77.76,2.89s-.25,2.06-.76,2.87-1.19,1.43-2.06,1.86c-.87.43-1.84.65-2.92.65h-4.2Z"/>
        <path class="cls-8" d="M945.47,444.76v-16.94h3.79v16.94h-3.79Z"/>
        <path class="cls-8" d="M954.9,444.76v-16.94h2.66l1.13,3.38v13.56h-3.79ZM966.59,444.76l-9.96-12.79.94-4.15,9.98,12.79-.96,4.15ZM966.59,444.76l-1.01-3.38v-13.56h3.82v16.94h-2.81Z"/>
        <path class="cls-8" d="M983.03,445.05c-1.25,0-2.41-.23-3.49-.68-1.08-.46-2.02-1.08-2.82-1.88-.8-.8-1.43-1.73-1.88-2.78-.46-1.06-.68-2.2-.68-3.43s.23-2.4.7-3.44c.46-1.05,1.11-1.97,1.94-2.76s1.8-1.41,2.89-1.86c1.1-.45,2.28-.67,3.54-.67,1.46,0,2.78.27,3.98.8s2.19,1.27,2.98,2.2l-2.59,2.59c-.53-.7-1.16-1.24-1.91-1.6-.74-.36-1.57-.54-2.48-.54-.99,0-1.88.22-2.66.66-.78.44-1.4,1.06-1.84,1.85-.44.79-.66,1.72-.66,2.77s.22,1.96.65,2.76c.43.8,1.02,1.43,1.78,1.88.75.46,1.62.68,2.59.68s1.81-.19,2.51-.56c.7-.38,1.23-.92,1.61-1.64s.56-1.58.56-2.59l2.52,1.68-7.56-.12v-3.19h8.9v.55c0,2.02-.36,3.72-1.09,5.11-.73,1.39-1.74,2.44-3.02,3.16-1.29.71-2.77,1.07-4.45,1.07Z"/>
        <path class="cls-8" d="M856.5,468.76l-5.47-16.94h3.77l3.98,13.03h-1.46l3.86-13.03h2.98l3.89,13.03h-1.46l3.98-13.03h3.74l-5.47,16.94h-2.95l-3.94-13.01h1.42l-3.91,13.01h-2.95Z"/>
        <path class="cls-8" d="M886.19,469.05c-1.28,0-2.46-.22-3.55-.67-1.09-.45-2.04-1.07-2.86-1.87-.82-.8-1.45-1.73-1.9-2.8s-.67-2.21-.67-3.44.22-2.4.67-3.46,1.07-1.98,1.87-2.77,1.74-1.41,2.83-1.85c1.09-.44,2.27-.66,3.55-.66s2.44.22,3.52.66c1.08.44,2.03,1.06,2.84,1.85s1.44,1.72,1.88,2.78c.44,1.06.66,2.22.66,3.47s-.22,2.38-.67,3.44c-.45,1.06-1.07,1.99-1.87,2.78s-1.74,1.41-2.81,1.86c-1.07.45-2.24.67-3.5.67ZM886.14,465.59c1.01,0,1.89-.22,2.64-.67.75-.45,1.34-1.07,1.76-1.87s.64-1.73.64-2.78c0-.78-.12-1.5-.36-2.15-.24-.65-.58-1.21-1.03-1.68-.45-.47-.98-.83-1.61-1.08-.62-.25-1.3-.37-2.04-.37-1.01,0-1.89.22-2.65.66-.76.44-1.35,1.06-1.76,1.85s-.62,1.72-.62,2.77c0,.8.12,1.53.36,2.18s.58,1.22,1.03,1.69c.45.47.98.83,1.6,1.08s1.3.37,2.05.37Z"/>
        <path class="cls-8" d="M899.82,468.76v-16.94h3.79v16.94h-3.79ZM902.72,461.8v-2.83h3.58c.74,0,1.31-.19,1.73-.56.42-.38.62-.88.62-1.52s-.2-1.11-.61-1.51c-.41-.4-.98-.6-1.72-.6h-3.6v-2.95h4.03c1.14,0,2.13.21,2.98.64s1.51,1.01,1.98,1.76c.47.75.71,1.61.71,2.57,0,1.02-.24,1.91-.72,2.65-.48.74-1.15,1.32-2.02,1.74s-1.88.62-3.05.62h-3.91ZM909.03,468.76l-5.28-7.3,3.48-.96,6.29,8.26h-4.49Z"/>
        <path class="cls-8" d="M917.53,468.76v-16.94h3.79v16.94h-3.79ZM920.46,468.76v-3.31h8.38v3.31h-8.38Z"/>
        <path class="cls-8" d="M933.39,468.76v-16.94h3.79v16.94h-3.79ZM935.99,468.76v-3.31h4.18c1.02,0,1.92-.21,2.68-.62s1.35-1.01,1.76-1.79.62-1.7.62-2.77-.21-1.97-.64-2.75c-.42-.78-1.02-1.37-1.78-1.78-.76-.41-1.64-.61-2.65-.61h-4.3v-3.31h4.34c1.28,0,2.46.2,3.54.61s2.02.99,2.83,1.75c.81.76,1.44,1.65,1.88,2.68.45,1.02.67,2.17.67,3.43s-.22,2.36-.67,3.4-1.07,1.93-1.87,2.69-1.74,1.35-2.82,1.76c-1.08.42-2.25.62-3.52.62h-4.27Z"/>
        <path d="M954.89,468.94c-.38,0-.7-.13-.94-.39-.25-.26-.37-.57-.37-.95s.12-.7.37-.95c.25-.25.56-.38.94-.38s.7.13.95.38c.25.25.37.57.37.95s-.12.69-.37.95-.56.39-.95.39Z"/>
      </g>
      <path class="cls-4" d="M922.53,282.61c.2,1.07.32,2.16.32,3.29,0,9.8-7.94,17.74-17.74,17.74s-17.74-7.94-17.74-17.74,7.94-17.74,17.74-17.74c5.23,0,9.92,2.28,13.16,5.88-2.9.05-5.24,2.4-5.24,5.31s2.38,5.32,5.32,5.32c1.7,0,3.2-.81,4.17-2.06ZM917.11,285.71c-1.46,0-2.64,1.18-2.64,2.64s1.18,2.64,2.64,2.64,2.64-1.18,2.64-2.64-1.18-2.64-2.64-2.64Z"/>
      <path class="cls-4" d="M901.05,309.69c-8.68,0-16.66-1.63-22.93-4.34,2.9-1.44,4.9-4.42,4.9-7.88,0-4.86-3.94-8.8-8.8-8.8-4.07,0-7.49,2.77-8.49,6.53-.83-1.64-1.28-3.37-1.28-5.16,0-9.66,13-17.69,30.13-19.33-.52-.01-1.05-.02-1.58-.02-21.43,0-38.8,10.45-38.8,23.34s17.37,23.34,38.8,23.34c16.3,0,30.25-6.05,35.99-14.63-6.72,4.25-16.73,6.95-27.93,6.95Z"/>
      <path class="cls-4" d="M947.09,264.81c3.42-1.86,5.74-5.49,5.74-9.66,0-6.07-4.92-10.99-10.99-10.99s-10.99,4.92-10.99,10.99c0,.8.09,1.57.25,2.32-4.53-1.12-9.49-1.74-14.69-1.74-16.3,0-30.25,6.05-35.99,14.63,6.72-4.25,16.73-6.95,27.93-6.95,20.22,0,36.61,8.8,36.61,19.65,0,9.66-13,17.69-30.13,19.33.52.01,1.05.02,1.58.02,21.43,0,38.8-10.45,38.8-23.34,0-5.38-3.03-10.33-8.11-14.27Z"/>
    </g>
    <g>
      <rect class="cls-7" x="1067.49" y="363.51" width="297.09" height="119.65"/>
      <text class="cls-11" transform="translate(1105.69 520.72)"><tspan class="cls-27" x="0" y="0"> </tspan><tspan class="cls-21" x="3.78" y="0">L</tspan><tspan class="cls-27" x="13.57" y="0">ocal ca</tspan><tspan class="cls-13" x="71.15" y="0">r</tspan><tspan class="cls-27" x="78.41" y="0">e cente</tspan><tspan class="cls-17" x="137.59" y="0">r</tspan><tspan class="cls-28" x="144.92" y="0">s offe</tspan><tspan class="cls-24" x="191.59" y="0">r</tspan><tspan class="cls-27" x="199.1" y="0">ing </tspan><tspan class="cls-27" x="-1.75" y="24">f</tspan><tspan class="cls-14" x="5.69" y="24">r</tspan><tspan class="cls-27" x="12.94" y="24">ee </tspan><tspan class="cls-12" x="36.31" y="24">r</tspan><tspan class="cls-28" x="43.56" y="24">ef</tspan><tspan class="cls-13" x="60.79" y="24">r</tspan><tspan class="cls-28" x="68.04" y="24">active su</tspan><tspan class="cls-13" x="139.32" y="24">r</tspan><tspan class="cls-27" x="146.57" y="24">ge</tspan><tspan class="cls-24" x="166.89" y="24">r</tspan><tspan class="cls-27" x="174.4" y="24">ies for </tspan><tspan class="cls-27" x="8.1" y="48">l</tspan><tspan class="cls-26" x="12.46" y="48">ow</tspan><tspan class="cls-27" x="36.09" y="48">e</tspan><tspan class="cls-20" x="45.88" y="48">r</tspan><tspan class="cls-27" x="52.88" y="48">-income individuals.</tspan></text>
      <g>
        <path class="cls-8" d="M1106.31,406.24l-6.53-16.94h4.06l4.97,13.7h-1.66l5.02-13.7h4.01l-6.6,16.94h-3.26Z"/>
        <path class="cls-8" d="M1120.54,406.24v-16.94h3.79v16.94h-3.79Z"/>
        <path class="cls-8" d="M1134.75,406.5c-1.41,0-2.61-.22-3.61-.67-1-.45-1.91-1.14-2.72-2.06l2.45-2.45c.54.62,1.15,1.11,1.81,1.45s1.44.52,2.32.52c.78,0,1.4-.15,1.84-.44.44-.29.66-.7.66-1.21,0-.45-.14-.82-.42-1.1-.28-.29-.66-.54-1.14-.74-.48-.21-1-.4-1.56-.59-.56-.18-1.12-.4-1.69-.66s-1.09-.57-1.56-.94c-.47-.37-.85-.84-1.14-1.42-.29-.58-.43-1.29-.43-2.14,0-1.06.25-1.96.76-2.71.5-.75,1.21-1.32,2.12-1.72.91-.39,1.94-.59,3.1-.59s2.29.21,3.26.62c.98.42,1.78.98,2.42,1.68l-2.47,2.47c-.51-.53-1.03-.92-1.55-1.18-.52-.25-1.1-.38-1.74-.38s-1.18.12-1.56.37c-.38.25-.58.6-.58,1.07,0,.42.14.76.43,1.02.29.26.67.49,1.14.68.47.19.99.38,1.56.58.57.19,1.14.41,1.7.66.57.25,1.08.57,1.55.97.46.4.84.9,1.14,1.49.3.59.44,1.34.44,2.23,0,1.62-.58,2.88-1.73,3.8-1.15.92-2.75,1.38-4.8,1.38Z"/>
        <path class="cls-8" d="M1153.18,406.5c-1.41,0-2.64-.3-3.71-.9-1.06-.6-1.9-1.42-2.5-2.47-.6-1.05-.9-2.24-.9-3.56v-10.27h3.79v10.46c0,.69.15,1.28.44,1.78.3.5.69.87,1.19,1.13s1.06.38,1.68.38,1.16-.13,1.64-.38.87-.63,1.14-1.13c.27-.5.41-1.08.41-1.75v-10.49h3.82v10.3c0,1.33-.3,2.51-.89,3.55s-1.42,1.86-2.47,2.46c-1.06.6-2.27.9-3.65.9Z"/>
        <path class="cls-8" d="M1164.32,406.24l6.7-16.94h3.43l6.65,16.94h-4.01l-5.06-14.04h1.39l-5.18,14.04h-3.91ZM1168.16,403.19v-3.07h9.22v3.07h-9.22Z"/>
        <path class="cls-8" d="M1185.46,406.24v-16.94h3.79v16.94h-3.79ZM1188.39,406.24v-3.31h8.38v3.31h-8.38Z"/>
        <path class="cls-8" d="M1208.09,406.24v-16.94h3.79v16.94h-3.79ZM1210.99,392.56v-3.26h8.88v3.26h-8.88ZM1210.99,399.62v-3.29h8.5v3.29h-8.5Z"/>
        <path class="cls-8" d="M1224.65,406.24v-16.94h3.79v16.94h-3.79ZM1227.55,399.28v-2.83h3.58c.74,0,1.31-.19,1.73-.56.42-.38.62-.88.62-1.52s-.2-1.11-.61-1.51c-.41-.4-.98-.6-1.72-.6h-3.6v-2.95h4.03c1.14,0,2.13.21,2.98.64.85.42,1.51,1.01,1.98,1.76s.71,1.61.71,2.57c0,1.02-.24,1.91-.72,2.65-.48.74-1.15,1.32-2.02,1.74-.86.42-1.88.62-3.05.62h-3.91ZM1233.87,406.24l-5.28-7.3,3.48-.96,6.29,8.26h-4.49Z"/>
        <path class="cls-8" d="M1242.36,406.24v-16.94h3.79v16.94h-3.79ZM1245.27,392.56v-3.26h9.17v3.26h-9.17ZM1245.27,399.18v-3.19h8.45v3.19h-8.45ZM1245.27,406.24v-3.26h9.31v3.26h-9.31Z"/>
        <path class="cls-8" d="M1259.52,406.24v-16.94h3.79v16.94h-3.79ZM1262.43,392.56v-3.26h9.17v3.26h-9.17ZM1262.43,399.18v-3.19h8.45v3.19h-8.45ZM1262.43,406.24v-3.26h9.31v3.26h-9.31Z"/>
        <path class="cls-8" d="M1276.68,406.24v-16.94h3.79v16.94h-3.79ZM1279.27,406.24v-3.31h4.18c1.02,0,1.92-.21,2.68-.62s1.35-1.01,1.76-1.79.62-1.7.62-2.77-.21-1.97-.64-2.75c-.42-.78-1.02-1.37-1.78-1.78-.76-.41-1.64-.61-2.65-.61h-4.3v-3.31h4.34c1.28,0,2.46.2,3.54.61s2.02.99,2.83,1.75,1.44,1.65,1.88,2.68c.45,1.02.67,2.17.67,3.43s-.22,2.36-.67,3.4c-.45,1.03-1.07,1.93-1.87,2.69-.8.76-1.74,1.35-2.82,1.76s-2.25.62-3.52.62h-4.27Z"/>
        <path class="cls-8" d="M1305.29,406.53c-1.28,0-2.46-.22-3.55-.67-1.09-.45-2.04-1.07-2.86-1.87-.82-.8-1.45-1.73-1.9-2.8s-.67-2.21-.67-3.44.22-2.4.67-3.46,1.07-1.98,1.87-2.77,1.74-1.41,2.83-1.85c1.09-.44,2.27-.66,3.55-.66s2.44.22,3.52.66c1.08.44,2.03,1.06,2.84,1.85s1.44,1.72,1.88,2.78c.44,1.06.66,2.22.66,3.47s-.22,2.38-.67,3.44c-.45,1.06-1.07,1.99-1.87,2.78s-1.74,1.41-2.81,1.86c-1.07.45-2.24.67-3.5.67ZM1305.24,403.07c1.01,0,1.89-.22,2.64-.67.75-.45,1.34-1.07,1.76-1.87s.64-1.73.64-2.78c0-.78-.12-1.5-.36-2.15-.24-.65-.58-1.21-1.03-1.68-.45-.47-.98-.83-1.61-1.08-.62-.25-1.3-.37-2.04-.37-1.01,0-1.89.22-2.65.66-.76.44-1.35,1.06-1.76,1.85s-.62,1.72-.62,2.77c0,.8.12,1.53.36,2.18s.58,1.22,1.03,1.69c.45.47.98.83,1.6,1.08s1.3.37,2.05.37Z"/>
        <path class="cls-8" d="M1318.92,406.24v-16.94h2.74l6.67,10.39h-1.42l6.65-10.39h2.74v16.94h-3.77v-10.58l.65.19-4.32,6.74h-2.5l-4.32-6.74.65-.19v10.58h-3.77Z"/>
        <path class="cls-8" d="M1144.48,430.5c-1.26,0-2.44-.22-3.52-.66-1.08-.44-2.02-1.06-2.83-1.86-.81-.8-1.44-1.73-1.88-2.8s-.67-2.21-.67-3.44.22-2.38.67-3.44c.45-1.06,1.08-1.99,1.88-2.77.81-.78,1.75-1.4,2.82-1.84s2.25-.66,3.53-.66c1.34,0,2.54.22,3.59.65,1.05.43,1.96,1.02,2.75,1.78l-2.54,2.57c-.43-.48-.96-.86-1.6-1.13-.63-.27-1.36-.41-2.2-.41-.74,0-1.41.12-2.02.37-.61.25-1.14.6-1.58,1.07-.45.46-.79,1.02-1.03,1.68-.24.66-.36,1.37-.36,2.14s.12,1.52.36,2.17c.24.65.58,1.21,1.03,1.68.45.47.98.83,1.58,1.08.61.25,1.28.37,2.02.37.86,0,1.62-.13,2.26-.4.64-.26,1.18-.64,1.63-1.14l2.57,2.57c-.8.77-1.73,1.36-2.78,1.79s-2.28.64-3.67.64Z"/>
        <path class="cls-8" d="M1155.37,430.24v-16.94h3.79v16.94h-3.79ZM1158.28,416.56v-3.26h9.17v3.26h-9.17ZM1158.28,423.18v-3.19h8.45v3.19h-8.45ZM1158.28,430.24v-3.26h9.31v3.26h-9.31Z"/>
        <path class="cls-8" d="M1172.53,430.24v-16.94h2.66l1.13,3.38v13.56h-3.79ZM1184.22,430.24l-9.96-12.79.94-4.15,9.98,12.79-.96,4.15ZM1184.22,430.24l-1.01-3.38v-13.56h3.82v16.94h-2.81Z"/>
        <path class="cls-8" d="M1191.49,416.61v-3.31h14.4v3.31h-14.4ZM1196.8,430.24v-16.73h3.82v16.73h-3.82Z"/>
        <path class="cls-8" d="M1210.38,430.24v-16.94h3.79v16.94h-3.79ZM1213.29,416.56v-3.26h9.17v3.26h-9.17ZM1213.29,423.18v-3.19h8.45v3.19h-8.45ZM1213.29,430.24v-3.26h9.31v3.26h-9.31Z"/>
        <path class="cls-8" d="M1227.54,430.24v-16.94h3.79v16.94h-3.79ZM1230.45,423.28v-2.83h3.58c.74,0,1.31-.19,1.73-.56.42-.38.62-.88.62-1.52s-.2-1.11-.61-1.51c-.41-.4-.98-.6-1.72-.6h-3.6v-2.95h4.03c1.14,0,2.13.21,2.98.64s1.51,1.01,1.98,1.76c.47.75.71,1.61.71,2.57,0,1.02-.24,1.91-.72,2.65-.48.74-1.15,1.32-2.02,1.74s-1.88.62-3.05.62h-3.91ZM1236.76,430.24l-5.28-7.3,3.48-.96,6.29,8.26h-4.49Z"/>
        <path class="cls-8" d="M1249.96,430.5c-1.41,0-2.61-.22-3.61-.67-1-.45-1.91-1.14-2.72-2.06l2.45-2.45c.54.62,1.15,1.11,1.81,1.45.66.34,1.44.52,2.32.52.78,0,1.4-.15,1.84-.44.44-.29.66-.7.66-1.21,0-.45-.14-.82-.42-1.1s-.66-.54-1.14-.74c-.48-.21-1-.4-1.56-.59-.56-.18-1.12-.4-1.69-.66-.57-.26-1.09-.57-1.56-.94s-.85-.84-1.14-1.42c-.29-.58-.43-1.29-.43-2.14,0-1.06.25-1.96.76-2.71.5-.75,1.21-1.32,2.12-1.72.91-.39,1.94-.59,3.1-.59s2.29.21,3.26.62,1.78.98,2.42,1.68l-2.47,2.47c-.51-.53-1.03-.92-1.55-1.18-.52-.25-1.1-.38-1.74-.38s-1.18.12-1.56.37-.58.6-.58,1.07c0,.42.14.76.43,1.02.29.26.67.49,1.14.68.47.19.99.38,1.56.58.57.19,1.14.41,1.7.66.57.25,1.08.57,1.55.97.46.4.84.9,1.14,1.49.3.59.44,1.34.44,2.23,0,1.62-.58,2.88-1.73,3.8-1.15.92-2.75,1.38-4.8,1.38Z"/>
        <path class="cls-8" d="M1276.31,430.53c-1.28,0-2.46-.22-3.55-.67-1.09-.45-2.04-1.07-2.86-1.87-.82-.8-1.45-1.73-1.9-2.8s-.67-2.21-.67-3.44.22-2.4.67-3.46,1.07-1.98,1.87-2.77,1.74-1.41,2.83-1.85c1.09-.44,2.27-.66,3.55-.66s2.44.22,3.52.66c1.08.44,2.03,1.06,2.84,1.85s1.44,1.72,1.88,2.78c.44,1.06.66,2.22.66,3.47s-.22,2.38-.67,3.44c-.45,1.06-1.07,1.99-1.87,2.78s-1.74,1.41-2.81,1.86c-1.07.45-2.24.67-3.5.67ZM1276.26,427.07c1.01,0,1.89-.22,2.64-.67.75-.45,1.34-1.07,1.76-1.87s.64-1.73.64-2.78c0-.78-.12-1.5-.36-2.15-.24-.65-.58-1.21-1.03-1.68-.45-.47-.98-.83-1.61-1.08-.62-.25-1.3-.37-2.04-.37-1.01,0-1.89.22-2.65.66-.76.44-1.35,1.06-1.76,1.85s-.62,1.72-.62,2.77c0,.8.12,1.53.36,2.18s.58,1.22,1.03,1.69c.45.47.98.83,1.6,1.08s1.3.37,2.05.37Z"/>
        <path class="cls-8" d="M1289.94,430.24v-16.94h3.79v16.94h-3.79ZM1292.85,416.56v-3.26h8.88v3.26h-8.88ZM1292.85,423.62v-3.29h8.5v3.29h-8.5Z"/>
        <path class="cls-8" d="M1132.92,454.24v-16.94h3.79v16.94h-3.79ZM1135.83,440.56v-3.26h9.17v3.26h-9.17ZM1135.83,447.18v-3.19h8.45v3.19h-8.45ZM1135.83,454.24v-3.26h9.31v3.26h-9.31Z"/>
        <path class="cls-8" d="M1148.81,454.24l6.26-9.07,2.93,1.63-4.85,7.44h-4.34ZM1160.83,454.24l-4.7-7.54h-.48l-6.53-9.41h4.51l4.66,7.1h.46l6.53,9.84h-4.44ZM1158.89,446.25l-2.9-1.63,4.68-7.32h4.32l-6.1,8.95Z"/>
        <path class="cls-8" d="M1176.87,454.5c-1.26,0-2.44-.22-3.52-.66-1.08-.44-2.02-1.06-2.83-1.86-.81-.8-1.44-1.73-1.88-2.8s-.67-2.21-.67-3.44.22-2.38.67-3.44c.45-1.06,1.08-1.99,1.88-2.77.81-.78,1.75-1.4,2.82-1.84s2.25-.66,3.53-.66c1.34,0,2.54.22,3.59.65,1.05.43,1.96,1.02,2.75,1.78l-2.54,2.57c-.43-.48-.96-.86-1.6-1.13-.63-.27-1.36-.41-2.2-.41-.74,0-1.41.12-2.02.37-.61.25-1.14.6-1.58,1.07-.45.46-.79,1.02-1.03,1.68-.24.66-.36,1.37-.36,2.14s.12,1.52.36,2.17c.24.65.58,1.21,1.03,1.68.45.47.98.83,1.58,1.08.61.25,1.28.37,2.02.37.86,0,1.62-.13,2.26-.4.64-.26,1.18-.64,1.63-1.14l2.57,2.57c-.8.77-1.73,1.36-2.78,1.79s-2.28.64-3.67.64Z"/>
        <path class="cls-8" d="M1187.76,454.24v-16.94h3.79v16.94h-3.79ZM1190.67,440.56v-3.26h9.17v3.26h-9.17ZM1190.67,447.18v-3.19h8.45v3.19h-8.45ZM1190.67,454.24v-3.26h9.31v3.26h-9.31Z"/>
        <path class="cls-8" d="M1204.92,454.24v-16.94h3.79v16.94h-3.79ZM1207.85,454.24v-3.31h8.38v3.31h-8.38Z"/>
        <path class="cls-8" d="M1220.79,454.24v-16.94h3.79v16.94h-3.79ZM1223.71,454.24v-3.31h8.38v3.31h-8.38Z"/>
        <path class="cls-8" d="M1236.65,454.24v-16.94h3.79v16.94h-3.79ZM1239.55,440.56v-3.26h9.17v3.26h-9.17ZM1239.55,447.18v-3.19h8.45v3.19h-8.45ZM1239.55,454.24v-3.26h9.31v3.26h-9.31Z"/>
        <path class="cls-8" d="M1253.81,454.24v-16.94h2.66l1.13,3.38v13.56h-3.79ZM1265.5,454.24l-9.96-12.79.94-4.15,9.98,12.79-.96,4.15ZM1265.5,454.24l-1.01-3.38v-13.56h3.82v16.94h-2.81Z"/>
        <path class="cls-8" d="M1281.96,454.5c-1.26,0-2.44-.22-3.52-.66-1.08-.44-2.02-1.06-2.83-1.86-.81-.8-1.44-1.73-1.88-2.8s-.67-2.21-.67-3.44.22-2.38.67-3.44c.45-1.06,1.08-1.99,1.88-2.77.81-.78,1.75-1.4,2.82-1.84s2.25-.66,3.53-.66c1.34,0,2.54.22,3.59.65,1.05.43,1.96,1.02,2.75,1.78l-2.54,2.57c-.43-.48-.96-.86-1.6-1.13-.63-.27-1.36-.41-2.2-.41-.74,0-1.41.12-2.02.37-.61.25-1.14.6-1.58,1.07-.45.46-.79,1.02-1.03,1.68-.24.66-.36,1.37-.36,2.14s.12,1.52.36,2.17c.24.65.58,1.21,1.03,1.68.45.47.98.83,1.58,1.08.61.25,1.28.37,2.02.37.86,0,1.62-.13,2.26-.4.64-.26,1.18-.64,1.63-1.14l2.57,2.57c-.8.77-1.73,1.36-2.78,1.79s-2.28.64-3.67.64Z"/>
        <path class="cls-8" d="M1292.86,454.24v-16.94h3.79v16.94h-3.79ZM1295.76,440.56v-3.26h9.17v3.26h-9.17ZM1295.76,447.18v-3.19h8.45v3.19h-8.45ZM1295.76,454.24v-3.26h9.31v3.26h-9.31Z"/>
      </g>
      <path class="cls-1" d="M1231.18,265.72c-1.49-.27-3.26-.52-5.2-.7,1.67-2.11,2.68-4.78,2.68-7.68,0-6.84-5.55-12.39-12.39-12.39s-12.39,5.55-12.39,12.39c0,3.3,1.3,6.29,3.4,8.51-2.19.5-4.26,1.17-6.09,2.08-8.72,4.31-17.9,11.23-21.22,12.83s-8.51,6.52-18.89,4.52c10.24,4.79,19.95,1.6,25.27-1.06,5.32-2.66,18.22-9.44,20.62-10.51s15.03-2.66,22.61-.8c7.58,1.86,16.36,3.19,32.72,13.57-2.93,1.2-7.13,2.75-9.28,4.77,6.62-1.17,12.5-2.14,17.28-1.73-7.99-11.15-31.8-22.46-39.12-23.79Z"/>
      <path class="cls-1" d="M1248.34,295.79c-5.32,2.66-18.22,9.44-20.62,10.51-.42.19-1.17.39-2.14.59,4.69-3.04,7.8-8.31,7.8-14.32,0-9.43-7.64-17.07-17.07-17.07s-17.07,7.64-17.07,17.07c0,6.55,3.7,12.23,9.11,15.1-1.15-.13-2.24-.32-3.25-.56-7.58-1.86-16.36-3.19-32.72-13.57,2.93-1.2,7.13-2.75,9.28-4.77-6.62,1.17-12.5,2.14-17.28,1.73,7.99,11.15,31.8,22.46,39.12,23.79,7.32,1.33,21.27,2.11,29.99-2.2,8.72-4.31,17.9-11.23,21.22-12.83,3.33-1.6,8.51-6.52,18.89-4.52-10.24-4.79-19.95-1.6-25.27,1.06Z"/>
    </g>
  </g>
</svg>