<?xml version="1.0" encoding="UTF-8"?>
<svg id="Camada_2" data-name="Camada 2" xmlns="http://www.w3.org/2000/svg" viewBox="0 0 259 86.56">
  <defs>
    <style>
      .cls-1 {
        fill: #66aadf;
      }

      .cls-1, .cls-2 {
        stroke-width: 0px;
      }

      .cls-2 {
        fill: #000402;
      }
    </style>
  </defs>
  <g id="Layer_1" data-name="Layer 1">
    <g>
      <path class="cls-1" d="m60.31,75.35v7.42h-1.35v-7.42h1.35Z"/>
      <path class="cls-1" d="m61.87,79c0-.62-.01-1.13-.04-1.59h1.19l.07.8h.03c.23-.42.81-.92,1.71-.92.94,0,1.9.61,1.9,2.3v3.18h-1.35v-3.03c0-.77-.29-1.35-1.02-1.35-.54,0-.91.38-1.06.79-.04.12-.06.29-.06.44v3.15h-1.36v-3.76Z"/>
      <path class="cls-1" d="m69.66,75.88v1.53h1.29v1.01h-1.29v2.37c0,.65.18.99.69.99.23,0,.41-.03.53-.07l.02,1.03c-.2.08-.55.13-.98.13-.5,0-.91-.17-1.17-.44-.29-.31-.42-.79-.42-1.5v-2.52h-.77v-1.01h.77v-1.21l1.32-.32Z"/>
      <path class="cls-1" d="m72.86,80.47c.03.97.79,1.39,1.65,1.39.63,0,1.08-.09,1.49-.24l.2.94c-.46.19-1.1.33-1.87.33-1.74,0-2.76-1.07-2.76-2.71,0-1.49.9-2.88,2.62-2.88s2.31,1.43,2.31,2.61c0,.25-.02.45-.04.57h-3.59Zm2.35-.95c.01-.5-.21-1.31-1.11-1.31-.84,0-1.19.76-1.24,1.31h2.35Z"/>
      <path class="cls-1" d="m77.58,79.13c0-.73-.01-1.24-.04-1.73h1.18l.04,1.02h.04c.26-.76.89-1.14,1.46-1.14.13,0,.21.01.32.03v1.28c-.11-.02-.23-.04-.4-.04-.65,0-1.09.42-1.21,1.02-.02.12-.04.26-.04.42v2.77h-1.35v-3.63Z"/>
      <path class="cls-1" d="m81.49,79c0-.62-.01-1.13-.04-1.59h1.19l.07.8h.03c.23-.42.81-.92,1.71-.92.94,0,1.9.61,1.9,2.3v3.18h-1.35v-3.03c0-.77-.29-1.35-1.02-1.35-.54,0-.91.38-1.06.79-.04.12-.06.29-.06.44v3.15h-1.36v-3.76Z"/>
      <path class="cls-1" d="m90.8,82.76l-.09-.59h-.03c-.33.42-.89.71-1.58.71-1.08,0-1.68-.78-1.68-1.59,0-1.35,1.2-2.04,3.18-2.02v-.09c0-.35-.14-.94-1.09-.94-.53,0-1.08.17-1.44.4l-.26-.88c.4-.24,1.09-.47,1.94-.47,1.72,0,2.21,1.09,2.21,2.25v1.94c0,.48.02.96.08,1.29h-1.22Zm-.18-2.62c-.96-.02-1.87.19-1.87,1,0,.53.34.77.77.77.54,0,.94-.35,1.06-.74.03-.1.04-.21.04-.3v-.74Z"/>
      <path class="cls-1" d="m94.86,75.88v1.53h1.29v1.01h-1.29v2.37c0,.65.18.99.69.99.23,0,.41-.03.53-.07l.02,1.03c-.2.08-.55.13-.98.13-.5,0-.91-.17-1.17-.44-.29-.31-.42-.79-.42-1.5v-2.52h-.77v-1.01h.77v-1.21l1.32-.32Z"/>
      <path class="cls-1" d="m98.61,75.91c0,.41-.3.73-.77.73s-.75-.32-.75-.73.31-.74.76-.74.75.32.76.74Zm-1.44,6.85v-5.36h1.36v5.36h-1.36Z"/>
      <path class="cls-1" d="m105.08,80.04c0,1.97-1.39,2.85-2.75,2.85-1.52,0-2.68-1.04-2.68-2.76s1.16-2.84,2.77-2.84,2.66,1.12,2.66,2.75Zm-4.04.06c0,1.03.51,1.82,1.33,1.82.77,0,1.31-.76,1.31-1.84,0-.84-.37-1.79-1.3-1.79s-1.34.92-1.34,1.82Z"/>
      <path class="cls-1" d="m106.19,79c0-.62-.01-1.13-.04-1.59h1.19l.07.8h.03c.23-.42.81-.92,1.71-.92s1.9.61,1.9,2.3v3.18h-1.35v-3.03c0-.77-.29-1.35-1.02-1.35-.54,0-.91.38-1.06.79-.04.12-.06.29-.06.44v3.15h-1.36v-3.76Z"/>
      <path class="cls-1" d="m115.49,82.76l-.09-.59h-.03c-.33.42-.89.71-1.58.71-1.08,0-1.68-.78-1.68-1.59,0-1.35,1.2-2.04,3.18-2.02v-.09c0-.35-.14-.94-1.09-.94-.53,0-1.08.17-1.44.4l-.26-.88c.4-.24,1.09-.47,1.94-.47,1.72,0,2.21,1.09,2.21,2.25v1.94c0,.48.02.96.08,1.29h-1.22Zm-.18-2.62c-.96-.02-1.87.19-1.87,1,0,.53.34.77.77.77.54,0,.94-.35,1.06-.74.03-.1.04-.21.04-.3v-.74Z"/>
      <path class="cls-1" d="m118.07,74.95h1.36v7.81h-1.36v-7.81Z"/>
      <path class="cls-1" d="m123.19,81.29c.44.25,1.1.47,1.79.47.87,0,1.35-.41,1.35-1.01,0-.56-.37-.89-1.32-1.23-1.22-.44-2-1.09-2-2.16,0-1.21,1.01-2.13,2.62-2.13.8,0,1.4.18,1.78.37l-.33,1.09c-.26-.14-.78-.35-1.47-.35-.86,0-1.23.46-1.23.89,0,.57.43.84,1.42,1.22,1.29.48,1.91,1.13,1.91,2.2,0,1.19-.9,2.22-2.82,2.22-.78,0-1.59-.22-2-.46l.3-1.12Z"/>
      <path class="cls-1" d="m134.04,80.04c0,1.97-1.39,2.85-2.75,2.85-1.52,0-2.68-1.04-2.68-2.76s1.16-2.84,2.77-2.84,2.66,1.12,2.66,2.75Zm-4.04.06c0,1.03.51,1.82,1.33,1.82.77,0,1.31-.76,1.31-1.84,0-.84-.37-1.79-1.3-1.79s-1.34.92-1.34,1.82Z"/>
      <path class="cls-1" d="m139.09,82.6c-.29.13-.85.28-1.52.28-1.67,0-2.76-1.07-2.76-2.73s1.1-2.86,2.98-2.86c.5,0,1,.11,1.31.25l-.24,1.01c-.22-.1-.54-.21-1.02-.21-1.03,0-1.65.76-1.64,1.74,0,1.1.71,1.73,1.64,1.73.47,0,.8-.1,1.07-.21l.19,1Z"/>
      <path class="cls-1" d="m141.53,75.91c0,.41-.3.73-.77.73s-.75-.32-.75-.73.31-.74.76-.74.75.32.76.74Zm-1.44,6.85v-5.36h1.36v5.36h-1.36Z"/>
      <path class="cls-1" d="m143.86,80.47c.03.97.79,1.39,1.65,1.39.63,0,1.08-.09,1.49-.24l.2.94c-.46.19-1.1.33-1.87.33-1.74,0-2.76-1.07-2.76-2.71,0-1.49.9-2.88,2.62-2.88s2.31,1.43,2.31,2.61c0,.25-.02.45-.04.57h-3.59Zm2.35-.95c.01-.5-.21-1.31-1.11-1.31-.84,0-1.19.76-1.24,1.31h2.35Z"/>
      <path class="cls-1" d="m150.13,75.88v1.53h1.29v1.01h-1.29v2.37c0,.65.18.99.69.99.23,0,.41-.03.53-.07l.02,1.03c-.2.08-.55.13-.98.13-.5,0-.91-.17-1.17-.44-.29-.31-.42-.79-.42-1.5v-2.52h-.77v-1.01h.77v-1.21l1.32-.32Z"/>
      <path class="cls-1" d="m153.37,77.41l.97,2.87c.11.33.22.74.3,1.04h.03c.09-.31.19-.7.29-1.06l.84-2.86h1.45l-1.34,3.65c-.74,2-1.23,2.89-1.87,3.44-.53.47-1.08.65-1.42.69l-.31-1.14c.23-.05.52-.18.79-.37.25-.17.55-.48.74-.85.05-.1.09-.18.09-.24,0-.05-.01-.13-.08-.26l-1.96-4.92h1.49Z"/>
      <path class="cls-1" d="m165.39,80.04c0,1.97-1.39,2.85-2.75,2.85-1.52,0-2.68-1.04-2.68-2.76s1.16-2.84,2.77-2.84,2.66,1.12,2.66,2.75Zm-4.04.06c0,1.03.51,1.82,1.33,1.82.77,0,1.31-.76,1.31-1.84,0-.84-.37-1.79-1.3-1.79s-1.34.92-1.34,1.82Z"/>
      <path class="cls-1" d="m166.65,82.76v-4.35h-.73v-1.01h.73v-.23c0-.69.19-1.39.65-1.83.4-.37.94-.52,1.4-.52.36,0,.65.06.87.13l-.1,1.05c-.14-.06-.33-.1-.57-.1-.67,0-.9.56-.9,1.22v.28h1.18v1.01h-1.17v4.35h-1.35Z"/>
      <path class="cls-1" d="m172.34,75.45c.51-.09,1.26-.15,2.05-.15,1.07,0,1.79.18,2.29.59.41.34.64.86.64,1.49,0,.96-.65,1.61-1.34,1.86v.03c.53.2.85.71,1.03,1.43.23.92.43,1.78.58,2.07h-1.4c-.11-.22-.29-.83-.5-1.75-.21-.97-.56-1.28-1.33-1.3h-.68v3.05h-1.34v-7.32Zm1.34,3.28h.8c.91,0,1.49-.48,1.49-1.22,0-.81-.57-1.19-1.45-1.19-.43,0-.7.03-.84.07v2.34Z"/>
      <path class="cls-1" d="m179.53,80.47c.03.97.79,1.39,1.65,1.39.63,0,1.08-.09,1.49-.24l.2.94c-.46.19-1.1.33-1.87.33-1.74,0-2.76-1.07-2.76-2.71,0-1.49.9-2.88,2.62-2.88s2.31,1.43,2.31,2.61c0,.25-.02.45-.04.57h-3.59Zm2.35-.95c.01-.5-.21-1.31-1.11-1.31-.84,0-1.19.76-1.24,1.31h2.35Z"/>
      <path class="cls-1" d="m184.41,82.76v-4.35h-.73v-1.01h.73v-.23c0-.69.19-1.39.65-1.83.4-.37.94-.52,1.4-.52.36,0,.65.06.87.13l-.1,1.05c-.14-.06-.33-.1-.57-.1-.67,0-.9.56-.9,1.22v.28h1.18v1.01h-1.17v4.35h-1.35Z"/>
      <path class="cls-1" d="m187.76,79.13c0-.73-.01-1.24-.04-1.73h1.18l.04,1.02h.04c.26-.76.89-1.14,1.46-1.14.13,0,.21.01.32.03v1.28c-.11-.02-.23-.04-.4-.04-.65,0-1.09.42-1.21,1.02-.02.12-.04.26-.04.42v2.77h-1.35v-3.63Z"/>
      <path class="cls-1" d="m194.59,82.76l-.09-.59h-.03c-.33.42-.89.71-1.58.71-1.08,0-1.68-.78-1.68-1.59,0-1.35,1.2-2.04,3.18-2.02v-.09c0-.35-.14-.94-1.09-.94-.53,0-1.08.17-1.44.4l-.26-.88c.4-.24,1.09-.47,1.94-.47,1.72,0,2.21,1.09,2.21,2.25v1.94c0,.48.02.96.08,1.29h-1.22Zm-.18-2.62c-.96-.02-1.87.19-1.87,1,0,.53.34.77.77.77.54,0,.93-.35,1.06-.74.03-.1.04-.21.04-.3v-.74Z"/>
      <path class="cls-1" d="m201.1,82.6c-.29.13-.85.28-1.52.28-1.67,0-2.76-1.07-2.76-2.73s1.1-2.86,2.98-2.86c.5,0,1,.11,1.31.25l-.24,1.01c-.22-.1-.54-.21-1.02-.21-1.03,0-1.65.76-1.64,1.74,0,1.1.71,1.73,1.64,1.73.47,0,.8-.1,1.07-.21l.19,1Z"/>
      <path class="cls-1" d="m203.82,75.88v1.53h1.29v1.01h-1.29v2.37c0,.65.18.99.69.99.23,0,.41-.03.53-.07l.02,1.03c-.2.08-.55.13-.98.13-.5,0-.91-.17-1.17-.44-.29-.31-.42-.79-.42-1.5v-2.52h-.77v-1.01h.77v-1.21l1.32-.32Z"/>
      <path class="cls-1" d="m207.57,75.91c0,.41-.3.73-.77.73s-.75-.32-.75-.73.31-.74.76-.74.75.32.76.74Zm-1.44,6.85v-5.36h1.36v5.36h-1.36Z"/>
      <path class="cls-1" d="m209.8,77.41l.87,2.72c.15.47.26.9.36,1.34h.03c.1-.44.22-.86.36-1.34l.85-2.72h1.43l-2.05,5.36h-1.33l-1.99-5.36h1.46Z"/>
      <path class="cls-1" d="m215.35,80.47c.03.97.79,1.39,1.65,1.39.63,0,1.08-.09,1.49-.24l.2.94c-.46.19-1.1.33-1.87.33-1.74,0-2.76-1.07-2.76-2.71,0-1.49.9-2.88,2.62-2.88s2.31,1.43,2.31,2.61c0,.25-.02.45-.04.57h-3.59Zm2.35-.95c.01-.5-.21-1.31-1.11-1.31-.84,0-1.19.76-1.24,1.31h2.35Z"/>
      <path class="cls-1" d="m222.37,81.29c.44.25,1.1.47,1.79.47.87,0,1.35-.41,1.35-1.01,0-.56-.37-.89-1.32-1.23-1.22-.44-2-1.09-2-2.16,0-1.21,1.01-2.13,2.62-2.13.8,0,1.4.18,1.78.37l-.33,1.09c-.26-.14-.78-.35-1.47-.35-.86,0-1.23.46-1.23.89,0,.57.43.84,1.42,1.22,1.29.48,1.91,1.13,1.91,2.2,0,1.19-.9,2.22-2.82,2.22-.78,0-1.59-.22-2-.46l.3-1.12Z"/>
      <path class="cls-1" d="m232.85,81.16c0,.64.02,1.17.04,1.61h-1.19l-.07-.81h-.02c-.23.38-.76.93-1.72.93s-1.87-.58-1.87-2.33v-3.15h1.35v2.92c0,.89.29,1.46,1,1.46.54,0,.89-.39,1.03-.73.04-.12.08-.26.08-.42v-3.23h1.35v3.75Z"/>
      <path class="cls-1" d="m234.31,79.13c0-.73-.01-1.24-.04-1.73h1.18l.04,1.02h.04c.26-.76.89-1.14,1.46-1.14.13,0,.21.01.32.03v1.28c-.11-.02-.23-.04-.4-.04-.65,0-1.09.42-1.21,1.02-.02.12-.04.26-.04.42v2.77h-1.35v-3.63Z"/>
      <path class="cls-1" d="m243.04,77.41c-.02.36-.04.8-.04,1.54v3.04c0,1.12-.23,1.93-.79,2.43-.56.5-1.33.65-2.07.65-.68,0-1.41-.14-1.87-.43l.3-1.02c.34.2.91.41,1.56.41.88,0,1.54-.46,1.54-1.62v-.46h-.02c-.31.47-.86.79-1.56.79-1.33,0-2.28-1.1-2.28-2.62,0-1.76,1.14-2.83,2.43-2.83.81,0,1.3.4,1.55.84h.02l.05-.71h1.18Zm-1.4,2.15c0-.12-.01-.25-.04-.36-.14-.5-.53-.87-1.1-.87-.76,0-1.32.66-1.32,1.75,0,.91.46,1.65,1.31,1.65.51,0,.95-.33,1.1-.81.03-.14.05-.33.05-.48v-.87Z"/>
      <path class="cls-1" d="m245.4,80.47c.03.97.79,1.39,1.65,1.39.63,0,1.08-.09,1.49-.24l.2.94c-.46.19-1.1.33-1.87.33-1.74,0-2.76-1.07-2.76-2.71,0-1.49.9-2.88,2.62-2.88s2.31,1.43,2.31,2.61c0,.25-.02.45-.04.57h-3.59Zm2.35-.95c.01-.5-.21-1.31-1.11-1.31-.84,0-1.19.76-1.24,1.31h2.35Z"/>
      <path class="cls-1" d="m250.12,79.13c0-.73-.01-1.24-.04-1.73h1.18l.04,1.02h.04c.26-.76.89-1.14,1.46-1.14.13,0,.21.01.32.03v1.28c-.11-.02-.23-.04-.4-.04-.65,0-1.09.42-1.21,1.02-.02.12-.04.26-.04.42v2.77h-1.35v-3.63Z"/>
      <path class="cls-1" d="m255.12,77.41l.97,2.87c.11.33.22.74.3,1.04h.03c.09-.31.19-.7.29-1.06l.84-2.86h1.45l-1.34,3.65c-.74,2-1.23,2.89-1.87,3.44-.53.47-1.08.65-1.42.69l-.31-1.14c.23-.05.52-.18.79-.37.25-.17.55-.48.74-.85.05-.1.09-.18.09-.24,0-.05-.01-.13-.08-.26l-1.96-4.92h1.49Z"/>
    </g>
    <g>
      <path class="cls-1" d="m43.3,29.05s3.83-1.39,11.21-1.5v12.81h-12.87s.72-10.14,1.66-11.31Z"/>
      <path class="cls-1" d="m30.41,40.32h9.07s.38-8.82,1.54-10.73c0,0-6.9,2.18-10.23,6.99,0,0-.46,2.52-.38,3.74Z"/>
      <path class="cls-1" d="m32.29,31.9s3.07-9.86,13.89-13.85c0,0-3.87,6.24-4.62,9.42,0,0-2.89.26-9.27,4.43Z"/>
      <path class="cls-1" d="m44.14,26.6s5.85-1.08,10.37-1.35v-9.05s-2.55.02-4.1.52c0,0-3.38,2.53-6.27,9.88Z"/>
      <path class="cls-1" d="m43.3,54.03s3.83,1.39,11.21,1.5v-12.74h-12.87s.72,10.08,1.66,11.25Z"/>
      <path class="cls-1" d="m30.41,42.76h9.07s.38,8.81,1.54,10.73c0,0-6.9-2.17-10.23-6.99,0,0-.46-2.52-.38-3.74Z"/>
      <path class="cls-1" d="m32.29,51.18s3.07,9.86,13.89,13.85c0,0-3.87-6.24-4.62-9.42,0,0-2.89-.26-9.27-4.43Z"/>
      <path class="cls-1" d="m44.14,56.48s5.85,1.08,10.37,1.34v9.05s-2.55-.02-4.1-.52c0,0-3.38-2.53-6.27-9.88Z"/>
    </g>
    <path class="cls-2" d="m54.31,67.25s-10.82.79-20.14-6.66c-4.96-3.96-8.45-8.81-9.15-17.52-.48-6.04,2.31-14.11,8.45-19.58,5.32-4.74,14.95-7.93,20.84-7.26L46.84.26l.06,16.24L33.89,0l5.44,17.96L22.88,5.24l10.4,15.98L14.18,13.1l15.14,13.16-22.07-4.43,17.18,10.62-21.8-1.14,21.34,7.13L0,41.68l23.39,3.25-19.86,6.96,21.72-1.08-18.35,10.94,21.79-4.82-14.87,13.8,19.92-8.9-10.51,15.76,16.8-11.56-6.5,17.18,13.6-14.13-1.7,17.5,8.88-19.31Z"/>
    <path class="cls-2" d="m58.68,66.49V16.47h9.3v50.02h-9.3Z"/>
    <path class="cls-2" d="m93.86,40.39v16.65c0,4.2-.22,9.9-11.17,9.9s-11.18-5.7-11.18-9.9v-11.21l9.3,1.31v12.07c0,1.05.82,1.88,1.87,1.88s1.87-.82,1.87-1.88v-12.57s-.04-.83-.76-1.52-2.32-.97-2.32-.97l-6.56-.95s-2.17-.29-3-1.4c-.48-.65-.4-2.15-.4-2.15v-13.81c0-4.2.23-9.9,11.18-9.9s11.17,5.7,11.17,9.9v9.34l-9.3-1.51v-10.01c0-1.05-.83-1.87-1.87-1.87s-1.87.82-1.87,1.87v10.48s.04.89.38,1.2c.34.32.43.49,1.24.62,4.18.7,9.62,1.33,10.62,2.22.95.85.81,2.2.81,2.2Z"/>
    <path class="cls-2" d="m110.28,66.49v-20.32c0-1.05-.83-1.87-1.87-1.87h-1.87v22.2h-9.3V16.47h11.18c10.95,0,11.17,5.7,11.17,9.9v9.22c0,2.18-1.43,4.65-4.2,5.62,2.77.98,4.2,3.52,4.2,5.62v19.65h-9.3Zm0-42.3c0-1.05-.83-1.87-1.87-1.87h-1.87v15.9h1.87c1.05,0,1.87-.9,1.87-1.95v-12.08Z"/>
    <path class="cls-2" d="m145.08,57.04c0,4.2-.23,9.9-11.18,9.9s-11.17-5.7-11.17-9.9v-11.2l9.3,1.45v12.07c0,.91.83,1.73,1.87,1.73s1.87-.82,1.87-1.88v-11.31s.27-1.72-.55-2.72c-.82-1-2.72-1.11-2.72-1.11l-5.68-.68s-2.57-.28-3.58-1.43c-.82-.94-.52-3.18-.52-3.18v-12.94c0-4.2.22-9.9,11.17-9.9s11.18,5.7,11.18,9.9v9.35l-9.3-1.52v-10.01c0-1.05-.82-1.87-1.87-1.87s-1.87.82-1.87,1.87v9.54s-.08,1.52.2,2.04c.36.68,1.36.82,1.36.82l7.94,1.29s2.14.25,2.86.96c.71.71.7,2.4.7,2.4v16.33Z"/>
    <path class="cls-2" d="m156.05,20.2c0,2.04-1.64,3.65-3.72,3.65s-3.74-1.62-3.74-3.65,1.66-3.63,3.76-3.63,3.7,1.59,3.7,3.63Zm-6.53,0c0,1.62,1.22,2.9,2.83,2.9,1.57.02,2.77-1.28,2.77-2.88s-1.2-2.92-2.81-2.92-2.79,1.31-2.79,2.9Zm2.24,1.88h-.84v-3.63c.33-.04.8-.11,1.4-.11.69,0,1,.11,1.24.29.22.16.38.42.38.78,0,.44-.33.73-.75.86v.04c.35.11.53.4.64.89.11.55.2.75.27.89h-.89c-.11-.13-.18-.44-.29-.89-.07-.38-.29-.55-.75-.55h-.4v1.44Zm.02-2.04h.4c.46,0,.84-.15.84-.53,0-.33-.24-.55-.78-.55-.22,0-.38.02-.47.04v1.04Z"/>
  </g>
</svg>