<?xml version="1.0" encoding="UTF-8"?>
<svg width="295px" height="69px" viewBox="0 0 295 69" version="1.1" xmlns="http://www.w3.org/2000/svg" xmlns:xlink="http://www.w3.org/1999/xlink">
    <!-- Generator: Sketch 57.1 (83088) - https://sketch.com -->
    <title>KV_HorizontalLogo-vector</title>
    <desc>Created with Sketch.</desc>
    <defs>
        <polygon id="path-1" points="0 69 294.667 69 294.667 0.333 0 0.333"></polygon>
    </defs>
    <g id="KV_HorizontalLogo-vector" stroke="none" stroke-width="1" fill="none" fill-rule="evenodd">
        <g id="Group-53" transform="translate(0.000000, 6.000000)">
            <path d="M112.3584,39.9824 C114.3954,39.9824 116.1354,39.1474 117.5854,37.4724 C119.0324,35.8084 119.7524,33.7914 119.7524,31.4314 L119.7524,22.6544 L117.6204,22.6544 L117.6204,31.4314 C117.6204,33.2004 117.1084,34.7154 116.0864,35.9724 C115.0494,37.2354 113.8054,37.8644 112.3584,37.8644 C110.9074,37.8644 109.6704,37.2354 108.6374,35.9724 C107.6044,34.7154 107.0894,33.2004 107.0894,31.4314 L107.0894,22.6544 L104.9674,22.6544 L104.9674,31.4314 C104.9674,33.7914 105.6864,35.8084 107.1374,37.4724 C108.5794,39.1474 110.3174,39.9824 112.3584,39.9824" id="Fill-2" fill="#1A1919"></path>
            <path d="M132.7432,39.9824 C135.0152,39.9824 137.0322,39.3084 138.7862,37.9614 C140.5402,36.6174 141.6262,34.9094 142.0442,32.8374 L142.3082,31.5654 L133.8662,31.5654 L133.8662,33.6814 L139.5582,33.6814 C139.0032,34.9384 138.1082,35.9524 136.8782,36.7104 C135.6302,37.4784 134.2552,37.8644 132.7432,37.8644 C130.7222,37.8644 128.9892,37.2144 127.5492,35.9094 C126.1162,34.6124 125.3942,33.0414 125.3942,31.2074 C125.3942,29.3724 126.1162,27.8044 127.5492,26.4994 C128.9892,25.2004 130.7222,24.5484 132.7432,24.5484 C133.9602,24.5484 135.1042,24.8064 136.1742,25.3244 C137.2492,25.8384 138.1322,26.5564 138.8212,27.4654 L139.4522,28.3244 L141.1552,27.0504 L140.5252,26.1914 C139.6362,25.0144 138.5032,24.0964 137.1302,23.4284 C135.7602,22.7614 134.2942,22.4284 132.7432,22.4284 C130.1332,22.4284 127.9052,23.2834 126.0492,24.9994 C124.1982,26.7164 123.2742,28.7834 123.2742,31.2074 C123.2742,33.6284 124.1982,35.6994 126.0492,37.4114 C127.9052,39.1314 130.1332,39.9824 132.7432,39.9824" id="Fill-4" fill="#1A1919"></path>
            <polygon id="Fill-6" fill="#1A1919" points="145.8613 22.6689 145.8613 39.7449 159.0083 39.7449 159.0083 37.6289 147.9793 37.6289 147.9793 22.6689"></polygon>
            <polygon id="Fill-8" fill="#1A1919" points="162.6152 22.6689 162.6152 39.7449 175.7682 39.7449 175.7682 37.6289 164.7352 37.6289 164.7352 32.2699 175.7682 32.2699 175.7682 30.1439 164.7352 30.1439 164.7352 24.7879 175.7682 24.7879 175.7682 22.6689"></polygon>
            <path d="M189.1416,22.6689 L179.3746,22.6689 L179.3746,39.7439 L181.4956,39.7439 L181.4956,32.2709 L187.8056,32.2709 L191.5476,39.7439 L193.9406,39.7439 L190.1276,32.1599 C191.2276,31.9319 192.1316,31.3769 192.8426,30.5029 C193.5776,29.6189 193.9406,28.6089 193.9406,27.4669 C193.9406,26.1409 193.4696,25.0079 192.5266,24.0749 C191.5866,23.1359 190.4556,22.6689 189.1416,22.6689 L189.1416,22.6689 Z M181.4956,24.7879 L189.1416,24.7879 C189.8776,24.7879 190.5046,25.0469 191.0226,25.5739 C191.5476,26.0979 191.8096,26.7289 191.8096,27.4669 C191.8096,28.2059 191.5476,28.8359 191.0226,29.3619 C190.5046,29.8829 189.8776,30.1439 189.1416,30.1439 L181.4956,30.1439 L181.4956,24.7879 Z" id="Fill-10" fill="#1A1919"></path>
            <polygon id="Fill-12" fill="#0055B7" points="213.3604 19.1807 206.0304 36.0887 199.4714 19.1807 196.6714 19.1807 204.7684 39.9657 207.1514 40.0087 216.3074 19.1807"></polygon>
            <mask id="mask-2" fill="white">
                <use xlink:href="#path-1"></use>
            </mask>
            <g id="Clip-15"></g>
            <polygon id="Fill-14" fill="#0055B7" mask="url(#mask-2)" points="217.897 39.772 220.014 39.772 220.014 22.679 217.897 22.679"></polygon>
            <path d="M228.2041,39.9541 C226.9501,39.8331 225.7801,39.4781 224.6881,38.8921 L223.7491,38.3931 L224.7491,36.5221 L225.6901,37.0261 C226.5341,37.4661 227.4381,37.7351 228.4091,37.8331 C230.2881,38.0171 231.8191,37.7261 232.9931,36.9611 C233.5791,36.5251 233.8991,36.0161 233.9581,35.4341 C234.0051,34.9591 233.7841,34.4471 233.2921,33.9041 C232.5691,33.2211 231.2311,32.6661 229.2801,32.2331 L229.2571,32.2331 C226.9091,31.6851 225.2631,30.9461 224.3111,30.0201 L224.2631,29.9691 C223.6841,29.3311 223.3081,28.7351 223.1301,28.1591 C223.0091,27.7701 222.9751,27.3161 223.0221,26.7941 C223.1421,25.5691 223.7631,24.5481 224.8821,23.7281 L224.9171,23.6921 C226.5131,22.6451 228.5071,22.2361 230.8971,22.4661 C232.0811,22.5861 233.1961,22.9041 234.2311,23.4331 L235.1841,23.9091 L234.2311,25.8031 L233.2801,25.3251 C232.4641,24.9221 231.6061,24.6741 230.6961,24.5841 C228.8131,24.4021 227.2841,24.6961 226.1081,25.4531 C225.5221,25.8881 225.2001,26.4021 225.1431,26.9801 C225.0971,27.4631 225.3231,27.9731 225.8211,28.5161 C226.4971,29.1611 227.7941,29.7061 229.7161,30.1591 C232.1001,30.6781 233.7901,31.4221 234.7961,32.4001 L234.8411,32.4481 C235.4211,33.0851 235.8001,33.6841 235.9741,34.2591 C236.0911,34.6461 236.1281,35.1021 236.0771,35.6281 C235.9581,36.8601 235.3411,37.8881 234.2311,38.7001 L234.1831,38.7251 C232.8801,39.5831 231.3061,40.0091 229.4541,40.0091 C229.0561,40.0091 228.6321,39.9901 228.2041,39.9541" id="Fill-16" fill="#0055B7" mask="url(#mask-2)"></path>
            <polygon id="Fill-17" fill="#0055B7" mask="url(#mask-2)" points="239.157 39.772 241.28 39.772 241.28 22.679 239.157 22.679"></polygon>
            <path d="M247.042,37.4395 C245.19,35.7315 244.265,33.6665 244.265,31.2455 C244.265,28.8335 245.19,26.7695 247.042,25.0655 C248.88,23.3505 251.106,22.4895 253.712,22.4895 C256.319,22.4895 258.544,23.3505 260.394,25.0655 C262.237,26.7695 263.155,28.8335 263.155,31.2455 C263.155,33.6665 262.237,35.7315 260.394,37.4395 C258.544,39.1575 256.319,40.0085 253.712,40.0085 C251.106,40.0085 248.88,39.1575 247.042,37.4395 M248.544,26.5655 C247.104,27.8595 246.382,29.4195 246.382,31.2455 C246.382,33.0825 247.104,34.6435 248.544,35.9385 C249.97,37.2425 251.694,37.8925 253.712,37.8925 C255.728,37.8925 257.454,37.2425 258.896,35.9385 C260.321,34.6435 261.034,33.0825 261.034,31.2455 C261.034,29.4195 260.321,27.8595 258.896,26.5655 C257.454,25.2625 255.728,24.6095 253.712,24.6095 C251.694,24.6095 249.97,25.2625 248.544,26.5655" id="Fill-18" fill="#0055B7" mask="url(#mask-2)"></path>
            <polygon id="Fill-19" fill="#0055B7" mask="url(#mask-2)" points="277.0518 22.6943 277.0518 35.4833 267.6278 22.6943 266.0338 22.6943 266.0338 39.7723 268.1538 39.7723 268.1538 26.9803 277.5618 39.7723 279.1868 39.7723 279.1868 22.6943"></polygon>
            <path d="M37.0352,29.561 C37.0352,29.561 37.1502,29.697 37.3672,29.944 C39.0882,31.849 47.2172,40.207 58.5512,41.334 L58.5512,50.214 C36.9692,48.604 26.6852,31.211 25.8922,29.802 C25.8582,29.742 25.8342,29.708 25.8342,29.708 C25.8342,29.708 35.7792,10.373 58.5512,8.88 L58.5512,17.767 C45.6402,18.934 37.0352,29.561 37.0352,29.561" id="Fill-20" fill="#1A1919" mask="url(#mask-2)"></path>
            <path d="M66.998,29.5435 C66.998,34.2085 63.215,37.9965 58.549,37.9965 C53.926,37.9965 50.182,34.2905 50.105,29.6965 C50.1,29.6485 50.1,29.5915 50.1,29.5435 C50.1,24.8795 53.877,21.1005 58.549,21.1005 C62.598,21.1005 65.978,23.9415 66.805,27.7395 C66.936,28.3245 66.998,28.9265 66.998,29.5435" id="Fill-21" fill="#0055B7" mask="url(#mask-2)"></path>
            <polygon id="Fill-22" fill="#1A1919" mask="url(#mask-2)" points="15.387 50.213 23.916 50.213 23.916 8.88 15.387 8.88"></polygon>
            <polygon id="Fill-1" fill="#1A1919" mask="url(#mask-2)" points="99.2705 19.2441 85.0925 31.3361 85.0925 19.2441 82.5255 19.2441 82.5255 39.9461 85.0925 39.9461 85.0925 34.7161 89.1225 31.2831 99.2705 39.9461 103.2725 39.9461 91.1045 29.5941 103.2725 19.2441"></polygon>
        </g>
    </g>
</svg>