<?xml version="1.0" encoding="utf-8"?>
<!-- Generator: Adobe Illustrator 26.0.3, SVG Export Plug-In . SVG Version: 6.00 Build 0)  -->
<svg version="1.1" id="Layer_1" xmlns="http://www.w3.org/2000/svg" xmlns:xlink="http://www.w3.org/1999/xlink" x="0px" y="0px"
	 viewBox="0 0 850.9 139.9" style="enable-background:new 0 0 850.9 139.9;" xml:space="preserve">
<style type="text/css">
	.st0{fill:#3B9DD9;}
	.st1{fill:#041731;}
	.st2{fill:#231F20;}
</style>
<g>
	<path class="st0" d="M173.2,63.2c0-14.4-10.9-25-26.4-26.9c-0.5,0-1.1,0-1.6,0c-21.6,0-39.2,15.3-39.2,34.1s17.5,34.1,39.2,34.1
		c21.6,0,39.2-15.3,39.2-34.1c0-4.8-1.2-9.4-3.2-13.6c0.2,1.4,0.3,2.8,0.3,4.2c0,15.1-10.8,28-25.6,32.2c-3.2,1.3-6.7,2-10.3,2
		c-14.5,0-26.2-10.9-26.2-24.3s11.7-24.3,26.2-24.3c8.5,0,16,3.8,20.8,9.6C166.4,56.1,171.9,59.9,173.2,63.2"/>
	<path class="st1" d="M233.1,60.2c-24.5-7.8-43.5-25.5-68.1-33.1c-23-7.5-48.7-6.5-71.2,2.1c-20.3,7.4-37.4,21.1-50.4,37.2
		c-1.9,2.3-3.8,5.2-7.3,5.6c-3.9,1.1-9.1-0.9-11.7,3c0.3,0.5,0.8,1.5,1.1,1.9c5,1.5,10.5,1.5,15.5,0c7.1-9,14.9-17.8,24.1-25
		c15.7-12.7,35.6-20.2,56.1-23c7.6-0.4,15.2-0.4,22.8,0c6.7,1.4,13.5,2.2,20,4.4c25.9,7.7,46.1,26.6,72.5,33.4
		c4.8,1.4,9.3-1,13.3-3.2C244.2,62.9,238.5,61.9,233.1,60.2"/>
	<path class="st1" d="M92.4,51.4c6.6-9.2,17.8-14.6,29-17.5c-8.2,3.6-15.8,8.4-21.5,15.1c-7.3,8.2-10.9,19.4-8.4,29.9
		c2,10.8,9.2,20.7,19.4,26.3c13.2,7.4,29.2,8.5,44.2,6.9c17-2.5,33-9.1,48.1-16.6C221.9,86,239.6,75,256.5,63
		c1.2-1.2,2.9-1.1,4.5-1.1c0.3,0.6,0.9,1.7,1.2,2.2c-3.2,3-6.9,5.4-10.5,8c-15.3,10.9-30.8,21.5-47.6,30.4
		c-15.8,8.3-32.7,15.6-50.8,18c-16.7,1.8-34.6-0.4-48.7-9.4c-9.7-5.9-16.9-15.2-19.4-25.7C82.6,73.8,84.9,61.1,92.4,51.4"/>
	<path class="st1" d="M141,87c8.6,2.3,18.5-0.6,24.7-6.7c-0.6,0-1.2-0.1-1.8-0.1c-0.1,0-0.2,0-0.2,0c-6.8,0-12.2-4-12.2-10.3
		s3.9-10.6,10.7-10.6c4.6,0,8.3,1.4,11.2,4c-3.4-8.4-10.8-13.2-20.9-13.2c-12.7,0-23.1,9.6-23.5,21.7C128.9,79.7,133.7,85.1,141,87"
		/>
	<path class="st1" d="M787.2,66.1h5.5V43.7L810,66.1h4.6V34.7h-5.5v21.8l-16.8-21.8h-5.1V66.1z M771.2,65.4c2-0.9,3.7-2,5.2-3.5
		c1.5-1.5,2.6-3.2,3.4-5.2c0.8-2,1.2-4.1,1.2-6.3v-0.1c0-2.2-0.4-4.3-1.2-6.3c-0.8-2-1.9-3.7-3.4-5.1c-1.4-1.5-3.2-2.6-5.2-3.5
		c-2-0.9-4.2-1.3-6.7-1.3c-2.4,0-4.6,0.4-6.7,1.3c-2,0.9-3.7,2-5.2,3.5c-1.5,1.5-2.6,3.2-3.4,5.2c-0.8,2-1.2,4.1-1.2,6.3v0.1
		c0,2.2,0.4,4.3,1.2,6.3c0.8,2,1.9,3.7,3.4,5.1c1.4,1.5,3.2,2.6,5.2,3.5c2,0.9,4.2,1.3,6.7,1.3C767,66.7,769.2,66.2,771.2,65.4
		 M760.3,60.7c-1.3-0.6-2.4-1.4-3.4-2.4c-0.9-1-1.7-2.2-2.2-3.6c-0.5-1.4-0.8-2.8-0.8-4.3v-0.1c0-1.5,0.3-3,0.8-4.3
		c0.5-1.3,1.2-2.5,2.2-3.5c0.9-1,2-1.8,3.3-2.4c1.3-0.6,2.7-0.9,4.3-0.9c1.6,0,3,0.3,4.3,0.9c1.3,0.6,2.4,1.4,3.4,2.4
		c0.9,1,1.7,2.2,2.2,3.6c0.5,1.4,0.8,2.8,0.8,4.3v0.1c0,1.5-0.3,3-0.8,4.3c-0.5,1.3-1.2,2.5-2.2,3.5c-0.9,1-2,1.8-3.3,2.4
		c-1.3,0.6-2.7,0.9-4.3,0.9S761.7,61.3,760.3,60.7 M736.3,66.1h5.5V34.7h-5.5V66.1z M723.4,65.9c1.4-0.4,2.6-1,3.5-1.8
		c1-0.8,1.7-1.8,2.3-3c0.6-1.2,0.8-2.5,0.8-4v-0.1c0-1.3-0.2-2.4-0.7-3.4c-0.4-1-1.1-1.8-1.9-2.6c-0.8-0.7-1.9-1.4-3.2-1.9
		c-1.3-0.5-2.7-1-4.4-1.4c-1.5-0.4-2.7-0.7-3.7-1c-1-0.3-1.7-0.7-2.3-1.1c-0.6-0.4-0.9-0.8-1.1-1.3c-0.2-0.5-0.3-1-0.3-1.6v-0.1
		c0-1,0.4-1.9,1.3-2.7c0.9-0.7,2.2-1.1,3.8-1.1c1.4,0,2.9,0.3,4.3,0.8c1.4,0.6,2.8,1.4,4.3,2.4l3-4.2c-1.6-1.3-3.3-2.3-5.2-2.9
		c-1.8-0.7-3.9-1-6.2-1c-1.6,0-3,0.2-4.3,0.7c-1.3,0.4-2.4,1.1-3.4,1.9c-0.9,0.8-1.7,1.8-2.2,2.9c-0.5,1.1-0.8,2.4-0.8,3.7v0.1
		c0,1.4,0.2,2.7,0.7,3.7c0.5,1,1.1,1.9,2,2.6c0.9,0.7,2,1.3,3.3,1.8c1.3,0.5,2.8,0.9,4.5,1.3c1.5,0.3,2.7,0.7,3.6,1
		c0.9,0.3,1.6,0.7,2.2,1.1s0.9,0.8,1.1,1.2c0.2,0.4,0.3,0.9,0.3,1.5v0.1c0,1.2-0.5,2.2-1.5,2.9c-1,0.7-2.4,1.1-4.1,1.1
		c-2,0-3.7-0.4-5.3-1.1c-1.6-0.7-3.1-1.7-4.6-3l-3.3,4c1.9,1.7,3.9,3,6.2,3.8c2.2,0.8,4.5,1.2,7,1.2C720.5,66.6,722,66.4,723.4,65.9
		 M694.5,66.1h5.5V34.7h-5.5V66.1z M671.9,66.4h4.9l13.1-31.7h-6l-9.4,24.2l-9.5-24.2h-6.1L671.9,66.4z M646.5,65.7
		c1.7-0.6,3.1-1.5,4.2-2.7c1.2-1.2,2.1-2.7,2.7-4.4c0.6-1.8,1-3.8,1-6.2V34.7H649v18.1c0,2.9-0.7,5.1-2.1,6.6
		c-1.4,1.5-3.4,2.2-5.8,2.2c-2.5,0-4.5-0.8-5.9-2.3c-1.4-1.5-2.1-3.8-2.1-6.7V34.7h-5.5v18.1c0,2.3,0.3,4.3,0.9,6
		c0.6,1.7,1.5,3.2,2.7,4.3c1.2,1.2,2.6,2,4.2,2.6c1.6,0.6,3.5,0.9,5.5,0.9C643,66.6,644.9,66.3,646.5,65.7 M592.6,66.1h5.5V43.7
		l17.3,22.4h4.6V34.7h-5.5v21.8l-16.8-21.8h-5.1V66.1z"/>
	<g>
		<path class="st1" d="M286.8,34.6h12.4c7.4,0,12,4.2,12,10.6v0.1c0,7.1-5.7,10.8-12.6,10.8h-6.3v10.1h-5.5V34.6z M298.8,51
			c4.2,0,6.8-2.3,6.8-5.6v-0.1c0-3.7-2.7-5.6-6.8-5.6h-6.4V51H298.8z"/>
		<path class="st1" d="M325,34.4h5.1L344,66.2h-5.9l-3.2-7.6H320l-3.2,7.6h-5.7L325,34.4z M332.9,53.6L327.5,41l-5.4,12.6H332.9z"/>
		<path class="st1" d="M349.4,34.6h14.1c4,0,7.1,1.2,9.1,3.2c1.7,1.7,2.6,4.1,2.6,6.8v0.1c0,5.2-3.1,8.3-7.5,9.6l8.5,11.9h-6.6
			l-7.8-11H355v11h-5.5V34.6z M363.1,50.3c4,0,6.5-2.1,6.5-5.3v-0.1c0-3.4-2.4-5.2-6.5-5.2H355v10.6H363.1z"/>
		<path class="st1" d="M382,34.6h5.5v15.9l15-15.9h6.9l-13.2,13.6l13.8,18h-6.8L392.5,52l-4.9,5v9.2H382V34.6z"/>
		<path class="st1" d="M414.8,34.6h5.5v13.1h15.1V34.6h5.5v31.6h-5.5V52.9h-15.1v13.3h-5.5V34.6z"/>
		<path class="st1" d="M448.5,52.8V34.6h5.5v17.9c0,5.9,3,9,8,9c4.9,0,7.9-2.9,7.9-8.7V34.6h5.5v17.9c0,9.4-5.3,14.2-13.6,14.2
			C453.8,66.7,448.5,61.9,448.5,52.8z"/>
		<path class="st1" d="M483.2,34.6h14.1c4,0,7.1,1.2,9.1,3.2c1.7,1.7,2.6,4.1,2.6,6.8v0.1c0,5.2-3.1,8.3-7.5,9.6l8.5,11.9h-6.6
			l-7.8-11h-6.9v11h-5.5V34.6z M496.8,50.3c4,0,6.5-2.1,6.5-5.3v-0.1c0-3.4-2.4-5.2-6.5-5.2h-8.1v10.6H496.8z"/>
		<path class="st1" d="M513.6,61.6l3.3-4c3,2.6,6.1,4.1,10,4.1c3.4,0,5.6-1.6,5.6-4v-0.1c0-2.3-1.3-3.5-7.1-4.8
			c-6.7-1.6-10.5-3.6-10.5-9.4v-0.1c0-5.4,4.5-9.2,10.8-9.2c4.6,0,8.3,1.4,11.5,4l-3,4.2c-2.8-2.1-5.7-3.2-8.6-3.2
			c-3.2,0-5.1,1.7-5.1,3.7v0.1c0,2.4,1.4,3.5,7.5,5c6.7,1.6,10.1,4,10.1,9.2v0.1c0,5.9-4.6,9.4-11.3,9.4
			C522,66.6,517.4,65,513.6,61.6z"/>
		<path class="st1" d="M551.7,39.8h-10.1v-5.1h25.7v5.1h-10.1v26.4h-5.5V39.8z"/>
	</g>
	<g>
		<path class="st2" d="M342,84.6h2.5v19.6h12.3v2.3H342V84.6z"/>
		<path class="st2" d="M373.6,84.5h2.3l10,22h-2.7l-2.6-5.8h-11.9l-2.6,5.8h-2.5L373.6,84.5z M379.7,98.5l-5-11.1l-5,11.1H379.7z"/>
		<path class="st2" d="M392.7,103.3l1.5-1.8c2.3,2.1,4.5,3.1,7.5,3.1c2.9,0,4.9-1.6,4.9-3.7v-0.1c0-2-1.1-3.2-5.7-4.2
			c-5-1.1-7.3-2.7-7.3-6.3v-0.1c0-3.4,3-6,7.2-6c3.2,0,5.5,0.9,7.7,2.7l-1.4,1.9c-2-1.7-4.1-2.4-6.3-2.4c-2.8,0-4.6,1.6-4.6,3.5v0.1
			c0,2.1,1.1,3.2,5.9,4.2c4.9,1.1,7.1,2.8,7.1,6.2v0.1c0,3.7-3.1,6.2-7.5,6.2C398.1,106.8,395.3,105.6,392.7,103.3z"/>
		<path class="st2" d="M418.7,84.6h2.5v21.8h-2.5V84.6z"/>
		<path class="st2" d="M431.9,84.6h2.5v13l12.5-13h3.2l-9.4,9.5l9.8,12.3h-3.1L439,95.9l-4.6,4.7v5.9h-2.5V84.6z"/>
		<path class="st2" d="M472.4,84.6h15.8v2.2h-13.3v7.5h11.9v2.2h-11.9v7.6h13.5v2.2h-15.9V84.6z"/>
		<path class="st2" d="M504.5,97.8l-9.1-13.2h3l7.4,10.9l7.4-10.9h2.9L507,97.8v8.7h-2.5V97.8z"/>
		<path class="st2" d="M524.4,84.6h15.8v2.2h-13.3v7.5h11.9v2.2h-11.9v7.6h13.5v2.2h-15.9V84.6z"/>
		<path class="st2" d="M561.9,103.3l1.5-1.8c2.3,2.1,4.5,3.1,7.5,3.1c2.9,0,4.9-1.6,4.9-3.7v-0.1c0-2-1.1-3.2-5.7-4.2
			c-5-1.1-7.3-2.7-7.3-6.3v-0.1c0-3.4,3-6,7.2-6c3.2,0,5.5,0.9,7.7,2.7l-1.4,1.9c-2-1.7-4.1-2.4-6.3-2.4c-2.8,0-4.6,1.6-4.6,3.5v0.1
			c0,2.1,1.1,3.2,5.9,4.2c4.9,1.1,7.1,2.8,7.1,6.2v0.1c0,3.7-3.1,6.2-7.5,6.2C567.4,106.8,564.6,105.6,561.9,103.3z"/>
		<path class="st2" d="M587.4,97.3V84.6h2.5v12.5c0,4.7,2.5,7.4,6.7,7.4c4,0,6.6-2.4,6.6-7.2V84.6h2.5v12.5c0,6.4-3.7,9.7-9.1,9.7
			C591,106.8,587.4,103.5,587.4,97.3z"/>
		<path class="st2" d="M615.7,84.6h9.4c2.7,0,4.8,0.8,6.2,2.2c1.1,1.1,1.7,2.6,1.7,4.3v0.1c0,3.6-2.5,5.7-5.9,6.4l6.7,8.9h-3
			l-6.3-8.5h-6.2v8.5h-2.5V84.6z M624.9,95.8c3.3,0,5.6-1.7,5.6-4.5v-0.1c0-2.7-2.1-4.3-5.6-4.3h-6.7v8.9H624.9z"/>
		<path class="st2" d="M641.7,95.6L641.7,95.6c0-6.1,4.4-11.4,11-11.4c3.7,0,6,1.1,8.1,2.9l-1.6,1.9c-1.7-1.5-3.6-2.5-6.6-2.5
			c-4.8,0-8.3,4.1-8.3,9v0.1c0,5.2,3.3,9.1,8.6,9.1c2.5,0,4.8-1,6.3-2.2V97h-6.6v-2.2h9v8.7c-2,1.8-5.1,3.3-8.8,3.3
			C645.9,106.8,641.7,101.9,641.7,95.6z"/>
		<path class="st2" d="M671.5,84.6h15.8v2.2h-13.3v7.5h11.9v2.2h-11.9v7.6h13.5v2.2h-15.9V84.6z"/>
		<path class="st2" d="M696.7,84.6h9.4c2.7,0,4.8,0.8,6.2,2.2c1.1,1.1,1.7,2.6,1.7,4.3v0.1c0,3.6-2.5,5.7-5.9,6.4l6.7,8.9h-3
			l-6.3-8.5h-6.2v8.5h-2.5V84.6z M705.9,95.8c3.3,0,5.6-1.7,5.6-4.5v-0.1c0-2.7-2.1-4.3-5.6-4.3h-6.7v8.9H705.9z"/>
		<path class="st2" d="M729.7,97.8l-9.1-13.2h3l7.4,10.9l7.4-10.9h2.9l-9.1,13.2v8.7h-2.5V97.8z"/>
	</g>
</g>
</svg>
