<?xml version="1.0" encoding="UTF-8"?>
<svg xmlns="http://www.w3.org/2000/svg" xmlns:xlink="http://www.w3.org/1999/xlink" viewBox="0 0 3488.71 6167.96">
  <defs>
    <style>
      .cls-1 {
        isolation: isolate;
      }

      .cls-2 {
        fill: #fff;
      }

      .cls-3 {
        fill: url(#New_Gradient_Swatch_2);
        mix-blend-mode: multiply;
      }
    </style>
    <linearGradient id="New_Gradient_Swatch_2" data-name="New Gradient Swatch 2" x1="882.44" y1="2184.47" x2="2647.76" y2="3203.68" gradientUnits="userSpaceOnUse">
      <stop offset=".15" stop-color="#2bc7cb"/>
      <stop offset=".68" stop-color="#1ca1b2"/>
      <stop offset="1" stop-color="#158fa7"/>
    </linearGradient>
  </defs>
  <g class="cls-1">
    <g id="Layer_1" data-name="Layer 1">
      <rect class="cls-3" x="717.3" y="2470.51" width="2095.6" height="447.13"/>
      <g>
        <path class="cls-2" d="M944.36,2565.5c-3.58,0-6.72-.76-9.42-2.29-2.71-1.53-4.82-3.62-6.34-6.28-1.53-2.66-2.29-5.68-2.29-9.06v-26.11h9.64v26.6c0,1.75.38,3.25,1.13,4.51.75,1.26,1.76,2.22,3.02,2.87,1.26.65,2.68.98,4.27.98s2.94-.33,4.18-.98c1.24-.65,2.21-1.61,2.9-2.87.69-1.26,1.04-2.74,1.04-4.45v-26.66h9.7v26.17c0,3.38-.75,6.38-2.26,9.03-1.5,2.64-3.6,4.73-6.28,6.25s-5.78,2.29-9.27,2.29Z"/>
        <path class="cls-2" d="M970.34,2564.83v-43.07h6.77l2.87,8.6v34.46h-9.64ZM1000.05,2564.83l-25.32-32.51,2.38-10.55,25.38,32.51-2.44,10.55ZM1000.05,2564.83l-2.56-8.6v-34.46h9.7v43.07h-7.14Z"/>
        <path class="cls-2" d="M1036.41,2565.5c-3.21,0-6.19-.56-8.94-1.68-2.74-1.12-5.14-2.69-7.2-4.73-2.05-2.03-3.65-4.4-4.79-7.11s-1.71-5.62-1.71-8.75.57-6.05,1.71-8.75,2.73-5.05,4.79-7.05c2.05-1.99,4.44-3.55,7.17-4.67,2.72-1.12,5.71-1.68,8.97-1.68,3.42,0,6.46.55,9.12,1.65,2.66,1.1,4.99,2.6,6.98,4.51l-6.47,6.53c-1.1-1.22-2.45-2.18-4.06-2.87s-3.47-1.04-5.58-1.04c-1.87,0-3.58.31-5.12.95s-2.89,1.54-4.03,2.71-2.01,2.6-2.62,4.27c-.61,1.67-.92,3.48-.92,5.43s.31,3.87.92,5.52c.61,1.65,1.48,3.07,2.62,4.27,1.14,1.2,2.48,2.12,4.03,2.75s3.25.95,5.12.95c2.2,0,4.11-.34,5.73-1.01,1.63-.67,3.01-1.64,4.15-2.9l6.53,6.53c-2.03,1.95-4.39,3.47-7.08,4.54-2.68,1.08-5.79,1.62-9.33,1.62Z"/>
        <path class="cls-2" d="M1079.23,2565.57c-3.25,0-6.26-.57-9.03-1.71s-5.18-2.72-7.26-4.76c-2.07-2.03-3.68-4.4-4.82-7.11s-1.71-5.62-1.71-8.75.57-6.1,1.71-8.78c1.14-2.68,2.72-5.03,4.76-7.04,2.03-2.01,4.43-3.58,7.2-4.7,2.76-1.12,5.77-1.68,9.03-1.68s6.19.56,8.94,1.68c2.75,1.12,5.15,2.68,7.23,4.7,2.07,2.01,3.67,4.37,4.79,7.08,1.12,2.71,1.68,5.64,1.68,8.81s-.57,6.05-1.71,8.75c-1.14,2.7-2.72,5.06-4.76,7.08-2.03,2.01-4.41,3.59-7.14,4.73s-5.69,1.71-8.91,1.71ZM1079.11,2556.78c2.56,0,4.8-.57,6.71-1.71,1.91-1.14,3.41-2.72,4.48-4.76,1.08-2.03,1.62-4.39,1.62-7.08,0-1.99-.31-3.81-.92-5.46-.61-1.65-1.48-3.07-2.62-4.27-1.14-1.2-2.5-2.11-4.09-2.74s-3.32-.95-5.19-.95c-2.56,0-4.81.56-6.74,1.68-1.93,1.12-3.43,2.68-4.48,4.7-1.06,2.01-1.59,4.36-1.59,7.05,0,2.03.31,3.88.92,5.55.61,1.67,1.48,3.1,2.62,4.3,1.14,1.2,2.49,2.12,4.06,2.75,1.56.63,3.3.95,5.21.95Z"/>
        <path class="cls-2" d="M1108.38,2564.83v-43.07h9.64v43.07h-9.64ZM1115.77,2547.14v-7.2h9.09c1.87,0,3.33-.48,4.39-1.43,1.06-.96,1.59-2.25,1.59-3.87s-.52-2.83-1.56-3.84c-1.04-1.02-2.49-1.52-4.36-1.52h-9.15v-7.5h10.25c2.89,0,5.41.54,7.56,1.62,2.16,1.08,3.83,2.57,5.03,4.48,1.2,1.91,1.8,4.09,1.8,6.53,0,2.6-.61,4.85-1.83,6.74-1.22,1.89-2.93,3.37-5.12,4.42-2.2,1.06-4.78,1.59-7.75,1.59h-9.94ZM1131.81,2564.83l-13.42-18.54,8.85-2.44,15.98,20.98h-11.41Z"/>
        <path class="cls-2" d="M1147.91,2564.83v-43.07h9.64v43.07h-9.64ZM1155.29,2547.14v-7.2h9.09c1.87,0,3.33-.48,4.39-1.43,1.06-.96,1.59-2.25,1.59-3.87s-.52-2.83-1.56-3.84c-1.04-1.02-2.49-1.52-4.36-1.52h-9.15v-7.5h10.25c2.89,0,5.41.54,7.56,1.62,2.16,1.08,3.83,2.57,5.03,4.48,1.2,1.91,1.8,4.09,1.8,6.53,0,2.6-.61,4.85-1.83,6.74s-2.93,3.37-5.12,4.42c-2.2,1.06-4.78,1.59-7.75,1.59h-9.94ZM1171.34,2564.83l-13.42-18.54,8.84-2.44,15.98,20.98h-11.41Z"/>
        <path class="cls-2" d="M1187.44,2564.83v-43.07h9.64v43.07h-9.64ZM1194.82,2530.06v-8.3h23.3v8.3h-23.3ZM1194.82,2546.9v-8.11h21.47v8.11h-21.47ZM1194.82,2564.83v-8.3h23.67v8.3h-23.67Z"/>
        <path class="cls-2" d="M1246,2565.5c-3.21,0-6.19-.56-8.94-1.68s-5.14-2.69-7.2-4.73c-2.05-2.03-3.65-4.4-4.79-7.11-1.14-2.7-1.71-5.62-1.71-8.75s.57-6.05,1.71-8.75c1.14-2.71,2.73-5.05,4.79-7.05,2.05-1.99,4.44-3.55,7.17-4.67,2.72-1.12,5.71-1.68,8.97-1.68,3.42,0,6.46.55,9.12,1.65,2.66,1.1,4.99,2.6,6.98,4.51l-6.47,6.53c-1.1-1.22-2.45-2.18-4.06-2.87s-3.47-1.04-5.58-1.04c-1.87,0-3.58.31-5.12.95-1.55.63-2.89,1.54-4.03,2.71-1.14,1.18-2.01,2.6-2.62,4.27-.61,1.67-.92,3.48-.92,5.43s.31,3.87.92,5.52c.61,1.65,1.48,3.07,2.62,4.27,1.14,1.2,2.48,2.12,4.03,2.75,1.54.63,3.25.95,5.12.95,2.2,0,4.11-.34,5.73-1.01s3.01-1.64,4.15-2.9l6.53,6.53c-2.03,1.95-4.39,3.47-7.08,4.54-2.68,1.08-5.79,1.62-9.33,1.62Z"/>
        <path class="cls-2" d="M1265.28,2530.19v-8.42h36.6v8.42h-36.6ZM1278.76,2564.83v-42.52h9.7v42.52h-9.7Z"/>
        <path class="cls-2" d="M1307.79,2564.83v-43.07h9.64v43.07h-9.64ZM1315.17,2530.06v-8.3h23.3v8.3h-23.3ZM1315.17,2546.9v-8.11h21.47v8.11h-21.47ZM1315.17,2564.83v-8.3h23.67v8.3h-23.67Z"/>
        <path class="cls-2" d="M1345.92,2564.83v-43.07h9.64v43.07h-9.64ZM1352.51,2564.83v-8.42h10.61c2.6,0,4.87-.53,6.8-1.59,1.93-1.06,3.43-2.57,4.48-4.54,1.06-1.97,1.59-4.32,1.59-7.05s-.54-5.01-1.62-6.98c-1.08-1.97-2.58-3.48-4.51-4.51-1.93-1.04-4.18-1.56-6.74-1.56h-10.92v-8.42h11.04c3.25,0,6.25.52,9,1.55,2.75,1.04,5.14,2.52,7.2,4.45,2.05,1.93,3.65,4.2,4.79,6.8,1.14,2.6,1.71,5.51,1.71,8.72s-.57,6.01-1.71,8.63c-1.14,2.62-2.73,4.9-4.76,6.83-2.03,1.93-4.42,3.43-7.17,4.48-2.75,1.06-5.72,1.59-8.94,1.59h-10.86Z"/>
        <path class="cls-2" d="M1404.72,2564.83v-43.07h9.64v43.07h-9.64ZM1412.1,2547.14v-7.2h9.09c1.87,0,3.33-.48,4.39-1.43,1.06-.96,1.59-2.25,1.59-3.87s-.52-2.83-1.55-3.84c-1.04-1.02-2.49-1.52-4.36-1.52h-9.15v-7.5h10.25c2.89,0,5.41.54,7.56,1.62,2.16,1.08,3.83,2.57,5.03,4.48,1.2,1.91,1.8,4.09,1.8,6.53,0,2.6-.61,4.85-1.83,6.74-1.22,1.89-2.93,3.37-5.12,4.42-2.2,1.06-4.78,1.59-7.75,1.59h-9.94ZM1428.14,2564.83l-13.42-18.54,8.84-2.44,15.98,20.98h-11.41Z"/>
        <path class="cls-2" d="M1444.25,2564.83v-43.07h9.64v43.07h-9.64ZM1451.63,2530.06v-8.3h23.3v8.3h-23.3ZM1451.63,2546.9v-8.11h21.47v8.11h-21.47ZM1451.63,2564.83v-8.3h23.67v8.3h-23.67Z"/>
        <path class="cls-2" d="M1482.37,2564.83v-43.07h9.64v43.07h-9.64ZM1489.75,2530.06v-8.3h22.57v8.3h-22.57ZM1489.75,2548v-8.36h21.59v8.36h-21.59Z"/>
        <path class="cls-2" d="M1518.97,2564.83v-43.07h9.64v43.07h-9.64ZM1526.35,2547.14v-7.2h9.09c1.87,0,3.33-.48,4.39-1.43,1.06-.96,1.59-2.25,1.59-3.87s-.52-2.83-1.56-3.84c-1.04-1.02-2.49-1.52-4.36-1.52h-9.15v-7.5h10.25c2.89,0,5.41.54,7.56,1.62,2.15,1.08,3.83,2.57,5.03,4.48,1.2,1.91,1.8,4.09,1.8,6.53,0,2.6-.61,4.85-1.83,6.74-1.22,1.89-2.93,3.37-5.12,4.42s-4.78,1.59-7.75,1.59h-9.94ZM1542.4,2564.83l-13.42-18.54,8.85-2.44,15.98,20.98h-11.41Z"/>
        <path class="cls-2" d="M1553.99,2564.83l17.02-43.07h8.72l16.9,43.07h-10.19l-12.87-35.69h3.54l-13.18,35.69h-9.94ZM1563.75,2557.09v-7.81h23.42v7.81h-23.42Z"/>
        <path class="cls-2" d="M1622.67,2565.5c-3.21,0-6.19-.56-8.94-1.68s-5.15-2.69-7.2-4.73c-2.05-2.03-3.65-4.4-4.79-7.11-1.14-2.7-1.71-5.62-1.71-8.75s.57-6.05,1.71-8.75c1.14-2.71,2.73-5.05,4.79-7.05,2.05-1.99,4.44-3.55,7.17-4.67,2.72-1.12,5.71-1.68,8.97-1.68,3.42,0,6.46.55,9.12,1.65,2.66,1.1,4.99,2.6,6.98,4.51l-6.46,6.53c-1.1-1.22-2.45-2.18-4.06-2.87-1.61-.69-3.47-1.04-5.58-1.04-1.87,0-3.58.31-5.12.95-1.55.63-2.89,1.54-4.03,2.71s-2.01,2.6-2.62,4.27c-.61,1.67-.91,3.48-.91,5.43s.3,3.87.91,5.52c.61,1.65,1.48,3.07,2.62,4.27,1.14,1.2,2.48,2.12,4.03,2.75,1.54.63,3.25.95,5.12.95,2.2,0,4.11-.34,5.73-1.01,1.62-.67,3.01-1.64,4.15-2.9l6.53,6.53c-2.03,1.95-4.39,3.47-7.08,4.54-2.68,1.08-5.79,1.62-9.33,1.62Z"/>
        <path class="cls-2" d="M1641.95,2530.19v-8.42h36.6v8.42h-36.6ZM1655.43,2564.83v-42.52h9.7v42.52h-9.7Z"/>
        <path class="cls-2" d="M1684.46,2564.83v-43.07h9.64v43.07h-9.64Z"/>
        <path class="cls-2" d="M1716.37,2564.83l-16.59-43.07h10.31l12.63,34.83h-4.21l12.75-34.83h10.19l-16.77,43.07h-8.3Z"/>
        <path class="cls-2" d="M1747.05,2564.83v-43.07h9.64v43.07h-9.64ZM1754.43,2530.06v-8.3h23.3v8.3h-23.3ZM1754.43,2546.9v-8.11h21.47v8.11h-21.47ZM1754.43,2564.83v-8.3h23.67v8.3h-23.67Z"/>
        <path class="cls-2" d="M1797.37,2564.83v-43.07h9.64v43.07h-9.64ZM1804.75,2530.06v-8.3h23.3v8.3h-23.3ZM1804.75,2546.9v-8.11h21.47v8.11h-21.47ZM1804.75,2564.83v-8.3h23.67v8.3h-23.67Z"/>
        <path class="cls-2" d="M1835.5,2564.83v-43.07h9.64v43.07h-9.64ZM1842.88,2547.14v-7.2h9.09c1.87,0,3.33-.48,4.39-1.43,1.06-.96,1.59-2.25,1.59-3.87s-.52-2.83-1.56-3.84c-1.04-1.02-2.49-1.52-4.36-1.52h-9.15v-7.5h10.25c2.89,0,5.41.54,7.56,1.62,2.15,1.08,3.83,2.57,5.03,4.48,1.2,1.91,1.8,4.09,1.8,6.53,0,2.6-.61,4.85-1.83,6.74-1.22,1.89-2.93,3.37-5.12,4.42s-4.78,1.59-7.75,1.59h-9.94ZM1858.92,2564.83l-13.42-18.54,8.85-2.44,15.98,20.98h-11.41Z"/>
        <path class="cls-2" d="M1875.03,2564.83v-43.07h9.64v43.07h-9.64ZM1882.41,2547.14v-7.2h9.09c1.87,0,3.33-.48,4.39-1.43,1.06-.96,1.59-2.25,1.59-3.87s-.52-2.83-1.56-3.84c-1.04-1.02-2.49-1.52-4.36-1.52h-9.15v-7.5h10.25c2.89,0,5.41.54,7.56,1.62,2.16,1.08,3.83,2.57,5.03,4.48,1.2,1.91,1.8,4.09,1.8,6.53,0,2.6-.61,4.85-1.83,6.74-1.22,1.89-2.93,3.37-5.12,4.42-2.2,1.06-4.78,1.59-7.75,1.59h-9.94ZM1898.45,2564.83l-13.42-18.54,8.85-2.44,15.98,20.98h-11.41Z"/>
        <path class="cls-2" d="M1934.99,2565.57c-3.25,0-6.26-.57-9.03-1.71-2.77-1.14-5.18-2.72-7.26-4.76s-3.68-4.4-4.82-7.11c-1.14-2.7-1.71-5.62-1.71-8.75s.57-6.1,1.71-8.78c1.14-2.68,2.72-5.03,4.76-7.04,2.03-2.01,4.43-3.58,7.2-4.7,2.77-1.12,5.77-1.68,9.03-1.68s6.19.56,8.94,1.68c2.75,1.12,5.15,2.68,7.23,4.7,2.07,2.01,3.67,4.37,4.79,7.08,1.12,2.71,1.68,5.64,1.68,8.81s-.57,6.05-1.71,8.75c-1.14,2.7-2.72,5.06-4.76,7.08-2.03,2.01-4.41,3.59-7.14,4.73-2.72,1.14-5.69,1.71-8.91,1.71ZM1934.87,2556.78c2.56,0,4.8-.57,6.71-1.71,1.91-1.14,3.41-2.72,4.48-4.76,1.08-2.03,1.62-4.39,1.62-7.08,0-1.99-.3-3.81-.91-5.46-.61-1.65-1.49-3.07-2.62-4.27-1.14-1.2-2.5-2.11-4.09-2.74s-3.31-.95-5.18-.95c-2.56,0-4.81.56-6.74,1.68s-3.43,2.68-4.48,4.7c-1.06,2.01-1.59,4.36-1.59,7.05,0,2.03.3,3.88.91,5.55.61,1.67,1.48,3.1,2.62,4.3,1.14,1.2,2.49,2.12,4.06,2.75,1.57.63,3.3.95,5.22.95Z"/>
        <path class="cls-2" d="M1964.15,2564.83v-43.07h9.64v43.07h-9.64ZM1971.53,2547.14v-7.2h9.09c1.87,0,3.33-.48,4.39-1.43,1.06-.96,1.59-2.25,1.59-3.87s-.52-2.83-1.56-3.84c-1.04-1.02-2.49-1.52-4.36-1.52h-9.15v-7.5h10.25c2.89,0,5.41.54,7.56,1.62,2.15,1.08,3.83,2.57,5.03,4.48,1.2,1.91,1.8,4.09,1.8,6.53,0,2.6-.61,4.85-1.83,6.74-1.22,1.89-2.93,3.37-5.12,4.42s-4.78,1.59-7.75,1.59h-9.94ZM1987.57,2564.83l-13.42-18.54,8.85-2.44,15.98,20.98h-11.41Z"/>
        <path class="cls-2" d="M2017.7,2551.96v-5.25h20.07v5.25h-20.07Z"/>
        <path class="cls-2" d="M2056.99,2540.86v-5h19.76v5h-19.76ZM2064.12,2564.83v-41.11h5.49v41.11h-5.49Z"/>
        <path class="cls-2" d="M2082.73,2564.83v-43.55h5.49v43.55h-5.49ZM2103.16,2564.83v-16.9c0-2.2-.68-4-2.04-5.43-1.36-1.42-3.14-2.13-5.34-2.13-1.46,0-2.77.33-3.9.98-1.14.65-2.03,1.55-2.68,2.68s-.98,2.44-.98,3.9l-2.26-1.28c0-2.2.49-4.15,1.46-5.86.98-1.71,2.34-3.06,4.09-4.06,1.75-1,3.72-1.5,5.92-1.5s4.14.49,5.83,1.46c1.69.98,3.02,2.34,4,4.09.98,1.75,1.46,3.76,1.46,6.04v18h-5.55Z"/>
        <path class="cls-2" d="M2130.18,2565.44c-2.93,0-5.54-.66-7.84-1.98-2.3-1.32-4.12-3.12-5.46-5.4s-2.01-4.86-2.01-7.75.66-5.41,1.98-7.69c1.32-2.28,3.11-4.08,5.37-5.4,2.26-1.32,4.79-1.98,7.59-1.98,2.64,0,5,.61,7.08,1.83,2.07,1.22,3.69,2.91,4.85,5.06,1.16,2.16,1.74,4.62,1.74,7.38,0,.41-.02.84-.06,1.31-.04.47-.12.99-.24,1.56h-24.46v-4.58h21.53l-2.01,1.77c0-1.95-.35-3.61-1.04-4.97-.69-1.36-1.67-2.42-2.93-3.17-1.26-.75-2.79-1.13-4.57-1.13s-3.52.41-4.94,1.22c-1.42.81-2.52,1.95-3.29,3.42-.77,1.46-1.16,3.19-1.16,5.19s.41,3.81,1.22,5.34c.81,1.52,1.97,2.7,3.48,3.54,1.5.83,3.23,1.25,5.18,1.25,1.63,0,3.12-.28,4.48-.85,1.36-.57,2.53-1.42,3.51-2.56l3.54,3.6c-1.42,1.63-3.13,2.87-5.12,3.72-1.99.85-4.13,1.28-6.41,1.28Z"/>
        <path class="cls-2" d="M2163.31,2564.83v-43.55h5.49v43.55h-5.49Z"/>
        <path class="cls-2" d="M2190.88,2565.44c-2.93,0-5.54-.66-7.84-1.98-2.3-1.32-4.12-3.12-5.46-5.4s-2.01-4.86-2.01-7.75.66-5.41,1.98-7.69c1.32-2.28,3.11-4.08,5.37-5.4,2.26-1.32,4.79-1.98,7.59-1.98,2.64,0,5,.61,7.08,1.83,2.07,1.22,3.69,2.91,4.85,5.06,1.16,2.16,1.74,4.62,1.74,7.38,0,.41-.02.84-.06,1.31-.04.47-.12.99-.24,1.56h-24.46v-4.58h21.53l-2.01,1.77c0-1.95-.35-3.61-1.04-4.97-.69-1.36-1.67-2.42-2.93-3.17-1.26-.75-2.79-1.13-4.58-1.13s-3.52.41-4.94,1.22c-1.42.81-2.52,1.95-3.29,3.42-.77,1.46-1.16,3.19-1.16,5.19s.41,3.81,1.22,5.34c.81,1.52,1.97,2.7,3.48,3.54,1.5.83,3.23,1.25,5.18,1.25,1.63,0,3.12-.28,4.48-.85,1.36-.57,2.53-1.42,3.51-2.56l3.54,3.6c-1.42,1.63-3.13,2.87-5.12,3.72-1.99.85-4.13,1.28-6.41,1.28Z"/>
        <path class="cls-2" d="M2223.09,2565.44c-2.68,0-5.09-.66-7.23-1.98-2.13-1.32-3.82-3.12-5.06-5.4-1.24-2.28-1.86-4.84-1.86-7.69s.62-5.41,1.86-7.69c1.24-2.28,2.93-4.09,5.06-5.43s4.54-2.01,7.23-2.01c2.2,0,4.16.46,5.89,1.37,1.73.92,3.12,2.18,4.18,3.78,1.06,1.61,1.65,3.47,1.77,5.58v8.72c-.12,2.07-.7,3.93-1.74,5.55-1.04,1.63-2.43,2.9-4.18,3.81-1.75.92-3.72,1.37-5.92,1.37ZM2224,2560.26c2.72,0,4.92-.92,6.59-2.78,1.67-1.85,2.5-4.22,2.5-7.11,0-1.95-.39-3.68-1.16-5.19-.77-1.5-1.84-2.67-3.2-3.51-1.36-.83-2.96-1.25-4.79-1.25s-3.45.43-4.85,1.28c-1.4.85-2.5,2.02-3.29,3.51s-1.19,3.18-1.19,5.09.4,3.67,1.19,5.16,1.9,2.65,3.32,3.51c1.42.85,3.05,1.28,4.88,1.28ZM2232.72,2564.83v-7.81l1.04-7.08-1.04-7.01v-7.08h5.55v28.98h-5.55Z"/>
        <path class="cls-2" d="M2259.07,2565.44c-2.64,0-5.02-.66-7.14-1.98-2.12-1.32-3.79-3.12-5.03-5.4-1.24-2.28-1.86-4.84-1.86-7.69s.62-5.41,1.86-7.69c1.24-2.28,2.92-4.09,5.03-5.43,2.11-1.34,4.49-2.01,7.14-2.01,2.2,0,4.17.46,5.92,1.37,1.75.92,3.16,2.18,4.24,3.78,1.08,1.61,1.68,3.47,1.8,5.58v8.72c-.12,2.07-.71,3.93-1.77,5.55-1.06,1.63-2.46,2.9-4.21,3.81-1.75.92-3.74,1.37-5.98,1.37ZM2259.99,2560.26c1.83,0,3.44-.43,4.82-1.28,1.38-.85,2.46-2.02,3.23-3.51s1.16-3.18,1.16-5.09-.39-3.67-1.16-5.15-1.85-2.65-3.23-3.51c-1.38-.85-2.99-1.28-4.82-1.28s-3.44.42-4.82,1.25c-1.38.83-2.47,1.99-3.26,3.48-.79,1.49-1.19,3.2-1.19,5.15s.4,3.68,1.19,5.18c.79,1.51,1.89,2.67,3.29,3.51,1.4.83,3,1.25,4.79,1.25ZM2274.39,2564.83h-5.55v-7.81l1.04-7.08-1.04-7.01v-21.66h5.55v43.55Z"/>
        <path class="cls-2" d="M2285.79,2530.06c-1.02,0-1.85-.33-2.5-1.01-.65-.67-.98-1.51-.98-2.53s.33-1.8.98-2.47c.65-.67,1.48-1.01,2.5-1.01s1.85.33,2.5,1.01c.65.67.98,1.49.98,2.47s-.33,1.86-.98,2.53c-.65.67-1.49,1.01-2.5,1.01ZM2282.99,2564.83v-28.98h5.55v28.98h-5.55Z"/>
        <path class="cls-2" d="M2297.26,2564.83v-28.98h5.49v28.98h-5.49ZM2317.69,2564.83v-16.9c0-2.2-.68-4-2.04-5.43s-3.14-2.13-5.34-2.13c-1.46,0-2.77.33-3.9.98-1.14.65-2.03,1.55-2.68,2.68-.65,1.14-.98,2.44-.98,3.9l-2.26-1.28c0-2.2.49-4.15,1.46-5.86.98-1.71,2.34-3.06,4.09-4.06,1.75-1,3.72-1.5,5.92-1.5s4.14.55,5.83,1.65c1.69,1.1,3.02,2.53,4,4.3.98,1.77,1.46,3.65,1.46,5.64v18h-5.55Z"/>
        <path class="cls-2" d="M2343.31,2564.35c-2.64,0-5.01-.63-7.11-1.89-2.09-1.26-3.75-3-4.97-5.22-1.22-2.21-1.83-4.71-1.83-7.47s.6-5.24,1.8-7.41,2.86-3.9,4.97-5.19,4.47-1.92,7.08-1.92c2.28,0,4.3.45,6.07,1.34,1.77.9,3.16,2.15,4.18,3.75,1.02,1.61,1.59,3.49,1.71,5.64v7.69c-.12,2.12-.7,3.98-1.74,5.58-1.04,1.61-2.43,2.86-4.18,3.75-1.75.89-3.74,1.34-5.98,1.34ZM2343.31,2577.58c-3.01,0-5.65-.55-7.93-1.65-2.28-1.1-4.13-2.64-5.55-4.64l3.6-3.6c1.18,1.5,2.58,2.65,4.21,3.45s3.56,1.19,5.79,1.19c2.93,0,5.27-.78,7.02-2.35,1.75-1.57,2.62-3.67,2.62-6.31v-7.2l.98-6.53-.98-6.47v-7.62h5.49v27.82c0,2.77-.64,5.2-1.92,7.29s-3.07,3.72-5.37,4.88c-2.3,1.16-4.95,1.74-7.96,1.74ZM2344.35,2559.16c1.83,0,3.42-.39,4.76-1.16s2.39-1.86,3.14-3.26c.75-1.4,1.13-3.04,1.13-4.91s-.38-3.51-1.13-4.91-1.81-2.5-3.17-3.29c-1.36-.79-2.94-1.19-4.73-1.19s-3.44.4-4.82,1.19c-1.38.79-2.47,1.89-3.26,3.29s-1.19,3.02-1.19,4.85.4,3.46,1.19,4.88c.79,1.42,1.89,2.53,3.29,3.32s3,1.19,4.79,1.19Z"/>
        <path class="cls-2" d="M2393.64,2565.44c-2.85,0-5.42-.67-7.72-2.01-2.3-1.34-4.11-3.16-5.43-5.46-1.32-2.3-1.98-4.85-1.98-7.66s.66-5.41,1.98-7.69c1.32-2.28,3.13-4.08,5.43-5.4,2.3-1.32,4.87-1.98,7.72-1.98,2.24,0,4.31.42,6.22,1.25,1.91.83,3.56,2.04,4.94,3.63l-3.66,3.66c-.9-1.06-1.99-1.86-3.29-2.41-1.3-.55-2.71-.82-4.21-.82-1.83,0-3.46.42-4.88,1.25-1.42.83-2.54,1.98-3.35,3.45-.81,1.46-1.22,3.15-1.22,5.06s.41,3.6,1.22,5.06c.81,1.46,1.93,2.62,3.35,3.48,1.42.85,3.05,1.28,4.88,1.28,1.54,0,2.96-.28,4.24-.82s2.39-1.35,3.32-2.41l3.6,3.66c-1.34,1.55-2.98,2.75-4.91,3.6-1.93.85-4.02,1.28-6.25,1.28Z"/>
        <path class="cls-2" d="M2423.16,2565.44c-2.68,0-5.09-.66-7.23-1.98-2.14-1.32-3.82-3.12-5.06-5.4s-1.86-4.84-1.86-7.69.62-5.41,1.86-7.69c1.24-2.28,2.93-4.09,5.06-5.43,2.13-1.34,4.54-2.01,7.23-2.01,2.2,0,4.16.46,5.89,1.37s3.12,2.18,4.18,3.78c1.06,1.61,1.65,3.47,1.77,5.58v8.72c-.12,2.07-.7,3.93-1.74,5.55-1.04,1.63-2.43,2.9-4.18,3.81-1.75.92-3.72,1.37-5.92,1.37ZM2424.08,2560.26c2.72,0,4.92-.92,6.59-2.78,1.67-1.85,2.5-4.22,2.5-7.11,0-1.95-.39-3.68-1.16-5.19-.77-1.5-1.84-2.67-3.2-3.51-1.36-.83-2.96-1.25-4.79-1.25s-3.45.43-4.85,1.28c-1.4.85-2.5,2.02-3.29,3.51s-1.19,3.18-1.19,5.09.4,3.67,1.19,5.16,1.9,2.65,3.32,3.51,3.05,1.28,4.88,1.28ZM2432.8,2564.83v-7.81l1.04-7.08-1.04-7.01v-7.08h5.55v28.98h-5.55Z"/>
        <path class="cls-2" d="M2458.66,2565.32c-2.4,0-4.54-.52-6.44-1.56s-3.37-2.51-4.42-4.42c-1.06-1.91-1.59-4.13-1.59-6.65v-16.84h5.49v16.59c0,1.59.27,2.96.82,4.12.55,1.16,1.35,2.04,2.41,2.65,1.06.61,2.3.92,3.72.92,2.16,0,3.84-.68,5.06-2.04,1.22-1.36,1.83-3.24,1.83-5.64v-16.59h5.49v16.84c0,2.52-.53,4.74-1.59,6.65-1.06,1.91-2.52,3.38-4.39,4.42-1.87,1.04-4.01,1.56-6.41,1.56Z"/>
        <path class="cls-2" d="M2488.25,2565.44c-1.63,0-3.17-.21-4.63-.64-1.46-.43-2.8-1.04-4-1.83-1.2-.79-2.25-1.74-3.14-2.84l3.54-3.54c1.06,1.3,2.28,2.27,3.66,2.9,1.38.63,2.93.95,4.64.95s3.03-.29,3.97-.88c.93-.59,1.4-1.41,1.4-2.47s-.38-1.88-1.13-2.47c-.75-.59-1.72-1.08-2.9-1.46-1.18-.39-2.43-.76-3.75-1.13-1.32-.37-2.57-.85-3.75-1.46s-2.14-1.45-2.9-2.53c-.75-1.08-1.13-2.49-1.13-4.24s.42-3.26,1.25-4.54c.83-1.28,2.02-2.27,3.57-2.96,1.54-.69,3.4-1.04,5.55-1.04,2.28,0,4.3.4,6.07,1.19,1.77.79,3.22,1.98,4.36,3.57l-3.54,3.54c-.85-1.06-1.87-1.87-3.05-2.44-1.18-.57-2.52-.85-4.03-.85-1.59,0-2.8.29-3.63.85s-1.25,1.32-1.25,2.26.37,1.73,1.1,2.26c.73.53,1.7.98,2.9,1.34,1.2.37,2.45.74,3.75,1.13,1.3.39,2.54.91,3.72,1.56,1.18.65,2.14,1.53,2.9,2.62s1.13,2.54,1.13,4.33c0,2.72-.97,4.88-2.9,6.47-1.93,1.59-4.52,2.38-7.78,2.38Z"/>
        <path class="cls-2" d="M2519.11,2565.44c-2.93,0-5.54-.66-7.84-1.98-2.3-1.32-4.12-3.12-5.46-5.4s-2.01-4.86-2.01-7.75.66-5.41,1.98-7.69c1.32-2.28,3.11-4.08,5.37-5.4,2.26-1.32,4.79-1.98,7.59-1.98,2.64,0,5,.61,7.08,1.83,2.07,1.22,3.69,2.91,4.85,5.06,1.16,2.16,1.74,4.62,1.74,7.38,0,.41-.02.84-.06,1.31-.04.47-.12.99-.24,1.56h-24.46v-4.58h21.53l-2.01,1.77c0-1.95-.35-3.61-1.04-4.97-.69-1.36-1.67-2.42-2.93-3.17-1.26-.75-2.79-1.13-4.58-1.13s-3.52.41-4.94,1.22c-1.42.81-2.52,1.95-3.29,3.42-.77,1.46-1.16,3.19-1.16,5.19s.41,3.81,1.22,5.34c.81,1.52,1.97,2.7,3.48,3.54,1.5.83,3.23,1.25,5.18,1.25,1.63,0,3.12-.28,4.48-.85,1.36-.57,2.53-1.42,3.51-2.56l3.54,3.6c-1.42,1.63-3.13,2.87-5.12,3.72-1.99.85-4.13,1.28-6.41,1.28Z"/>
        <path class="cls-2" d="M2565.41,2565.44c-2.81,0-5.35-.67-7.62-2.01-2.28-1.34-4.09-3.16-5.43-5.46-1.34-2.3-2.01-4.87-2.01-7.72s.67-5.34,2.01-7.59c1.34-2.26,3.15-4.06,5.43-5.4,2.28-1.34,4.82-2.01,7.62-2.01s5.42.66,7.72,1.98c2.3,1.32,4.12,3.12,5.46,5.4,1.34,2.28,2.01,4.82,2.01,7.62s-.67,5.42-2.01,7.72c-1.34,2.3-3.16,4.12-5.46,5.46-2.3,1.34-4.87,2.01-7.72,2.01ZM2565.41,2560.14c1.87,0,3.52-.43,4.94-1.28,1.42-.85,2.54-2.02,3.35-3.51.81-1.48,1.22-3.18,1.22-5.09s-.42-3.54-1.25-5c-.83-1.46-1.95-2.61-3.36-3.45-1.4-.83-3.04-1.25-4.91-1.25s-3.4.42-4.82,1.25c-1.42.83-2.54,1.98-3.35,3.45-.81,1.46-1.22,3.13-1.22,5s.41,3.61,1.22,5.09c.81,1.49,1.93,2.65,3.35,3.51,1.42.85,3.03,1.28,4.82,1.28Z"/>
        <path class="cls-2" d="M2584.32,2540.86v-5h21.84v5h-21.84ZM2591.39,2564.83v-33.31c0-2.11.47-3.98,1.4-5.61.93-1.63,2.24-2.91,3.9-3.84,1.67-.93,3.6-1.4,5.79-1.4,1.67,0,3.11.29,4.33.85,1.22.57,2.34,1.4,3.36,2.5l-3.6,3.54c-.53-.57-1.12-1-1.77-1.28-.65-.28-1.44-.43-2.38-.43-1.75,0-3.1.5-4.06,1.5-.96,1-1.43,2.39-1.43,4.18v33.31h-5.55Z"/>
        <path class="cls-2" d="M925.3,2644.83l-16.59-43.07h10.31l12.63,34.83h-4.21l12.75-34.83h10.19l-16.78,43.07h-8.3Z"/>
        <path class="cls-2" d="M955.98,2644.83v-43.07h9.64v43.07h-9.64Z"/>
        <path class="cls-2" d="M986.6,2645.5c-3.58,0-6.64-.57-9.18-1.71-2.54-1.14-4.85-2.89-6.92-5.25l6.22-6.22c1.38,1.59,2.92,2.82,4.61,3.69s3.65,1.31,5.89,1.31c1.99,0,3.55-.38,4.67-1.13,1.12-.75,1.68-1.78,1.68-3.08,0-1.14-.36-2.07-1.07-2.81s-1.68-1.36-2.9-1.89c-1.22-.53-2.54-1.03-3.96-1.49-1.42-.47-2.86-1.03-4.3-1.68-1.44-.65-2.77-1.44-3.96-2.38-1.2-.93-2.17-2.13-2.9-3.6s-1.1-3.27-1.1-5.43c0-2.68.64-4.98,1.92-6.89,1.28-1.91,3.08-3.37,5.4-4.36,2.32-1,4.94-1.49,7.87-1.49s5.82.53,8.3,1.59c2.48,1.06,4.53,2.48,6.16,4.27l-6.28,6.28c-1.3-1.34-2.61-2.34-3.93-2.99-1.32-.65-2.8-.98-4.42-.98s-2.99.32-3.97.95c-.97.63-1.46,1.54-1.46,2.71,0,1.06.37,1.92,1.1,2.59.73.67,1.7,1.25,2.9,1.74,1.2.49,2.52.98,3.96,1.46,1.44.49,2.89,1.05,4.33,1.68,1.44.63,2.75,1.46,3.93,2.47,1.18,1.02,2.14,2.28,2.9,3.78.75,1.5,1.13,3.4,1.13,5.67,0,4.11-1.46,7.33-4.39,9.67-2.93,2.34-6.99,3.51-12.2,3.51Z"/>
        <path class="cls-2" d="M1009.78,2644.83v-43.07h9.64v43.07h-9.64Z"/>
        <path class="cls-2" d="M1048.88,2645.57c-3.25,0-6.26-.57-9.03-1.71-2.77-1.14-5.19-2.72-7.26-4.76-2.07-2.03-3.68-4.4-4.82-7.11-1.14-2.7-1.71-5.62-1.71-8.75s.57-6.1,1.71-8.78c1.14-2.68,2.72-5.03,4.76-7.04,2.03-2.01,4.43-3.58,7.2-4.7,2.76-1.12,5.77-1.68,9.03-1.68s6.19.56,8.94,1.68c2.75,1.12,5.15,2.68,7.23,4.7,2.07,2.01,3.67,4.37,4.79,7.08,1.12,2.71,1.68,5.64,1.68,8.81s-.57,6.05-1.71,8.75c-1.14,2.7-2.72,5.06-4.76,7.08s-4.41,3.59-7.14,4.73-5.69,1.71-8.91,1.71ZM1048.76,2636.78c2.56,0,4.8-.57,6.71-1.71s3.41-2.72,4.48-4.76c1.08-2.03,1.62-4.39,1.62-7.08,0-1.99-.31-3.81-.92-5.46-.61-1.65-1.48-3.07-2.62-4.27-1.14-1.2-2.5-2.11-4.09-2.74s-3.32-.95-5.18-.95c-2.56,0-4.81.56-6.74,1.68-1.93,1.12-3.43,2.68-4.48,4.7-1.06,2.01-1.59,4.36-1.59,7.05,0,2.03.3,3.88.92,5.55s1.48,3.1,2.62,4.3c1.14,1.2,2.49,2.12,4.06,2.75,1.57.63,3.3.95,5.22.95Z"/>
        <path class="cls-2" d="M1078.04,2644.83v-43.07h6.77l2.87,8.6v34.46h-9.64ZM1107.75,2644.83l-25.31-32.51,2.38-10.55,25.38,32.51-2.44,10.55ZM1107.75,2644.83l-2.56-8.6v-34.46h9.7v43.07h-7.14Z"/>
        <path class="cls-2" d="M1135.87,2644.83v-43.07h9.64v43.07h-9.64Z"/>
        <path class="cls-2" d="M1154.35,2644.83v-43.07h6.95l16.96,26.41h-3.6l16.9-26.41h6.96v43.07h-9.58v-26.9l1.65.49-10.98,17.14h-6.34l-10.98-17.14,1.65-.49v26.9h-9.58Z"/>
        <path class="cls-2" d="M1207.3,2644.83v-43.07h9.64v43.07h-9.64ZM1214.68,2629.16v-7.5h9.27c1.18,0,2.25-.23,3.2-.7.96-.47,1.72-1.17,2.29-2.1s.85-2.05.85-3.36-.29-2.48-.85-3.42c-.57-.93-1.33-1.64-2.29-2.1-.96-.47-2.02-.7-3.2-.7h-9.27v-7.5h10.68c2.72,0,5.19.55,7.41,1.65,2.22,1.1,3.96,2.67,5.25,4.73,1.28,2.05,1.92,4.5,1.92,7.35s-.64,5.24-1.92,7.29c-1.28,2.05-3.03,3.63-5.25,4.73-2.22,1.1-4.69,1.65-7.41,1.65h-10.68Z"/>
        <path class="cls-2" d="M1239.69,2644.83l17.02-43.07h8.72l16.9,43.07h-10.19l-12.87-35.69h3.54l-13.18,35.69h-9.94ZM1249.45,2637.09v-7.81h23.42v7.81h-23.42Z"/>
        <path class="cls-2" d="M1287.94,2644.83v-43.07h9.64v43.07h-9.64Z"/>
        <path class="cls-2" d="M1306.42,2644.83v-43.07h9.64v43.07h-9.64ZM1313.8,2627.14v-7.2h9.09c1.87,0,3.33-.48,4.39-1.43,1.06-.96,1.59-2.25,1.59-3.87s-.52-2.83-1.56-3.84c-1.04-1.02-2.49-1.52-4.36-1.52h-9.15v-7.5h10.25c2.89,0,5.41.54,7.56,1.62,2.16,1.08,3.83,2.57,5.03,4.48,1.2,1.91,1.8,4.09,1.8,6.53,0,2.6-.61,4.85-1.83,6.74s-2.93,3.37-5.12,4.42c-2.2,1.06-4.78,1.59-7.75,1.59h-9.94ZM1329.85,2644.83l-13.42-18.54,8.84-2.44,15.98,20.98h-11.41Z"/>
        <path class="cls-2" d="M1345.95,2644.83v-43.07h6.95l16.96,26.41h-3.6l16.9-26.41h6.95v43.07h-9.58v-26.9l1.65.49-10.98,17.14h-6.34l-10.98-17.14,1.65-.49v26.9h-9.58Z"/>
        <path class="cls-2" d="M1398.9,2644.83v-43.07h9.64v43.07h-9.64ZM1406.28,2610.06v-8.3h23.3v8.3h-23.3ZM1406.28,2626.9v-8.11h21.47v8.11h-21.47ZM1406.28,2644.83v-8.3h23.67v8.3h-23.67Z"/>
        <path class="cls-2" d="M1437.02,2644.83v-43.07h6.77l2.87,8.6v34.46h-9.64ZM1466.73,2644.83l-25.32-32.51,2.38-10.55,25.38,32.51-2.44,10.55ZM1466.73,2644.83l-2.56-8.6v-34.46h9.7v43.07h-7.14Z"/>
        <path class="cls-2" d="M1479.72,2610.19v-8.42h36.6v8.42h-36.6ZM1493.2,2644.83v-42.52h9.7v42.52h-9.7Z"/>
        <path class="cls-2" d="M1538.22,2610.06c-1.02,0-1.85-.33-2.5-1.01-.65-.67-.98-1.51-.98-2.53s.33-1.8.98-2.47c.65-.67,1.48-1.01,2.5-1.01s1.85.33,2.5,1.01c.65.67.98,1.49.98,2.47s-.33,1.86-.98,2.53c-.65.67-1.48,1.01-2.5,1.01ZM1535.41,2644.83v-28.98h5.55v28.98h-5.55Z"/>
        <path class="cls-2" d="M1549.69,2644.83v-28.98h5.49v28.98h-5.49ZM1570.12,2644.83v-16.9c0-2.2-.68-4-2.04-5.43-1.36-1.42-3.14-2.13-5.34-2.13-1.46,0-2.77.33-3.9.98-1.14.65-2.03,1.55-2.68,2.68s-.98,2.44-.98,3.9l-2.26-1.28c0-2.2.49-4.15,1.46-5.86.98-1.71,2.34-3.06,4.09-4.06,1.75-1,3.72-1.5,5.92-1.5s4.14.55,5.83,1.65,3.02,2.53,4,4.3c.98,1.77,1.46,3.65,1.46,5.64v18h-5.55Z"/>
        <path class="cls-2" d="M1596.96,2644.83v-43.55h5.49v21.66l-1.04,7.01,1.04,7.08v7.81h-5.49ZM1612.21,2645.44c-2.2,0-4.18-.46-5.95-1.37-1.77-.91-3.18-2.19-4.24-3.81-1.06-1.62-1.65-3.48-1.77-5.55v-8.72c.12-2.11.72-3.97,1.8-5.58,1.08-1.61,2.5-2.87,4.27-3.78s3.73-1.37,5.89-1.37c2.64,0,5.03.67,7.17,2.01s3.81,3.15,5.03,5.43c1.22,2.28,1.83,4.84,1.83,7.69s-.61,5.41-1.83,7.69c-1.22,2.28-2.9,4.08-5.03,5.4-2.13,1.32-4.52,1.98-7.17,1.98ZM1611.3,2640.26c1.83,0,3.44-.43,4.82-1.28s2.47-2.02,3.26-3.51,1.19-3.2,1.19-5.16-.4-3.61-1.19-5.09-1.88-2.65-3.26-3.51c-1.38-.85-2.99-1.28-4.82-1.28s-3.38.43-4.76,1.28c-1.38.85-2.46,2.02-3.23,3.51s-1.16,3.2-1.16,5.15.38,3.61,1.13,5.09c.75,1.48,1.83,2.65,3.23,3.51,1.4.85,3,1.28,4.79,1.28Z"/>
        <path class="cls-2" d="M1646.25,2645.44c-2.81,0-5.35-.67-7.62-2.01-2.28-1.34-4.09-3.16-5.43-5.46-1.34-2.3-2.01-4.87-2.01-7.72s.67-5.34,2.01-7.59c1.34-2.26,3.15-4.06,5.43-5.4s4.82-2.01,7.62-2.01,5.42.66,7.72,1.98c2.3,1.32,4.12,3.12,5.46,5.4,1.34,2.28,2.01,4.82,2.01,7.62s-.67,5.42-2.01,7.72c-1.34,2.3-3.16,4.12-5.46,5.46-2.3,1.34-4.87,2.01-7.72,2.01ZM1646.25,2640.14c1.87,0,3.52-.43,4.94-1.28,1.42-.85,2.54-2.02,3.36-3.51.81-1.48,1.22-3.18,1.22-5.09s-.42-3.54-1.25-5c-.83-1.46-1.95-2.61-3.36-3.45-1.4-.83-3.04-1.25-4.91-1.25s-3.4.42-4.82,1.25c-1.42.83-2.54,1.98-3.36,3.45-.81,1.46-1.22,3.13-1.22,5s.41,3.61,1.22,5.09c.81,1.49,1.93,2.65,3.36,3.51,1.42.85,3.03,1.28,4.82,1.28Z"/>
        <path class="cls-2" d="M1665.46,2620.86v-5h19.76v5h-19.76ZM1672.6,2644.83v-41.11h5.49v41.11h-5.49Z"/>
        <path class="cls-2" d="M1691.21,2644.83v-43.55h5.49v43.55h-5.49ZM1711.64,2644.83v-16.9c0-2.2-.68-4-2.04-5.43s-3.14-2.13-5.34-2.13c-1.46,0-2.77.33-3.9.98-1.14.65-2.03,1.55-2.68,2.68-.65,1.14-.98,2.44-.98,3.9l-2.26-1.28c0-2.2.49-4.15,1.46-5.86.98-1.71,2.34-3.06,4.09-4.06,1.75-1,3.72-1.5,5.92-1.5s4.14.49,5.83,1.46c1.69.98,3.02,2.34,4,4.09.98,1.75,1.46,3.76,1.46,6.04v18h-5.55Z"/>
        <path class="cls-2" d="M1751.71,2645.44c-2.85,0-5.42-.67-7.72-2.01-2.3-1.34-4.11-3.16-5.43-5.46-1.32-2.3-1.98-4.85-1.98-7.66s.66-5.41,1.98-7.69c1.32-2.28,3.13-4.08,5.43-5.4,2.3-1.32,4.87-1.98,7.72-1.98,2.24,0,4.31.42,6.22,1.25,1.91.83,3.56,2.04,4.94,3.63l-3.66,3.66c-.9-1.06-1.99-1.86-3.29-2.41-1.3-.55-2.71-.82-4.21-.82-1.83,0-3.46.42-4.88,1.25-1.42.83-2.54,1.98-3.35,3.45-.81,1.46-1.22,3.15-1.22,5.06s.41,3.6,1.22,5.06c.81,1.46,1.93,2.62,3.35,3.48,1.42.85,3.05,1.28,4.88,1.28,1.54,0,2.96-.28,4.24-.82s2.39-1.35,3.32-2.41l3.6,3.66c-1.34,1.55-2.98,2.75-4.91,3.6-1.93.85-4.02,1.28-6.25,1.28Z"/>
        <path class="cls-2" d="M1768.92,2644.83v-43.55h5.49v43.55h-5.49ZM1789.35,2644.83v-16.9c0-2.2-.68-4-2.04-5.43-1.36-1.42-3.14-2.13-5.34-2.13-1.46,0-2.77.33-3.9.98-1.14.65-2.03,1.55-2.68,2.68s-.98,2.44-.98,3.9l-2.26-1.28c0-2.2.49-4.15,1.46-5.86.98-1.71,2.34-3.06,4.09-4.06,1.75-1,3.72-1.5,5.92-1.5s4.14.49,5.83,1.46c1.69.98,3.02,2.34,4,4.09.98,1.75,1.46,3.76,1.46,6.04v18h-5.55Z"/>
        <path class="cls-2" d="M1805.76,2610.06c-1.02,0-1.85-.33-2.5-1.01-.65-.67-.98-1.51-.98-2.53s.33-1.8.98-2.47c.65-.67,1.48-1.01,2.5-1.01s1.85.33,2.5,1.01c.65.67.98,1.49.98,2.47s-.33,1.86-.98,2.53c-.65.67-1.49,1.01-2.5,1.01ZM1802.95,2644.83v-28.98h5.55v28.98h-5.55Z"/>
        <path class="cls-2" d="M1817.23,2644.83v-43.55h5.49v43.55h-5.49Z"/>
        <path class="cls-2" d="M1843.58,2645.44c-2.64,0-5.02-.66-7.14-1.98-2.11-1.32-3.79-3.12-5.03-5.4-1.24-2.28-1.86-4.84-1.86-7.69s.62-5.41,1.86-7.69c1.24-2.28,2.92-4.09,5.03-5.43s4.49-2.01,7.14-2.01c2.2,0,4.17.46,5.92,1.37s3.16,2.18,4.24,3.78c1.08,1.61,1.68,3.47,1.8,5.58v8.72c-.12,2.07-.71,3.93-1.77,5.55-1.06,1.63-2.46,2.9-4.21,3.81-1.75.92-3.74,1.37-5.98,1.37ZM1844.49,2640.26c1.83,0,3.44-.43,4.82-1.28,1.38-.85,2.46-2.02,3.23-3.51.77-1.48,1.16-3.18,1.16-5.09s-.39-3.67-1.16-5.15c-.77-1.48-1.85-2.65-3.23-3.51-1.38-.85-2.99-1.28-4.82-1.28s-3.44.42-4.82,1.25c-1.38.83-2.47,1.99-3.26,3.48-.79,1.49-1.19,3.2-1.19,5.15s.4,3.68,1.19,5.18c.79,1.51,1.89,2.67,3.29,3.51,1.4.83,3,1.25,4.79,1.25ZM1858.89,2644.83h-5.55v-7.81l1.04-7.08-1.04-7.01v-21.66h5.55v43.55Z"/>
        <path class="cls-2" d="M1867.49,2644.83v-28.98h5.49v28.98h-5.49ZM1872.98,2628.36l-2.07-.98c0-3.7.85-6.65,2.56-8.84,1.71-2.2,4.17-3.29,7.38-3.29,1.46,0,2.79.25,3.96.76,1.18.51,2.28,1.35,3.29,2.53l-3.6,3.72c-.61-.65-1.28-1.12-2.01-1.4-.73-.28-1.59-.43-2.56-.43-2.03,0-3.7.65-5,1.95-1.3,1.3-1.95,3.29-1.95,5.98Z"/>
        <path class="cls-2" d="M1905.07,2645.44c-2.93,0-5.54-.66-7.84-1.98-2.3-1.32-4.12-3.12-5.46-5.4-1.34-2.28-2.01-4.86-2.01-7.75s.66-5.41,1.98-7.69c1.32-2.28,3.11-4.08,5.37-5.4,2.26-1.32,4.79-1.98,7.6-1.98,2.64,0,5,.61,7.08,1.83,2.07,1.22,3.69,2.91,4.85,5.06s1.74,4.62,1.74,7.38c0,.41-.02.84-.06,1.31-.04.47-.12.99-.24,1.56h-24.46v-4.58h21.53l-2.01,1.77c0-1.95-.35-3.61-1.04-4.97-.69-1.36-1.67-2.42-2.93-3.17-1.26-.75-2.79-1.13-4.58-1.13s-3.52.41-4.94,1.22c-1.42.81-2.52,1.95-3.29,3.42-.77,1.46-1.16,3.19-1.16,5.19s.41,3.81,1.22,5.34c.81,1.52,1.97,2.7,3.48,3.54,1.5.83,3.23,1.25,5.18,1.25,1.63,0,3.12-.28,4.48-.85,1.36-.57,2.53-1.42,3.51-2.56l3.54,3.6c-1.42,1.63-3.13,2.87-5.12,3.72-1.99.85-4.13,1.28-6.41,1.28Z"/>
        <path class="cls-2" d="M1924.95,2644.83v-28.98h5.49v28.98h-5.49ZM1945.39,2644.83v-16.9c0-2.2-.68-4-2.04-5.43-1.36-1.42-3.14-2.13-5.34-2.13-1.46,0-2.77.33-3.9.98-1.14.65-2.03,1.55-2.68,2.68s-.98,2.44-.98,3.9l-2.26-1.28c0-2.2.49-4.15,1.46-5.86.98-1.71,2.34-3.06,4.09-4.06,1.75-1,3.72-1.5,5.92-1.5s4.14.55,5.83,1.65,3.02,2.53,4,4.3c.98,1.77,1.46,3.65,1.46,5.64v18h-5.55Z"/>
        <path class="cls-2" d="M1984.55,2645.44c-2.68,0-5.09-.66-7.23-1.98-2.14-1.32-3.82-3.12-5.06-5.4s-1.86-4.84-1.86-7.69.62-5.41,1.86-7.69c1.24-2.28,2.93-4.09,5.06-5.43,2.13-1.34,4.54-2.01,7.23-2.01,2.2,0,4.16.46,5.89,1.37s3.12,2.18,4.18,3.78c1.06,1.61,1.65,3.47,1.77,5.58v8.72c-.12,2.07-.7,3.93-1.74,5.55-1.04,1.63-2.43,2.9-4.18,3.81-1.75.92-3.72,1.37-5.92,1.37ZM1985.46,2640.26c2.72,0,4.92-.92,6.59-2.78,1.67-1.85,2.5-4.22,2.5-7.11,0-1.95-.39-3.68-1.16-5.19-.77-1.5-1.84-2.67-3.2-3.51-1.36-.83-2.96-1.25-4.79-1.25s-3.45.43-4.85,1.28c-1.4.85-2.5,2.02-3.29,3.51s-1.19,3.18-1.19,5.09.4,3.67,1.19,5.16,1.9,2.65,3.32,3.51,3.05,1.28,4.88,1.28ZM1994.19,2644.83v-7.81l1.04-7.08-1.04-7.01v-7.08h5.55v28.98h-5.55Z"/>
        <path class="cls-2" d="M2008.34,2644.83v-28.98h5.49v28.98h-5.49ZM2028.77,2644.83v-16.9c0-2.2-.68-4-2.04-5.43-1.36-1.42-3.14-2.13-5.34-2.13-1.46,0-2.77.33-3.9.98-1.14.65-2.03,1.55-2.68,2.68-.65,1.14-.98,2.44-.98,3.9l-2.26-1.28c0-2.2.49-4.15,1.46-5.86.98-1.71,2.34-3.06,4.09-4.06,1.75-1,3.72-1.5,5.92-1.5s4.14.55,5.83,1.65,3.02,2.53,4,4.3c.98,1.77,1.46,3.65,1.46,5.64v18h-5.55Z"/>
        <path class="cls-2" d="M2054.57,2645.44c-2.64,0-5.02-.66-7.14-1.98-2.12-1.32-3.79-3.12-5.03-5.4s-1.86-4.84-1.86-7.69.62-5.41,1.86-7.69c1.24-2.28,2.92-4.09,5.03-5.43,2.11-1.34,4.49-2.01,7.14-2.01,2.2,0,4.17.46,5.92,1.37,1.75.92,3.16,2.18,4.24,3.78,1.08,1.61,1.68,3.47,1.8,5.58v8.72c-.12,2.07-.71,3.93-1.77,5.55-1.06,1.63-2.46,2.9-4.21,3.81-1.75.92-3.74,1.37-5.98,1.37ZM2055.49,2640.26c1.83,0,3.44-.43,4.82-1.28,1.38-.85,2.46-2.02,3.23-3.51.77-1.48,1.16-3.18,1.16-5.09s-.39-3.67-1.16-5.15c-.77-1.48-1.85-2.65-3.23-3.51-1.38-.85-2.99-1.28-4.82-1.28s-3.44.42-4.82,1.25c-1.38.83-2.47,1.99-3.26,3.48-.79,1.49-1.19,3.2-1.19,5.15s.4,3.68,1.19,5.18c.79,1.51,1.89,2.67,3.29,3.51,1.4.83,3,1.25,4.79,1.25ZM2069.88,2644.83h-5.55v-7.81l1.04-7.08-1.04-7.01v-21.66h5.55v43.55Z"/>
        <path class="cls-2" d="M2104.04,2645.44c-2.68,0-5.09-.66-7.23-1.98-2.13-1.32-3.82-3.12-5.06-5.4-1.24-2.28-1.86-4.84-1.86-7.69s.62-5.41,1.86-7.69c1.24-2.28,2.93-4.09,5.06-5.43s4.54-2.01,7.23-2.01c2.2,0,4.16.46,5.89,1.37,1.73.92,3.12,2.18,4.18,3.78,1.06,1.61,1.65,3.47,1.77,5.58v8.72c-.12,2.07-.7,3.93-1.74,5.55-1.04,1.63-2.43,2.9-4.18,3.81-1.75.92-3.72,1.37-5.92,1.37ZM2104.96,2640.26c2.72,0,4.92-.92,6.59-2.78,1.67-1.85,2.5-4.22,2.5-7.11,0-1.95-.39-3.68-1.16-5.19-.77-1.5-1.84-2.67-3.2-3.51-1.36-.83-2.96-1.25-4.79-1.25s-3.45.43-4.85,1.28c-1.4.85-2.5,2.02-3.29,3.51s-1.19,3.18-1.19,5.09.4,3.67,1.19,5.16,1.9,2.65,3.32,3.51c1.42.85,3.05,1.28,4.88,1.28ZM2113.68,2644.83v-7.81l1.04-7.08-1.04-7.01v-7.08h5.55v28.98h-5.55Z"/>
        <path class="cls-2" d="M2140.03,2645.44c-2.64,0-5.02-.66-7.14-1.98-2.12-1.32-3.79-3.12-5.03-5.4-1.24-2.28-1.86-4.84-1.86-7.69s.62-5.41,1.86-7.69c1.24-2.28,2.92-4.09,5.03-5.43,2.11-1.34,4.49-2.01,7.14-2.01,2.2,0,4.17.46,5.92,1.37,1.75.92,3.16,2.18,4.24,3.78,1.08,1.61,1.68,3.47,1.8,5.58v8.72c-.12,2.07-.71,3.93-1.77,5.55-1.06,1.63-2.46,2.9-4.21,3.81-1.75.92-3.74,1.37-5.98,1.37ZM2140.95,2640.26c1.83,0,3.44-.43,4.82-1.28,1.38-.85,2.46-2.02,3.23-3.51s1.16-3.18,1.16-5.09-.39-3.67-1.16-5.15-1.85-2.65-3.23-3.51c-1.38-.85-2.99-1.28-4.82-1.28s-3.44.42-4.82,1.25c-1.38.83-2.47,1.99-3.26,3.48-.79,1.49-1.19,3.2-1.19,5.15s.4,3.68,1.19,5.18c.79,1.51,1.89,2.67,3.29,3.51,1.4.83,3,1.25,4.79,1.25ZM2155.34,2644.83h-5.55v-7.81l1.04-7.08-1.04-7.01v-21.66h5.55v43.55Z"/>
        <path class="cls-2" d="M2175.65,2645.32c-2.4,0-4.54-.52-6.43-1.56-1.89-1.04-3.37-2.51-4.42-4.42-1.06-1.91-1.59-4.13-1.59-6.65v-16.84h5.49v16.59c0,1.59.27,2.96.82,4.12.55,1.16,1.35,2.04,2.41,2.65s2.3.92,3.72.92c2.16,0,3.84-.68,5.06-2.04,1.22-1.36,1.83-3.24,1.83-5.64v-16.59h5.49v16.84c0,2.52-.53,4.74-1.59,6.65-1.06,1.91-2.52,3.38-4.39,4.42-1.87,1.04-4.01,1.56-6.41,1.56Z"/>
        <path class="cls-2" d="M2196.03,2644.83v-43.55h5.49v43.55h-5.49Z"/>
        <path class="cls-2" d="M2207.5,2620.86v-5h19.76v5h-19.76ZM2214.63,2644.83v-41.11h5.49v41.11h-5.49Z"/>
        <path class="cls-2" d="M2241.84,2645.44c-1.63,0-3.17-.21-4.63-.64-1.46-.43-2.8-1.04-4-1.83-1.2-.79-2.25-1.74-3.14-2.84l3.54-3.54c1.06,1.3,2.28,2.27,3.66,2.9,1.38.63,2.93.95,4.64.95s3.03-.29,3.97-.88c.93-.59,1.4-1.41,1.4-2.47s-.38-1.88-1.13-2.47c-.75-.59-1.72-1.08-2.9-1.46-1.18-.39-2.43-.76-3.75-1.13-1.32-.37-2.57-.85-3.75-1.46s-2.14-1.45-2.9-2.53c-.75-1.08-1.13-2.49-1.13-4.24s.42-3.26,1.25-4.54c.83-1.28,2.02-2.27,3.57-2.96,1.54-.69,3.4-1.04,5.55-1.04,2.28,0,4.3.4,6.07,1.19,1.77.79,3.22,1.98,4.36,3.57l-3.54,3.54c-.85-1.06-1.87-1.87-3.05-2.44-1.18-.57-2.52-.85-4.03-.85-1.59,0-2.8.29-3.63.85s-1.25,1.32-1.25,2.26.37,1.73,1.1,2.26c.73.53,1.7.98,2.9,1.34,1.2.37,2.45.74,3.75,1.13,1.3.39,2.54.91,3.72,1.56,1.18.65,2.14,1.53,2.9,2.62s1.13,2.54,1.13,4.33c0,2.72-.97,4.88-2.9,6.47-1.93,1.59-4.52,2.38-7.78,2.38Z"/>
        <path class="cls-2" d="M2259.59,2651.54l3.78-7.26,1.95-.49c-.2.45-.47.81-.79,1.1s-.69.43-1.1.43c-.85,0-1.64-.36-2.35-1.07-.71-.71-1.07-1.6-1.07-2.65,0-1.18.39-2.17,1.16-2.96s1.75-1.19,2.93-1.19c1.06,0,1.99.4,2.8,1.19s1.22,1.78,1.22,2.96c0,.45-.09.99-.27,1.62-.18.63-.54,1.46-1.07,2.47l-4.09,7.56-3.11-1.71Z"/>
        <path class="cls-2" d="M2303.14,2645.44c-2.85,0-5.42-.67-7.72-2.01-2.3-1.34-4.11-3.16-5.43-5.46-1.32-2.3-1.98-4.85-1.98-7.66s.66-5.41,1.98-7.69c1.32-2.28,3.13-4.08,5.43-5.4,2.3-1.32,4.87-1.98,7.72-1.98,2.24,0,4.31.42,6.22,1.25,1.91.83,3.56,2.04,4.94,3.63l-3.66,3.66c-.9-1.06-1.99-1.86-3.29-2.41-1.3-.55-2.71-.82-4.21-.82-1.83,0-3.46.42-4.88,1.25-1.42.83-2.54,1.98-3.35,3.45-.81,1.46-1.22,3.15-1.22,5.06s.41,3.6,1.22,5.06c.81,1.46,1.93,2.62,3.35,3.48,1.42.85,3.05,1.28,4.88,1.28,1.54,0,2.96-.28,4.24-.82s2.39-1.35,3.32-2.41l3.6,3.66c-1.34,1.55-2.98,2.75-4.91,3.6-1.93.85-4.02,1.28-6.25,1.28Z"/>
        <path class="cls-2" d="M2333.52,2645.44c-2.81,0-5.35-.67-7.62-2.01-2.28-1.34-4.09-3.16-5.43-5.46-1.34-2.3-2.01-4.87-2.01-7.72s.67-5.34,2.01-7.59c1.34-2.26,3.15-4.06,5.43-5.4,2.28-1.34,4.82-2.01,7.62-2.01s5.42.66,7.72,1.98c2.3,1.32,4.12,3.12,5.46,5.4,1.34,2.28,2.01,4.82,2.01,7.62s-.67,5.42-2.01,7.72c-1.34,2.3-3.16,4.12-5.46,5.46-2.3,1.34-4.87,2.01-7.72,2.01ZM2333.52,2640.14c1.87,0,3.52-.43,4.94-1.28,1.42-.85,2.54-2.02,3.35-3.51.81-1.48,1.22-3.18,1.22-5.09s-.42-3.54-1.25-5c-.83-1.46-1.95-2.61-3.36-3.45-1.4-.83-3.04-1.25-4.91-1.25s-3.4.42-4.82,1.25c-1.42.83-2.54,1.98-3.35,3.45-.81,1.46-1.22,3.13-1.22,5s.41,3.61,1.22,5.09c.81,1.49,1.93,2.65,3.35,3.51,1.42.85,3.03,1.28,4.82,1.28Z"/>
        <path class="cls-2" d="M2355.42,2644.83v-28.98h5.49v28.98h-5.49ZM2375.85,2644.83v-16.9c0-2.2-.68-4-2.04-5.43s-3.14-2.13-5.34-2.13c-1.46,0-2.77.33-3.9.98-1.14.65-2.03,1.55-2.68,2.68-.65,1.14-.98,2.44-.98,3.9l-2.26-1.28c0-2.2.49-4.15,1.46-5.86.98-1.71,2.34-3.06,4.09-4.06,1.75-1,3.72-1.5,5.92-1.5s4.14.55,5.83,1.65c1.69,1.1,3.02,2.53,4,4.3.98,1.77,1.46,3.65,1.46,5.64v18h-5.55Z"/>
        <path class="cls-2" d="M2386.77,2620.86v-5h19.76v5h-19.76ZM2393.91,2644.83v-41.11h5.49v41.11h-5.49Z"/>
        <path class="cls-2" d="M2412.51,2644.83v-28.98h5.49v28.98h-5.49ZM2418,2628.36l-2.07-.98c0-3.7.85-6.65,2.56-8.84,1.71-2.2,4.17-3.29,7.38-3.29,1.46,0,2.79.25,3.97.76,1.18.51,2.28,1.35,3.29,2.53l-3.6,3.72c-.61-.65-1.28-1.12-2.01-1.4-.73-.28-1.59-.43-2.56-.43-2.03,0-3.7.65-5,1.95s-1.95,3.29-1.95,5.98Z"/>
        <path class="cls-2" d="M2440.39,2610.06c-1.02,0-1.85-.33-2.5-1.01-.65-.67-.98-1.51-.98-2.53s.33-1.8.98-2.47c.65-.67,1.48-1.01,2.5-1.01s1.85.33,2.5,1.01c.65.67.98,1.49.98,2.47s-.33,1.86-.98,2.53c-.65.67-1.48,1.01-2.5,1.01ZM2437.58,2644.83v-28.98h5.55v28.98h-5.55Z"/>
        <path class="cls-2" d="M2451.86,2644.83v-43.55h5.49v21.66l-1.04,7.01,1.04,7.08v7.81h-5.49ZM2467.11,2645.44c-2.2,0-4.18-.46-5.95-1.37-1.77-.91-3.18-2.19-4.24-3.81-1.06-1.62-1.65-3.48-1.77-5.55v-8.72c.12-2.11.72-3.97,1.8-5.58,1.08-1.61,2.5-2.87,4.27-3.78s3.73-1.37,5.89-1.37c2.64,0,5.03.67,7.17,2.01s3.81,3.15,5.03,5.43c1.22,2.28,1.83,4.84,1.83,7.69s-.61,5.41-1.83,7.69c-1.22,2.28-2.9,4.08-5.03,5.4-2.13,1.32-4.52,1.98-7.17,1.98ZM2466.19,2640.26c1.83,0,3.44-.43,4.82-1.28s2.47-2.02,3.26-3.51,1.19-3.2,1.19-5.16-.4-3.61-1.19-5.09-1.88-2.65-3.26-3.51c-1.38-.85-2.99-1.28-4.82-1.28s-3.38.43-4.76,1.28c-1.38.85-2.46,2.02-3.23,3.51s-1.16,3.2-1.16,5.15.38,3.61,1.13,5.09c.75,1.48,1.83,2.65,3.23,3.51,1.4.85,3,1.28,4.79,1.28Z"/>
        <path class="cls-2" d="M2499.68,2645.32c-2.4,0-4.54-.52-6.43-1.56-1.89-1.04-3.37-2.51-4.42-4.42-1.06-1.91-1.59-4.13-1.59-6.65v-16.84h5.49v16.59c0,1.59.28,2.96.82,4.12.55,1.16,1.35,2.04,2.41,2.65s2.3.92,3.72.92c2.16,0,3.84-.68,5.06-2.04,1.22-1.36,1.83-3.24,1.83-5.64v-16.59h5.49v16.84c0,2.52-.53,4.74-1.59,6.65-1.06,1.91-2.52,3.38-4.39,4.42-1.87,1.04-4.01,1.56-6.41,1.56Z"/>
        <path class="cls-2" d="M2517.37,2620.86v-5h19.76v5h-19.76ZM2524.51,2644.83v-41.11h5.49v41.11h-5.49Z"/>
        <path class="cls-2" d="M2545.92,2610.06c-1.02,0-1.85-.33-2.5-1.01-.65-.67-.98-1.51-.98-2.53s.33-1.8.98-2.47c.65-.67,1.48-1.01,2.5-1.01s1.85.33,2.5,1.01c.65.67.98,1.49.98,2.47s-.33,1.86-.98,2.53c-.65.67-1.49,1.01-2.5,1.01ZM2543.11,2644.83v-28.98h5.55v28.98h-5.55Z"/>
        <path class="cls-2" d="M2557.39,2644.83v-28.98h5.49v28.98h-5.49ZM2577.82,2644.83v-16.9c0-2.2-.68-4-2.04-5.43s-3.14-2.13-5.34-2.13c-1.46,0-2.77.33-3.9.98-1.14.65-2.03,1.55-2.68,2.68-.65,1.14-.98,2.44-.98,3.9l-2.26-1.28c0-2.2.49-4.15,1.46-5.86.98-1.71,2.34-3.06,4.09-4.06,1.75-1,3.72-1.5,5.92-1.5s4.14.55,5.83,1.65c1.69,1.1,3.02,2.53,4,4.3.98,1.77,1.46,3.65,1.46,5.64v18h-5.55Z"/>
        <path class="cls-2" d="M2603.44,2644.35c-2.64,0-5.01-.63-7.11-1.89-2.09-1.26-3.75-3-4.97-5.22-1.22-2.21-1.83-4.71-1.83-7.47s.6-5.24,1.8-7.41,2.86-3.9,4.97-5.19,4.47-1.92,7.08-1.92c2.28,0,4.3.45,6.07,1.34,1.77.9,3.16,2.15,4.18,3.75,1.02,1.61,1.59,3.49,1.71,5.64v7.69c-.12,2.12-.7,3.98-1.74,5.58-1.04,1.61-2.43,2.86-4.18,3.75-1.75.89-3.74,1.34-5.98,1.34ZM2603.44,2657.58c-3.01,0-5.65-.55-7.93-1.65-2.28-1.1-4.13-2.64-5.55-4.64l3.6-3.6c1.18,1.5,2.58,2.65,4.21,3.45s3.56,1.19,5.79,1.19c2.93,0,5.27-.78,7.02-2.35,1.75-1.57,2.62-3.67,2.62-6.31v-7.2l.98-6.53-.98-6.47v-7.62h5.49v27.82c0,2.77-.64,5.2-1.92,7.29s-3.07,3.72-5.37,4.88c-2.3,1.16-4.95,1.74-7.96,1.74ZM2604.48,2639.16c1.83,0,3.42-.39,4.76-1.16s2.39-1.86,3.14-3.26c.75-1.4,1.13-3.04,1.13-4.91s-.38-3.51-1.13-4.91-1.81-2.5-3.17-3.29c-1.36-.79-2.94-1.19-4.73-1.19s-3.44.4-4.82,1.19c-1.38.79-2.47,1.89-3.26,3.29s-1.19,3.02-1.19,4.85.4,3.46,1.19,4.88c.79,1.42,1.89,2.53,3.29,3.32s3,1.19,4.79,1.19Z"/>
        <path class="cls-2" d="M1015.51,2725.44c-2.64,0-5.02-.66-7.14-1.98-2.11-1.32-3.79-3.12-5.03-5.4-1.24-2.28-1.86-4.84-1.86-7.69s.62-5.41,1.86-7.69c1.24-2.28,2.92-4.09,5.03-5.43,2.12-1.34,4.49-2.01,7.14-2.01,2.2,0,4.17.46,5.92,1.37,1.75.92,3.16,2.18,4.24,3.78,1.08,1.61,1.68,3.47,1.8,5.58v8.72c-.12,2.07-.71,3.93-1.77,5.55-1.06,1.63-2.46,2.9-4.21,3.81-1.75.92-3.74,1.37-5.98,1.37ZM1016.43,2720.26c1.83,0,3.44-.43,4.82-1.28s2.46-2.02,3.23-3.51,1.16-3.18,1.16-5.09-.39-3.67-1.16-5.15-1.85-2.65-3.23-3.51c-1.38-.85-2.99-1.28-4.82-1.28s-3.44.42-4.82,1.25c-1.38.83-2.47,1.99-3.26,3.48-.79,1.49-1.19,3.2-1.19,5.15s.4,3.68,1.19,5.18c.79,1.51,1.89,2.67,3.29,3.51,1.4.83,3,1.25,4.79,1.25ZM1030.82,2724.83h-5.55v-7.81l1.04-7.08-1.04-7.01v-21.66h5.55v43.55Z"/>
        <path class="cls-2" d="M1042.23,2690.06c-1.02,0-1.85-.33-2.5-1.01-.65-.67-.98-1.51-.98-2.53s.33-1.8.98-2.47c.65-.67,1.48-1.01,2.5-1.01s1.85.33,2.5,1.01c.65.67.98,1.49.98,2.47s-.33,1.86-.98,2.53c-.65.67-1.48,1.01-2.5,1.01ZM1039.42,2724.83v-28.98h5.55v28.98h-5.55Z"/>
        <path class="cls-2" d="M1053.7,2724.83v-28.98h5.49v28.98h-5.49ZM1059.19,2708.36l-2.07-.98c0-3.7.85-6.65,2.56-8.84,1.71-2.2,4.17-3.29,7.38-3.29,1.46,0,2.79.25,3.96.76,1.18.51,2.28,1.35,3.29,2.53l-3.6,3.72c-.61-.65-1.28-1.12-2.01-1.4-.73-.28-1.59-.43-2.56-.43-2.04,0-3.7.65-5,1.95-1.3,1.3-1.95,3.29-1.95,5.98Z"/>
        <path class="cls-2" d="M1091.27,2725.44c-2.93,0-5.54-.66-7.84-1.98-2.3-1.32-4.12-3.12-5.46-5.4s-2.01-4.86-2.01-7.75.66-5.41,1.98-7.69c1.32-2.28,3.11-4.08,5.37-5.4,2.26-1.32,4.79-1.98,7.59-1.98,2.64,0,5,.61,7.08,1.83,2.07,1.22,3.69,2.91,4.85,5.06,1.16,2.16,1.74,4.62,1.74,7.38,0,.41-.02.84-.06,1.31-.04.47-.12.99-.24,1.56h-24.46v-4.58h21.53l-2.01,1.77c0-1.95-.35-3.61-1.04-4.97-.69-1.36-1.67-2.42-2.93-3.17-1.26-.75-2.79-1.13-4.58-1.13s-3.52.41-4.94,1.22c-1.42.81-2.52,1.95-3.29,3.42-.77,1.46-1.16,3.19-1.16,5.19s.41,3.81,1.22,5.34c.81,1.52,1.97,2.7,3.48,3.54,1.5.83,3.23,1.25,5.18,1.25,1.63,0,3.12-.28,4.48-.85,1.36-.57,2.53-1.42,3.51-2.56l3.54,3.6c-1.42,1.63-3.13,2.87-5.12,3.72-1.99.85-4.13,1.28-6.41,1.28Z"/>
        <path class="cls-2" d="M1124.39,2725.44c-2.85,0-5.42-.67-7.72-2.01-2.3-1.34-4.11-3.16-5.43-5.46-1.32-2.3-1.98-4.85-1.98-7.66s.66-5.41,1.98-7.69c1.32-2.28,3.13-4.08,5.43-5.4,2.3-1.32,4.87-1.98,7.72-1.98,2.24,0,4.31.42,6.22,1.25,1.91.83,3.56,2.04,4.94,3.63l-3.66,3.66c-.9-1.06-1.99-1.86-3.29-2.41-1.3-.55-2.71-.82-4.21-.82-1.83,0-3.46.42-4.88,1.25-1.42.83-2.54,1.98-3.35,3.45-.81,1.46-1.22,3.15-1.22,5.06s.41,3.6,1.22,5.06c.81,1.46,1.93,2.62,3.35,3.48,1.42.85,3.05,1.28,4.88,1.28,1.54,0,2.96-.28,4.24-.82s2.39-1.35,3.32-2.41l3.6,3.66c-1.34,1.55-2.98,2.75-4.91,3.6-1.93.85-4.02,1.28-6.25,1.28Z"/>
        <path class="cls-2" d="M1138.91,2700.86v-5h19.76v5h-19.76ZM1146.05,2724.83v-41.11h5.49v41.11h-5.49Z"/>
        <path class="cls-2" d="M1164.65,2724.83v-43.55h5.49v43.55h-5.49Z"/>
        <path class="cls-2" d="M1188.32,2725.08l-12.57-29.22h6.1l9.33,22.88h-1.95l9.82-22.88h6.1l-13.54,29.22h-3.29ZM1180.03,2736.97l8.48-17.51,3.11,5.61-5.49,11.89h-6.1Z"/>
        <path class="cls-2" d="M1221.32,2700.86v-5h19.76v5h-19.76ZM1228.46,2724.83v-41.11h5.49v41.11h-5.49Z"/>
        <path class="cls-2" d="M1260.24,2725.44c-2.81,0-5.35-.67-7.62-2.01-2.28-1.34-4.09-3.16-5.43-5.46-1.34-2.3-2.01-4.87-2.01-7.72s.67-5.34,2.01-7.59c1.34-2.26,3.15-4.06,5.43-5.4,2.28-1.34,4.82-2.01,7.62-2.01s5.42.66,7.72,1.98c2.3,1.32,4.12,3.12,5.46,5.4,1.34,2.28,2.01,4.82,2.01,7.62s-.67,5.42-2.01,7.72c-1.34,2.3-3.16,4.12-5.46,5.46-2.3,1.34-4.87,2.01-7.72,2.01ZM1260.24,2720.14c1.87,0,3.52-.43,4.94-1.28s2.54-2.02,3.36-3.51c.81-1.48,1.22-3.18,1.22-5.09s-.42-3.54-1.25-5c-.83-1.46-1.95-2.61-3.35-3.45s-3.04-1.25-4.91-1.25-3.4.42-4.82,1.25-2.54,1.98-3.36,3.45c-.81,1.46-1.22,3.13-1.22,5s.41,3.61,1.22,5.09c.81,1.49,1.93,2.65,3.36,3.51s3.03,1.28,4.82,1.28Z"/>
        <path class="cls-2" d="M1295.37,2724.83v-28.98h5.49v28.98h-5.49ZM1300.86,2708.36l-2.07-.98c0-3.7.85-6.65,2.56-8.84,1.71-2.2,4.17-3.29,7.38-3.29,1.46,0,2.79.25,3.96.76,1.18.51,2.28,1.35,3.29,2.53l-3.6,3.72c-.61-.65-1.28-1.12-2.01-1.4-.73-.28-1.59-.43-2.56-.43-2.03,0-3.7.65-5,1.95-1.3,1.3-1.95,3.29-1.95,5.98Z"/>
        <path class="cls-2" d="M1332.95,2725.44c-2.93,0-5.54-.66-7.84-1.98-2.3-1.32-4.12-3.12-5.46-5.4-1.34-2.28-2.01-4.86-2.01-7.75s.66-5.41,1.98-7.69c1.32-2.28,3.11-4.08,5.37-5.4,2.26-1.32,4.79-1.98,7.6-1.98,2.64,0,5,.61,7.08,1.83,2.07,1.22,3.69,2.91,4.85,5.06s1.74,4.62,1.74,7.38c0,.41-.02.84-.06,1.31-.04.47-.12.99-.24,1.56h-24.46v-4.58h21.53l-2.01,1.77c0-1.95-.35-3.61-1.04-4.97-.69-1.36-1.67-2.42-2.93-3.17-1.26-.75-2.79-1.13-4.58-1.13s-3.52.41-4.94,1.22c-1.42.81-2.52,1.95-3.29,3.42-.77,1.46-1.16,3.19-1.16,5.19s.41,3.81,1.22,5.34c.81,1.52,1.97,2.7,3.48,3.54,1.5.83,3.23,1.25,5.18,1.25,1.63,0,3.12-.28,4.48-.85,1.36-.57,2.53-1.42,3.51-2.56l3.54,3.6c-1.42,1.63-3.13,2.87-5.12,3.72-1.99.85-4.13,1.28-6.41,1.28Z"/>
        <path class="cls-2" d="M1365.04,2725.44c-2.64,0-5.02-.66-7.14-1.98-2.12-1.32-3.79-3.12-5.03-5.4s-1.86-4.84-1.86-7.69.62-5.41,1.86-7.69c1.24-2.28,2.92-4.09,5.03-5.43,2.11-1.34,4.49-2.01,7.14-2.01,2.2,0,4.17.46,5.92,1.37,1.75.92,3.16,2.18,4.24,3.78,1.08,1.61,1.68,3.47,1.8,5.58v8.72c-.12,2.07-.71,3.93-1.77,5.55-1.06,1.63-2.46,2.9-4.21,3.81-1.75.92-3.74,1.37-5.98,1.37ZM1365.95,2720.26c1.83,0,3.44-.43,4.82-1.28,1.38-.85,2.46-2.02,3.23-3.51.77-1.48,1.16-3.18,1.16-5.09s-.39-3.67-1.16-5.15c-.77-1.48-1.85-2.65-3.23-3.51-1.38-.85-2.99-1.28-4.82-1.28s-3.44.42-4.82,1.25c-1.38.83-2.47,1.99-3.26,3.48-.79,1.49-1.19,3.2-1.19,5.15s.4,3.68,1.19,5.18c.79,1.51,1.89,2.67,3.29,3.51,1.4.83,3,1.25,4.79,1.25ZM1380.35,2724.83h-5.55v-7.81l1.04-7.08-1.04-7.01v-21.66h5.55v43.55Z"/>
        <path class="cls-2" d="M1400.66,2725.32c-2.4,0-4.54-.52-6.44-1.56s-3.37-2.51-4.42-4.42c-1.06-1.91-1.59-4.13-1.59-6.65v-16.84h5.49v16.59c0,1.59.27,2.96.82,4.12.55,1.16,1.35,2.04,2.41,2.65,1.06.61,2.3.92,3.72.92,2.15,0,3.84-.68,5.06-2.04,1.22-1.36,1.83-3.24,1.83-5.64v-16.59h5.49v16.84c0,2.52-.53,4.74-1.59,6.65-1.06,1.91-2.52,3.38-4.39,4.42s-4.01,1.56-6.4,1.56Z"/>
        <path class="cls-2" d="M1434.27,2725.44c-2.85,0-5.42-.67-7.72-2.01-2.3-1.34-4.11-3.16-5.43-5.46-1.32-2.3-1.98-4.85-1.98-7.66s.66-5.41,1.98-7.69c1.32-2.28,3.13-4.08,5.43-5.4,2.3-1.32,4.87-1.98,7.72-1.98,2.24,0,4.31.42,6.22,1.25,1.91.83,3.56,2.04,4.94,3.63l-3.66,3.66c-.89-1.06-1.99-1.86-3.29-2.41-1.3-.55-2.71-.82-4.21-.82-1.83,0-3.46.42-4.88,1.25-1.42.83-2.54,1.98-3.36,3.45-.81,1.46-1.22,3.15-1.22,5.06s.41,3.6,1.22,5.06c.81,1.46,1.93,2.62,3.36,3.48,1.42.85,3.05,1.28,4.88,1.28,1.54,0,2.96-.28,4.24-.82s2.39-1.35,3.32-2.41l3.6,3.66c-1.34,1.55-2.98,2.75-4.91,3.6-1.93.85-4.02,1.28-6.25,1.28Z"/>
        <path class="cls-2" d="M1464.89,2725.44c-2.93,0-5.54-.66-7.84-1.98-2.3-1.32-4.12-3.12-5.46-5.4-1.34-2.28-2.01-4.86-2.01-7.75s.66-5.41,1.98-7.69c1.32-2.28,3.11-4.08,5.37-5.4,2.26-1.32,4.79-1.98,7.6-1.98,2.64,0,5,.61,7.08,1.83,2.07,1.22,3.69,2.91,4.85,5.06s1.74,4.62,1.74,7.38c0,.41-.02.84-.06,1.31-.04.47-.12.99-.24,1.56h-24.46v-4.58h21.53l-2.01,1.77c0-1.95-.35-3.61-1.04-4.97-.69-1.36-1.67-2.42-2.93-3.17-1.26-.75-2.79-1.13-4.58-1.13s-3.52.41-4.94,1.22c-1.42.81-2.52,1.95-3.29,3.42-.77,1.46-1.16,3.19-1.16,5.19s.41,3.81,1.22,5.34c.81,1.52,1.97,2.7,3.48,3.54,1.5.83,3.23,1.25,5.18,1.25,1.63,0,3.12-.28,4.48-.85,1.36-.57,2.53-1.42,3.51-2.56l3.54,3.6c-1.42,1.63-3.13,2.87-5.12,3.72-1.99.85-4.13,1.28-6.41,1.28Z"/>
        <path class="cls-2" d="M1496.98,2725.44c-2.64,0-5.02-.66-7.14-1.98-2.12-1.32-3.79-3.12-5.03-5.4s-1.86-4.84-1.86-7.69.62-5.41,1.86-7.69c1.24-2.28,2.92-4.09,5.03-5.43,2.11-1.34,4.49-2.01,7.14-2.01,2.2,0,4.17.46,5.92,1.37,1.75.92,3.16,2.18,4.24,3.78,1.08,1.61,1.68,3.47,1.8,5.58v8.72c-.12,2.07-.71,3.93-1.77,5.55-1.06,1.63-2.46,2.9-4.21,3.81-1.75.92-3.74,1.37-5.98,1.37ZM1497.89,2720.26c1.83,0,3.44-.43,4.82-1.28,1.38-.85,2.46-2.02,3.23-3.51.77-1.48,1.16-3.18,1.16-5.09s-.39-3.67-1.16-5.15c-.77-1.48-1.85-2.65-3.23-3.51-1.38-.85-2.99-1.28-4.82-1.28s-3.44.42-4.82,1.25c-1.38.83-2.47,1.99-3.26,3.48-.79,1.49-1.19,3.2-1.19,5.15s.4,3.68,1.19,5.18c.79,1.51,1.89,2.67,3.29,3.51,1.4.83,3,1.25,4.79,1.25ZM1512.29,2724.83h-5.55v-7.81l1.04-7.08-1.04-7.01v-21.66h5.55v43.55Z"/>
        <path class="cls-2" d="M1544.98,2724.83l-13.91-43.07h9.58l10.13,33.12h-3.72l9.82-33.12h7.56l9.88,33.12h-3.72l10.13-33.12h9.52l-13.91,43.07h-7.5l-10-33.06h3.6l-9.94,33.06h-7.5Z"/>
        <path class="cls-2" d="M1614.95,2725.57c-3.25,0-6.26-.57-9.03-1.71-2.77-1.14-5.19-2.72-7.26-4.76-2.07-2.03-3.68-4.4-4.82-7.11-1.14-2.7-1.71-5.62-1.71-8.75s.57-6.1,1.71-8.78c1.14-2.68,2.72-5.03,4.76-7.04,2.03-2.01,4.43-3.58,7.2-4.7,2.76-1.12,5.77-1.68,9.03-1.68s6.19.56,8.94,1.68c2.75,1.12,5.15,2.68,7.23,4.7,2.07,2.01,3.67,4.37,4.79,7.08,1.12,2.71,1.68,5.64,1.68,8.81s-.57,6.05-1.71,8.75c-1.14,2.7-2.72,5.06-4.76,7.08s-4.41,3.59-7.14,4.73-5.69,1.71-8.91,1.71ZM1614.83,2716.78c2.56,0,4.8-.57,6.71-1.71s3.41-2.72,4.48-4.76c1.08-2.03,1.62-4.39,1.62-7.08,0-1.99-.31-3.81-.92-5.46-.61-1.65-1.48-3.07-2.62-4.27-1.14-1.2-2.5-2.11-4.09-2.74s-3.32-.95-5.18-.95c-2.56,0-4.81.56-6.74,1.68-1.93,1.12-3.43,2.68-4.48,4.7-1.06,2.01-1.59,4.36-1.59,7.05,0,2.03.3,3.88.92,5.55s1.48,3.1,2.62,4.3c1.14,1.2,2.49,2.12,4.06,2.75,1.57.63,3.3.95,5.22.95Z"/>
        <path class="cls-2" d="M1644.11,2724.83v-43.07h9.64v43.07h-9.64ZM1651.49,2707.14v-7.2h9.09c1.87,0,3.33-.48,4.39-1.43,1.06-.96,1.59-2.25,1.59-3.87s-.52-2.83-1.56-3.84c-1.04-1.02-2.49-1.52-4.36-1.52h-9.15v-7.5h10.25c2.89,0,5.41.54,7.56,1.62,2.16,1.08,3.83,2.57,5.03,4.48,1.2,1.91,1.8,4.09,1.8,6.53,0,2.6-.61,4.85-1.83,6.74-1.22,1.89-2.93,3.37-5.12,4.42-2.2,1.06-4.78,1.59-7.75,1.59h-9.94ZM1667.53,2724.83l-13.42-18.54,8.85-2.44,15.98,20.98h-11.41Z"/>
        <path class="cls-2" d="M1683.64,2724.83v-43.07h9.64v43.07h-9.64ZM1709.68,2724.83l-17.38-22.51,16.84-20.56h11.9l-19.03,22.39v-3.9l19.7,24.58h-12.02Z"/>
        <path class="cls-2" d="M1726.15,2724.83v-43.07h9.64v43.07h-9.64ZM1733.53,2690.06v-8.3h22.57v8.3h-22.57ZM1733.53,2708v-8.36h21.59v8.36h-21.59Z"/>
        <path class="cls-2" d="M1782.88,2725.57c-3.25,0-6.26-.57-9.03-1.71s-5.18-2.72-7.26-4.76-3.68-4.4-4.82-7.11c-1.14-2.7-1.71-5.62-1.71-8.75s.57-6.1,1.71-8.78c1.14-2.68,2.72-5.03,4.76-7.04,2.03-2.01,4.43-3.58,7.2-4.7,2.76-1.12,5.77-1.68,9.03-1.68s6.19.56,8.94,1.68c2.74,1.12,5.15,2.68,7.23,4.7,2.07,2.01,3.67,4.37,4.79,7.08,1.12,2.71,1.68,5.64,1.68,8.81s-.57,6.05-1.71,8.75c-1.14,2.7-2.72,5.06-4.76,7.08-2.04,2.01-4.41,3.59-7.14,4.73-2.72,1.14-5.69,1.71-8.91,1.71ZM1782.76,2716.78c2.56,0,4.8-.57,6.71-1.71,1.91-1.14,3.41-2.72,4.48-4.76,1.08-2.03,1.62-4.39,1.62-7.08,0-1.99-.3-3.81-.92-5.46-.61-1.65-1.49-3.07-2.62-4.27-1.14-1.2-2.5-2.11-4.09-2.74s-3.31-.95-5.19-.95c-2.56,0-4.81.56-6.74,1.68s-3.43,2.68-4.48,4.7c-1.06,2.01-1.59,4.36-1.59,7.05,0,2.03.31,3.88.92,5.55s1.48,3.1,2.62,4.3c1.14,1.2,2.49,2.12,4.06,2.75,1.56.63,3.3.95,5.21.95Z"/>
        <path class="cls-2" d="M1812.04,2724.83v-43.07h9.64v43.07h-9.64ZM1819.42,2707.14v-7.2h9.09c1.87,0,3.33-.48,4.39-1.43,1.06-.96,1.59-2.25,1.59-3.87s-.52-2.83-1.55-3.84c-1.04-1.02-2.49-1.52-4.36-1.52h-9.15v-7.5h10.25c2.89,0,5.41.54,7.56,1.62,2.16,1.08,3.83,2.57,5.03,4.48,1.2,1.91,1.8,4.09,1.8,6.53,0,2.6-.61,4.85-1.83,6.74-1.22,1.89-2.93,3.37-5.12,4.42-2.2,1.06-4.78,1.59-7.75,1.59h-9.94ZM1835.46,2724.83l-13.42-18.54,8.84-2.44,15.98,20.98h-11.41Z"/>
        <path class="cls-2" d="M1871.82,2725.5c-3.21,0-6.19-.56-8.94-1.68s-5.15-2.69-7.2-4.73c-2.05-2.03-3.65-4.4-4.79-7.11-1.14-2.7-1.71-5.62-1.71-8.75s.57-6.05,1.71-8.75c1.14-2.71,2.73-5.05,4.79-7.05,2.05-1.99,4.44-3.55,7.17-4.67,2.72-1.12,5.71-1.68,8.97-1.68,3.42,0,6.46.55,9.12,1.65,2.66,1.1,4.99,2.6,6.98,4.51l-6.46,6.53c-1.1-1.22-2.45-2.18-4.06-2.87-1.61-.69-3.47-1.04-5.58-1.04-1.87,0-3.58.31-5.12.95-1.55.63-2.89,1.54-4.03,2.71s-2.01,2.6-2.62,4.27c-.61,1.67-.91,3.48-.91,5.43s.3,3.87.91,5.52c.61,1.65,1.48,3.07,2.62,4.27,1.14,1.2,2.48,2.12,4.03,2.75,1.54.63,3.25.95,5.12.95,2.2,0,4.11-.34,5.73-1.01,1.62-.67,3.01-1.64,4.15-2.9l6.53,6.53c-2.03,1.95-4.39,3.47-7.08,4.54-2.68,1.08-5.79,1.62-9.33,1.62Z"/>
        <path class="cls-2" d="M1894.02,2724.83v-43.07h9.64v43.07h-9.64ZM1901.4,2690.06v-8.3h23.3v8.3h-23.3ZM1901.4,2706.9v-8.11h21.47v8.11h-21.47ZM1901.4,2724.83v-8.3h23.67v8.3h-23.67Z"/>
        <path class="cls-2" d="M1944.35,2724.83v-43.07h9.64v43.07h-9.64ZM1951.73,2709.16v-7.5h9.27c1.18,0,2.25-.23,3.2-.7.96-.47,1.72-1.17,2.29-2.1s.85-2.05.85-3.36-.29-2.48-.85-3.42c-.57-.93-1.33-1.64-2.29-2.1-.96-.47-2.02-.7-3.2-.7h-9.27v-7.5h10.68c2.72,0,5.19.55,7.41,1.65,2.22,1.1,3.96,2.67,5.25,4.73,1.28,2.05,1.92,4.5,1.92,7.35s-.64,5.24-1.92,7.29c-1.28,2.05-3.03,3.63-5.25,4.73-2.22,1.1-4.69,1.65-7.41,1.65h-10.68Z"/>
        <path class="cls-2" d="M1976.74,2724.83l17.02-43.07h8.72l16.9,43.07h-10.19l-12.87-35.69h3.54l-13.18,35.69h-9.94ZM1986.5,2717.09v-7.81h23.42v7.81h-23.42Z"/>
        <path class="cls-2" d="M2024.99,2724.83v-43.07h9.64v43.07h-9.64ZM2032.37,2707.14v-7.2h9.09c1.87,0,3.33-.48,4.39-1.43,1.06-.96,1.59-2.25,1.59-3.87s-.52-2.83-1.56-3.84c-1.04-1.02-2.49-1.52-4.36-1.52h-9.15v-7.5h10.25c2.89,0,5.41.54,7.56,1.62,2.16,1.08,3.83,2.57,5.03,4.48,1.2,1.91,1.8,4.09,1.8,6.53,0,2.6-.61,4.85-1.83,6.74-1.22,1.89-2.93,3.37-5.12,4.42-2.2,1.06-4.78,1.59-7.75,1.59h-9.94ZM2048.41,2724.83l-13.42-18.54,8.85-2.44,15.98,20.98h-11.41Z"/>
        <path class="cls-2" d="M2060.12,2690.19v-8.42h36.6v8.42h-36.6ZM2073.61,2724.83v-42.52h9.7v42.52h-9.7Z"/>
        <path class="cls-2" d="M2102.64,2724.83v-43.07h9.64v43.07h-9.64Z"/>
        <path class="cls-2" d="M2141.56,2725.5c-3.21,0-6.19-.56-8.94-1.68-2.75-1.12-5.15-2.69-7.2-4.73-2.05-2.03-3.65-4.4-4.79-7.11-1.14-2.7-1.71-5.62-1.71-8.75s.57-6.05,1.71-8.75c1.14-2.71,2.73-5.05,4.79-7.05,2.05-1.99,4.44-3.55,7.17-4.67,2.72-1.12,5.71-1.68,8.97-1.68,3.42,0,6.46.55,9.12,1.65,2.66,1.1,4.99,2.6,6.98,4.51l-6.47,6.53c-1.1-1.22-2.45-2.18-4.06-2.87-1.61-.69-3.47-1.04-5.58-1.04-1.87,0-3.58.31-5.12.95-1.55.63-2.89,1.54-4.03,2.71-1.14,1.18-2.01,2.6-2.62,4.27-.61,1.67-.92,3.48-.92,5.43s.3,3.87.92,5.52c.61,1.65,1.48,3.07,2.62,4.27,1.14,1.2,2.48,2.12,4.03,2.75,1.54.63,3.25.95,5.12.95,2.2,0,4.11-.34,5.73-1.01,1.63-.67,3.01-1.64,4.15-2.9l6.53,6.53c-2.04,1.95-4.39,3.47-7.08,4.54-2.68,1.08-5.79,1.62-9.33,1.62Z"/>
        <path class="cls-2" d="M2163.76,2724.83v-43.07h9.64v43.07h-9.64Z"/>
        <path class="cls-2" d="M2182.25,2724.83v-43.07h9.64v43.07h-9.64ZM2189.63,2709.16v-7.5h9.27c1.18,0,2.25-.23,3.2-.7.96-.47,1.72-1.17,2.29-2.1s.85-2.05.85-3.36-.29-2.48-.85-3.42c-.57-.93-1.33-1.64-2.29-2.1-.96-.47-2.02-.7-3.2-.7h-9.27v-7.5h10.68c2.72,0,5.19.55,7.41,1.65,2.22,1.1,3.96,2.67,5.25,4.73,1.28,2.05,1.92,4.5,1.92,7.35s-.64,5.24-1.92,7.29c-1.28,2.05-3.03,3.63-5.25,4.73-2.22,1.1-4.69,1.65-7.41,1.65h-10.68Z"/>
        <path class="cls-2" d="M2214.64,2724.83l17.02-43.07h8.72l16.9,43.07h-10.19l-12.87-35.69h3.54l-13.18,35.69h-9.94ZM2224.4,2717.09v-7.81h23.42v7.81h-23.42Z"/>
        <path class="cls-2" d="M2259.96,2690.19v-8.42h36.6v8.42h-36.6ZM2273.44,2724.83v-42.52h9.7v42.52h-9.7Z"/>
        <path class="cls-2" d="M2302.48,2724.83v-43.07h9.64v43.07h-9.64Z"/>
        <path class="cls-2" d="M2341.58,2725.57c-3.25,0-6.26-.57-9.03-1.71s-5.18-2.72-7.26-4.76c-2.07-2.03-3.68-4.4-4.82-7.11s-1.71-5.62-1.71-8.75.57-6.1,1.71-8.78c1.14-2.68,2.72-5.03,4.76-7.04,2.03-2.01,4.43-3.58,7.2-4.7,2.76-1.12,5.77-1.68,9.03-1.68s6.19.56,8.94,1.68c2.75,1.12,5.15,2.68,7.23,4.7,2.07,2.01,3.67,4.37,4.79,7.08,1.12,2.71,1.68,5.64,1.68,8.81s-.57,6.05-1.71,8.75c-1.14,2.7-2.72,5.06-4.76,7.08-2.03,2.01-4.41,3.59-7.14,4.73s-5.69,1.71-8.91,1.71ZM2341.46,2716.78c2.56,0,4.8-.57,6.71-1.71,1.91-1.14,3.41-2.72,4.48-4.76,1.08-2.03,1.62-4.39,1.62-7.08,0-1.99-.31-3.81-.92-5.46-.61-1.65-1.48-3.07-2.62-4.27-1.14-1.2-2.5-2.11-4.09-2.74s-3.32-.95-5.19-.95c-2.56,0-4.81.56-6.74,1.68-1.93,1.12-3.43,2.68-4.48,4.7-1.06,2.01-1.59,4.36-1.59,7.05,0,2.03.31,3.88.92,5.55.61,1.67,1.48,3.1,2.62,4.3,1.14,1.2,2.49,2.12,4.06,2.75,1.56.63,3.3.95,5.21.95Z"/>
        <path class="cls-2" d="M2370.73,2724.83v-43.07h6.77l2.87,8.6v34.46h-9.64ZM2400.44,2724.83l-25.31-32.51,2.38-10.55,25.38,32.51-2.44,10.55ZM2400.44,2724.83l-2.56-8.6v-34.46h9.7v43.07h-7.14Z"/>
        <path class="cls-2" d="M2441.86,2725.44c-2.68,0-5.09-.66-7.23-1.98-2.13-1.32-3.82-3.12-5.06-5.4-1.24-2.28-1.86-4.84-1.86-7.69s.62-5.41,1.86-7.69c1.24-2.28,2.93-4.09,5.06-5.43s4.54-2.01,7.23-2.01c2.2,0,4.16.46,5.89,1.37,1.73.92,3.12,2.18,4.18,3.78,1.06,1.61,1.65,3.47,1.77,5.58v8.72c-.12,2.07-.7,3.93-1.74,5.55-1.04,1.63-2.43,2.9-4.18,3.81-1.75.92-3.72,1.37-5.92,1.37ZM2442.77,2720.26c2.72,0,4.92-.92,6.59-2.78,1.67-1.85,2.5-4.22,2.5-7.11,0-1.95-.39-3.68-1.16-5.19-.77-1.5-1.84-2.67-3.2-3.51-1.36-.83-2.96-1.25-4.79-1.25s-3.45.43-4.85,1.28c-1.4.85-2.5,2.02-3.29,3.51s-1.19,3.18-1.19,5.09.4,3.67,1.19,5.16,1.9,2.65,3.32,3.51c1.42.85,3.05,1.28,4.88,1.28ZM2451.5,2724.83v-7.81l1.04-7.08-1.04-7.01v-7.08h5.55v28.98h-5.55Z"/>
        <path class="cls-2" d="M2465.65,2724.83v-28.98h5.49v28.98h-5.49ZM2486.08,2724.83v-16.9c0-2.2-.68-4-2.04-5.43s-3.14-2.13-5.34-2.13c-1.46,0-2.77.33-3.9.98-1.14.65-2.03,1.55-2.68,2.68-.65,1.14-.98,2.44-.98,3.9l-2.26-1.28c0-2.2.49-4.15,1.46-5.86.98-1.71,2.34-3.06,4.09-4.06,1.75-1,3.72-1.5,5.92-1.5s4.14.55,5.83,1.65c1.69,1.1,3.02,2.53,3.99,4.3.98,1.77,1.46,3.65,1.46,5.64v18h-5.55Z"/>
        <path class="cls-2" d="M2511.89,2725.44c-2.64,0-5.02-.66-7.14-1.98-2.11-1.32-3.79-3.12-5.03-5.4-1.24-2.28-1.86-4.84-1.86-7.69s.62-5.41,1.86-7.69c1.24-2.28,2.92-4.09,5.03-5.43,2.12-1.34,4.49-2.01,7.14-2.01,2.2,0,4.17.46,5.92,1.37,1.75.92,3.16,2.18,4.24,3.78,1.08,1.61,1.68,3.47,1.8,5.58v8.72c-.12,2.07-.71,3.93-1.77,5.55-1.06,1.63-2.46,2.9-4.21,3.81-1.75.92-3.74,1.37-5.98,1.37ZM2512.8,2720.26c1.83,0,3.44-.43,4.82-1.28s2.46-2.02,3.23-3.51,1.16-3.18,1.16-5.09-.39-3.67-1.16-5.15-1.85-2.65-3.23-3.51c-1.38-.85-2.99-1.28-4.82-1.28s-3.44.42-4.82,1.25c-1.38.83-2.47,1.99-3.26,3.48-.79,1.49-1.19,3.2-1.19,5.15s.4,3.68,1.19,5.18c.79,1.51,1.89,2.67,3.29,3.51,1.4.83,3,1.25,4.79,1.25ZM2527.2,2724.83h-5.55v-7.81l1.04-7.08-1.04-7.01v-21.66h5.55v43.55Z"/>
        <path class="cls-2" d="M1305.68,2805.44c-1.63,0-3.17-.21-4.64-.64-1.46-.43-2.8-1.04-4-1.83-1.2-.79-2.25-1.74-3.14-2.84l3.54-3.54c1.06,1.3,2.28,2.27,3.66,2.9,1.38.63,2.93.95,4.64.95s3.03-.29,3.96-.88c.94-.59,1.4-1.41,1.4-2.47s-.38-1.88-1.13-2.47c-.75-.59-1.72-1.08-2.9-1.46-1.18-.39-2.43-.76-3.75-1.13-1.32-.37-2.57-.85-3.75-1.46-1.18-.61-2.15-1.45-2.9-2.53-.75-1.08-1.13-2.49-1.13-4.24s.42-3.26,1.25-4.54c.83-1.28,2.02-2.27,3.57-2.96,1.54-.69,3.39-1.04,5.55-1.04,2.28,0,4.3.4,6.07,1.19,1.77.79,3.22,1.98,4.36,3.57l-3.54,3.54c-.85-1.06-1.87-1.87-3.05-2.44-1.18-.57-2.52-.85-4.03-.85-1.59,0-2.8.29-3.63.85-.83.57-1.25,1.32-1.25,2.26s.37,1.73,1.1,2.26c.73.53,1.7.98,2.9,1.34,1.2.37,2.45.74,3.75,1.13,1.3.39,2.54.91,3.72,1.55,1.18.65,2.14,1.53,2.9,2.62.75,1.1,1.13,2.54,1.13,4.33,0,2.72-.97,4.88-2.9,6.46-1.93,1.59-4.52,2.38-7.78,2.38Z"/>
        <path class="cls-2" d="M1325.93,2770.06c-1.02,0-1.85-.34-2.5-1.01s-.98-1.51-.98-2.53.33-1.8.98-2.47,1.48-1.01,2.5-1.01,1.85.34,2.5,1.01.98,1.49.98,2.47-.33,1.86-.98,2.53-1.48,1.01-2.5,1.01ZM1323.13,2804.83v-28.97h5.55v28.97h-5.55Z"/>
        <path class="cls-2" d="M1349.42,2804.35c-2.64,0-5.01-.63-7.11-1.89-2.09-1.26-3.75-3-4.97-5.22-1.22-2.22-1.83-4.71-1.83-7.47s.6-5.24,1.8-7.41c1.2-2.17,2.86-3.9,4.97-5.19,2.11-1.28,4.47-1.92,7.08-1.92,2.28,0,4.3.45,6.07,1.34,1.77.9,3.16,2.15,4.18,3.75,1.02,1.61,1.59,3.49,1.71,5.64v7.69c-.12,2.12-.7,3.98-1.74,5.58-1.04,1.61-2.43,2.86-4.18,3.75-1.75.89-3.74,1.34-5.98,1.34ZM1349.42,2817.58c-3.01,0-5.65-.55-7.93-1.65-2.28-1.1-4.13-2.64-5.55-4.64l3.6-3.6c1.18,1.5,2.58,2.65,4.21,3.45,1.63.79,3.56,1.19,5.79,1.19,2.93,0,5.27-.78,7.01-2.35,1.75-1.57,2.62-3.67,2.62-6.31v-7.2l.98-6.53-.98-6.47v-7.62h5.49v27.82c0,2.76-.64,5.19-1.92,7.29-1.28,2.09-3.07,3.72-5.37,4.88-2.3,1.16-4.95,1.74-7.96,1.74ZM1350.46,2799.16c1.83,0,3.42-.39,4.76-1.16,1.34-.77,2.39-1.86,3.14-3.26.75-1.4,1.13-3.04,1.13-4.91s-.38-3.51-1.13-4.91c-.75-1.4-1.81-2.5-3.17-3.29-1.36-.79-2.94-1.19-4.73-1.19s-3.44.4-4.82,1.19c-1.38.79-2.47,1.89-3.26,3.29-.79,1.4-1.19,3.02-1.19,4.85s.4,3.46,1.19,4.88c.79,1.42,1.89,2.53,3.29,3.33,1.4.79,3,1.19,4.79,1.19Z"/>
        <path class="cls-2" d="M1373.27,2804.83v-28.97h5.49v28.97h-5.49ZM1393.71,2804.83v-16.9c0-2.2-.68-4.01-2.04-5.43-1.36-1.42-3.14-2.13-5.34-2.13-1.46,0-2.77.33-3.9.98s-2.03,1.54-2.68,2.68c-.65,1.14-.98,2.44-.98,3.9l-2.26-1.28c0-2.2.49-4.15,1.46-5.86.98-1.71,2.34-3.06,4.09-4.06,1.75-1,3.72-1.5,5.92-1.5s4.14.55,5.83,1.65c1.69,1.1,3.02,2.53,4,4.3s1.46,3.65,1.46,5.64v18h-5.55Z"/>
        <path class="cls-2" d="M1410.11,2770.06c-1.02,0-1.85-.34-2.5-1.01-.65-.67-.98-1.51-.98-2.53s.32-1.8.98-2.47c.65-.67,1.48-1.01,2.5-1.01s1.85.34,2.5,1.01c.65.67.98,1.49.98,2.47s-.33,1.86-.98,2.53c-.65.67-1.49,1.01-2.5,1.01ZM1407.31,2804.83v-28.97h5.55v28.97h-5.55Z"/>
        <path class="cls-2" d="M1418.59,2780.86v-5h21.84v5h-21.84ZM1425.67,2804.83v-33.31c0-2.11.47-3.98,1.4-5.61.93-1.63,2.24-2.91,3.9-3.84,1.67-.93,3.6-1.4,5.79-1.4,1.67,0,3.11.29,4.33.85,1.22.57,2.34,1.4,3.35,2.5l-3.6,3.54c-.53-.57-1.12-1-1.77-1.28s-1.44-.43-2.38-.43c-1.75,0-3.1.5-4.06,1.49-.96,1-1.43,2.39-1.43,4.18v33.31h-5.55Z"/>
        <path class="cls-2" d="M1449.34,2770.06c-1.02,0-1.85-.34-2.5-1.01-.65-.67-.98-1.51-.98-2.53s.32-1.8.98-2.47c.65-.67,1.48-1.01,2.5-1.01s1.85.34,2.5,1.01c.65.67.98,1.49.98,2.47s-.33,1.86-.98,2.53c-.65.67-1.49,1.01-2.5,1.01ZM1446.53,2804.83v-28.97h5.55v28.97h-5.55Z"/>
        <path class="cls-2" d="M1474.04,2805.44c-2.85,0-5.42-.67-7.72-2.01-2.3-1.34-4.11-3.16-5.43-5.46-1.32-2.3-1.98-4.85-1.98-7.66s.66-5.41,1.98-7.69c1.32-2.28,3.13-4.08,5.43-5.4,2.3-1.32,4.87-1.98,7.72-1.98,2.24,0,4.31.42,6.22,1.25s3.56,2.04,4.94,3.63l-3.66,3.66c-.9-1.06-1.99-1.86-3.29-2.41-1.3-.55-2.71-.82-4.21-.82-1.83,0-3.46.42-4.88,1.25-1.42.83-2.54,1.98-3.35,3.45s-1.22,3.15-1.22,5.06.41,3.6,1.22,5.06,1.93,2.62,3.35,3.48c1.42.85,3.05,1.28,4.88,1.28,1.54,0,2.96-.27,4.24-.82,1.28-.55,2.39-1.35,3.33-2.41l3.6,3.66c-1.34,1.54-2.98,2.74-4.91,3.6s-4.02,1.28-6.25,1.28Z"/>
        <path class="cls-2" d="M1503.56,2805.44c-2.68,0-5.09-.66-7.23-1.98-2.13-1.32-3.82-3.12-5.06-5.4-1.24-2.28-1.86-4.84-1.86-7.69s.62-5.41,1.86-7.69c1.24-2.28,2.93-4.09,5.06-5.43s4.54-2.01,7.23-2.01c2.2,0,4.16.46,5.89,1.37,1.73.92,3.12,2.18,4.18,3.78s1.65,3.47,1.77,5.58v8.72c-.12,2.07-.7,3.92-1.74,5.55-1.04,1.63-2.43,2.9-4.18,3.81-1.75.92-3.72,1.37-5.92,1.37ZM1504.48,2800.26c2.72,0,4.92-.92,6.59-2.78,1.67-1.85,2.5-4.22,2.5-7.11,0-1.95-.39-3.68-1.16-5.19-.77-1.5-1.84-2.67-3.2-3.51-1.36-.83-2.96-1.25-4.79-1.25s-3.45.43-4.85,1.28-2.5,2.02-3.29,3.51-1.19,3.18-1.19,5.09.4,3.67,1.19,5.15,1.9,2.65,3.32,3.51c1.42.85,3.05,1.28,4.88,1.28ZM1513.2,2804.83v-7.81l1.04-7.08-1.04-7.01v-7.08h5.55v28.97h-5.55Z"/>
        <path class="cls-2" d="M1527.35,2804.83v-28.97h5.49v28.97h-5.49ZM1547.79,2804.83v-16.9c0-2.2-.68-4.01-2.04-5.43-1.36-1.42-3.14-2.13-5.34-2.13-1.46,0-2.77.33-3.9.98s-2.03,1.54-2.68,2.68c-.65,1.14-.98,2.44-.98,3.9l-2.26-1.28c0-2.2.49-4.15,1.46-5.86.98-1.71,2.34-3.06,4.09-4.06,1.75-1,3.72-1.5,5.92-1.5s4.14.55,5.83,1.65c1.69,1.1,3.02,2.53,4,4.3s1.46,3.65,1.46,5.64v18h-5.55Z"/>
        <path class="cls-2" d="M1558.71,2780.86v-5h19.76v5h-19.76ZM1565.84,2804.83v-41.11h5.49v41.11h-5.49Z"/>
        <path class="cls-2" d="M1597.75,2804.83v-43.07h9.64v43.07h-9.64ZM1605.13,2789.16v-7.5h9.27c1.18,0,2.25-.23,3.2-.7.96-.47,1.72-1.17,2.29-2.11.57-.93.85-2.05.85-3.35s-.29-2.48-.85-3.42c-.57-.93-1.33-1.64-2.29-2.1-.96-.47-2.02-.7-3.2-.7h-9.27v-7.5h10.67c2.72,0,5.19.55,7.41,1.65s3.96,2.67,5.25,4.73c1.28,2.05,1.92,4.5,1.92,7.35s-.64,5.24-1.92,7.29c-1.28,2.05-3.03,3.63-5.25,4.73s-4.69,1.65-7.41,1.65h-10.67Z"/>
        <path class="cls-2" d="M1636.24,2804.83v-43.07h9.64v43.07h-9.64ZM1643.62,2787.14v-7.2h9.09c1.87,0,3.33-.48,4.39-1.43,1.06-.96,1.59-2.25,1.59-3.87s-.52-2.83-1.56-3.84-2.49-1.52-4.36-1.52h-9.15v-7.5h10.25c2.89,0,5.41.54,7.56,1.62,2.16,1.08,3.83,2.57,5.03,4.48,1.2,1.91,1.8,4.09,1.8,6.53,0,2.6-.61,4.85-1.83,6.74-1.22,1.89-2.93,3.37-5.12,4.42-2.2,1.06-4.78,1.59-7.75,1.59h-9.94ZM1659.66,2804.83l-13.42-18.54,8.85-2.44,15.98,20.98h-11.41Z"/>
        <path class="cls-2" d="M1696.2,2805.57c-3.25,0-6.26-.57-9.03-1.71-2.77-1.14-5.19-2.72-7.26-4.76-2.07-2.03-3.68-4.4-4.82-7.11-1.14-2.71-1.71-5.62-1.71-8.75s.57-6.1,1.71-8.78c1.14-2.68,2.72-5.03,4.76-7.05,2.03-2.01,4.43-3.58,7.2-4.7,2.76-1.12,5.77-1.68,9.03-1.68s6.19.56,8.94,1.68c2.75,1.12,5.15,2.68,7.23,4.7,2.07,2.01,3.67,4.37,4.79,7.08,1.12,2.71,1.68,5.64,1.68,8.81s-.57,6.05-1.71,8.75c-1.14,2.71-2.72,5.06-4.76,7.08-2.03,2.01-4.41,3.59-7.14,4.73-2.72,1.14-5.69,1.71-8.91,1.71ZM1696.08,2796.78c2.56,0,4.8-.57,6.71-1.71s3.41-2.72,4.48-4.76c1.08-2.03,1.62-4.39,1.62-7.08,0-1.99-.31-3.81-.92-5.46s-1.48-3.07-2.62-4.27c-1.14-1.2-2.5-2.11-4.09-2.74s-3.32-.95-5.18-.95c-2.56,0-4.81.56-6.74,1.68-1.93,1.12-3.43,2.68-4.48,4.7-1.06,2.01-1.59,4.36-1.59,7.05,0,2.03.3,3.88.92,5.55.61,1.67,1.48,3.1,2.62,4.3,1.14,1.2,2.49,2.12,4.06,2.74,1.57.63,3.3.95,5.22.95Z"/>
        <path class="cls-2" d="M1725.36,2804.83v-43.07h9.64v43.07h-9.64ZM1731.95,2804.83v-8.42h10.61c2.6,0,4.87-.53,6.8-1.59,1.93-1.06,3.43-2.57,4.48-4.54,1.06-1.97,1.59-4.32,1.59-7.04s-.54-5.01-1.62-6.98c-1.08-1.97-2.58-3.48-4.51-4.51-1.93-1.04-4.18-1.56-6.74-1.56h-10.92v-8.42h11.04c3.25,0,6.25.52,9,1.56,2.74,1.04,5.14,2.52,7.2,4.45,2.05,1.93,3.65,4.2,4.79,6.8,1.14,2.6,1.71,5.51,1.71,8.72s-.57,6.01-1.71,8.63c-1.14,2.62-2.73,4.9-4.76,6.83-2.04,1.93-4.42,3.43-7.17,4.48-2.75,1.06-5.72,1.59-8.94,1.59h-10.86Z"/>
        <path class="cls-2" d="M1789.41,2805.5c-3.58,0-6.72-.76-9.42-2.29-2.71-1.52-4.82-3.62-6.34-6.28-1.53-2.66-2.29-5.68-2.29-9.06v-26.11h9.64v26.6c0,1.75.38,3.25,1.13,4.51.75,1.26,1.76,2.22,3.02,2.87,1.26.65,2.68.98,4.27.98s2.94-.32,4.18-.98c1.24-.65,2.21-1.61,2.9-2.87.69-1.26,1.04-2.75,1.04-4.45v-26.66h9.7v26.17c0,3.38-.75,6.38-2.26,9.03-1.5,2.64-3.6,4.73-6.28,6.25-2.68,1.53-5.78,2.29-9.27,2.29Z"/>
        <path class="cls-2" d="M1835.83,2805.5c-3.21,0-6.19-.56-8.94-1.68-2.74-1.12-5.14-2.69-7.2-4.73-2.05-2.03-3.65-4.4-4.79-7.11-1.14-2.71-1.71-5.62-1.71-8.75s.57-6.05,1.71-8.75c1.14-2.7,2.73-5.05,4.79-7.04,2.05-1.99,4.44-3.55,7.17-4.67,2.72-1.12,5.71-1.68,8.97-1.68,3.42,0,6.46.55,9.12,1.65,2.66,1.1,4.99,2.6,6.98,4.51l-6.47,6.53c-1.1-1.22-2.45-2.18-4.06-2.87s-3.47-1.04-5.58-1.04c-1.87,0-3.58.32-5.12.95-1.54.63-2.89,1.54-4.03,2.71s-2.01,2.6-2.62,4.27c-.61,1.67-.92,3.48-.92,5.43s.31,3.87.92,5.52c.61,1.65,1.48,3.07,2.62,4.27,1.14,1.2,2.48,2.12,4.03,2.75,1.54.63,3.25.95,5.12.95,2.2,0,4.11-.34,5.73-1.01,1.63-.67,3.01-1.64,4.15-2.9l6.53,6.53c-2.03,1.95-4.39,3.47-7.08,4.54-2.68,1.08-5.79,1.62-9.33,1.62Z"/>
        <path class="cls-2" d="M1855.1,2770.19v-8.42h36.6v8.42h-36.6ZM1868.58,2804.83v-42.52h9.7v42.52h-9.7Z"/>
        <path class="cls-2" d="M1897.62,2804.83v-43.07h9.64v43.07h-9.64Z"/>
        <path class="cls-2" d="M1929.52,2804.83l-16.59-43.07h10.31l12.63,34.83h-4.21l12.75-34.83h10.19l-16.77,43.07h-8.3Z"/>
        <path class="cls-2" d="M1960.21,2804.83v-43.07h9.64v43.07h-9.64Z"/>
        <path class="cls-2" d="M1975.76,2770.19v-8.42h36.6v8.42h-36.6ZM1989.24,2804.83v-42.52h9.7v42.52h-9.7Z"/>
        <path class="cls-2" d="M2031.58,2788.85l-16.59-27.08h11.1l12.75,21.84h-7.2l12.75-21.84h10.92l-16.71,27.08h-7.01ZM2030.36,2804.83v-20.44h9.7v20.44h-9.7Z"/>
        <path class="cls-2" d="M2071.29,2804.83v-43.07h9.64v43.07h-9.64ZM2078.73,2804.83v-8.42h21.29v8.42h-21.29Z"/>
        <path class="cls-2" d="M2124.36,2805.57c-3.25,0-6.26-.57-9.03-1.71-2.77-1.14-5.19-2.72-7.26-4.76-2.07-2.03-3.68-4.4-4.82-7.11-1.14-2.71-1.71-5.62-1.71-8.75s.57-6.1,1.71-8.78c1.14-2.68,2.72-5.03,4.76-7.05,2.03-2.01,4.43-3.58,7.2-4.7,2.76-1.12,5.77-1.68,9.03-1.68s6.19.56,8.94,1.68c2.75,1.12,5.15,2.68,7.23,4.7,2.07,2.01,3.67,4.37,4.79,7.08,1.12,2.71,1.68,5.64,1.68,8.81s-.57,6.05-1.71,8.75c-1.14,2.71-2.72,5.06-4.76,7.08-2.03,2.01-4.41,3.59-7.14,4.73-2.72,1.14-5.69,1.71-8.91,1.71ZM2124.23,2796.78c2.56,0,4.8-.57,6.71-1.71s3.41-2.72,4.48-4.76c1.08-2.03,1.62-4.39,1.62-7.08,0-1.99-.31-3.81-.92-5.46s-1.48-3.07-2.62-4.27c-1.14-1.2-2.5-2.11-4.09-2.74s-3.32-.95-5.18-.95c-2.56,0-4.81.56-6.74,1.68-1.93,1.12-3.43,2.68-4.48,4.7-1.06,2.01-1.59,4.36-1.59,7.05,0,2.03.3,3.88.92,5.55.61,1.67,1.48,3.1,2.62,4.3,1.14,1.2,2.49,2.12,4.06,2.74,1.57.63,3.3.95,5.22.95Z"/>
        <path class="cls-2" d="M2165.53,2805.5c-3.58,0-6.64-.57-9.18-1.71-2.54-1.14-4.85-2.89-6.92-5.25l6.22-6.22c1.38,1.59,2.92,2.82,4.61,3.69,1.69.88,3.65,1.31,5.89,1.31,1.99,0,3.55-.38,4.67-1.13,1.12-.75,1.68-1.78,1.68-3.08,0-1.14-.36-2.07-1.07-2.81-.71-.73-1.68-1.36-2.9-1.89-1.22-.53-2.54-1.03-3.96-1.49s-2.86-1.03-4.3-1.68c-1.44-.65-2.77-1.44-3.97-2.38-1.2-.93-2.17-2.14-2.9-3.6s-1.1-3.27-1.1-5.43c0-2.68.64-4.98,1.92-6.89,1.28-1.91,3.08-3.37,5.4-4.36s4.94-1.49,7.87-1.49,5.82.53,8.3,1.59c2.48,1.06,4.53,2.48,6.16,4.27l-6.28,6.28c-1.3-1.34-2.61-2.34-3.93-2.99-1.32-.65-2.8-.98-4.42-.98s-2.99.31-3.97.95-1.46,1.54-1.46,2.71c0,1.06.37,1.92,1.1,2.59.73.67,1.7,1.25,2.9,1.74,1.2.49,2.52.98,3.96,1.46,1.44.49,2.89,1.05,4.33,1.68,1.44.63,2.75,1.45,3.94,2.47,1.18,1.02,2.14,2.28,2.9,3.78.75,1.5,1.13,3.4,1.13,5.67,0,4.11-1.46,7.33-4.39,9.67-2.93,2.34-6.99,3.51-12.2,3.51Z"/>
        <path class="cls-2" d="M2200.61,2805.5c-3.58,0-6.64-.57-9.18-1.71-2.54-1.14-4.85-2.89-6.92-5.25l6.22-6.22c1.38,1.59,2.92,2.82,4.61,3.69,1.69.88,3.65,1.31,5.89,1.31,1.99,0,3.55-.38,4.67-1.13,1.12-.75,1.68-1.78,1.68-3.08,0-1.14-.36-2.07-1.07-2.81-.71-.73-1.68-1.36-2.9-1.89-1.22-.53-2.54-1.03-3.96-1.49-1.42-.47-2.86-1.03-4.3-1.68-1.44-.65-2.77-1.44-3.96-2.38-1.2-.93-2.17-2.14-2.9-3.6-.73-1.46-1.1-3.27-1.1-5.43,0-2.68.64-4.98,1.92-6.89,1.28-1.91,3.08-3.37,5.4-4.36s4.94-1.49,7.87-1.49,5.81.53,8.3,1.59c2.48,1.06,4.53,2.48,6.16,4.27l-6.28,6.28c-1.3-1.34-2.61-2.34-3.93-2.99-1.32-.65-2.8-.98-4.42-.98s-2.99.31-3.96.95c-.98.63-1.46,1.54-1.46,2.71,0,1.06.37,1.92,1.1,2.59.73.67,1.7,1.25,2.9,1.74s2.52.98,3.96,1.46c1.44.49,2.89,1.05,4.33,1.68,1.44.63,2.75,1.45,3.93,2.47s2.14,2.28,2.9,3.78c.75,1.5,1.13,3.4,1.13,5.67,0,4.11-1.46,7.33-4.39,9.67s-7,3.51-12.2,3.51Z"/>
        <path class="cls-2" d="M2228.85,2805.5c-1.63,0-2.96-.55-4-1.65-1.04-1.1-1.55-2.44-1.55-4.03s.52-2.92,1.55-4c1.04-1.08,2.37-1.62,4-1.62s2.96.54,4,1.62c1.04,1.08,1.56,2.41,1.56,4s-.52,2.93-1.56,4.03c-1.04,1.1-2.37,1.65-4,1.65Z"/>
      </g>
      <g>
        <path class="cls-2" d="M2212.56,2872.06v-3.7h14.15v3.7h-14.15Z"/>
        <path class="cls-2" d="M2256.81,2881.13l-9.72-29.84h4.04l7.74,24.34h-1.16l7.61-24.34h2.92l7.61,24.34h-1.12l7.74-24.34h4l-9.72,29.84h-2.88l-7.65-24.25h1.12l-7.61,24.25h-2.92Z"/>
        <path class="cls-2" d="M2297.32,2881.56c-1.98,0-3.77-.47-5.38-1.42-1.61-.95-2.88-2.23-3.83-3.85-.95-1.62-1.42-3.43-1.42-5.44s.47-3.76,1.42-5.35c.95-1.59,2.22-2.86,3.83-3.81,1.61-.95,3.4-1.42,5.38-1.42s3.82.47,5.44,1.4c1.62.93,2.9,2.2,3.85,3.81.95,1.61,1.42,3.4,1.42,5.38s-.47,3.82-1.42,5.44c-.95,1.62-2.23,2.9-3.85,3.85-1.62.95-3.43,1.42-5.44,1.42ZM2297.32,2877.82c1.32,0,2.48-.3,3.48-.9,1-.6,1.79-1.43,2.37-2.47.57-1.05.86-2.24.86-3.59s-.29-2.49-.88-3.53c-.59-1.03-1.38-1.84-2.37-2.43-.99-.59-2.14-.88-3.46-.88s-2.39.29-3.4.88c-1,.59-1.79,1.4-2.37,2.43-.57,1.03-.86,2.21-.86,3.53s.29,2.54.86,3.59c.57,1.05,1.36,1.87,2.37,2.47,1,.6,2.13.9,3.4.9Z"/>
        <path class="cls-2" d="M2312.75,2881.13v-20.42h3.87v20.42h-3.87ZM2316.62,2869.52l-1.46-.69c0-2.61.6-4.69,1.81-6.24,1.2-1.55,2.94-2.32,5.2-2.32,1.03,0,1.96.18,2.79.54.83.36,1.61.95,2.32,1.78l-2.54,2.62c-.43-.46-.9-.79-1.42-.99-.52-.2-1.12-.3-1.81-.3-1.43,0-2.61.46-3.53,1.38-.92.92-1.38,2.32-1.38,4.21Z"/>
        <path class="cls-2" d="M2330.43,2881.13v-30.7h3.87v30.7h-3.87Z"/>
        <path class="cls-2" d="M2349,2881.56c-1.86,0-3.54-.47-5.03-1.4-1.49-.93-2.67-2.2-3.55-3.8s-1.31-3.41-1.31-5.42.44-3.81,1.31-5.42,2.06-2.88,3.55-3.83c1.49-.95,3.17-1.42,5.03-1.42,1.55,0,2.94.32,4.17.97s2.23,1.53,2.99,2.67c.76,1.13,1.18,2.44,1.27,3.93v6.15c-.09,1.46-.5,2.77-1.25,3.91-.75,1.15-1.74,2.04-2.97,2.69-1.23.65-2.64.97-4.21.97ZM2349.65,2877.9c1.29,0,2.42-.3,3.4-.9s1.73-1.43,2.28-2.47c.54-1.05.82-2.24.82-3.59s-.27-2.59-.82-3.63c-.54-1.04-1.3-1.87-2.28-2.47s-2.11-.9-3.4-.9-2.42.29-3.4.88c-.98.59-1.74,1.41-2.3,2.45-.56,1.05-.84,2.26-.84,3.63s.28,2.59.84,3.65,1.33,1.88,2.32,2.47c.99.59,2.11.88,3.38.88ZM2359.8,2881.13h-3.91v-5.5l.73-4.99-.73-4.94v-15.27h3.91v30.7Z"/>
        <path class="cls-2" d="M2375.88,2881.13v-29.84h4.04v29.84h-4.04ZM2378.63,2867.54v-3.7h17.46v3.7h-17.46ZM2395.14,2881.13v-29.84h4.04v29.84h-4.04Z"/>
        <path class="cls-2" d="M2415.44,2881.56c-2.06,0-3.91-.47-5.53-1.4-1.62-.93-2.9-2.2-3.85-3.8-.95-1.61-1.42-3.43-1.42-5.46s.47-3.81,1.4-5.42,2.19-2.87,3.78-3.81c1.59-.93,3.38-1.4,5.35-1.4,1.86,0,3.53.43,4.99,1.29,1.46.86,2.6,2.05,3.42,3.57.82,1.52,1.23,3.25,1.23,5.2,0,.29-.01.59-.04.92-.03.33-.09.7-.17,1.1h-17.24v-3.22h15.18l-1.42,1.25c0-1.38-.24-2.54-.73-3.5-.49-.96-1.18-1.71-2.06-2.24-.89-.53-1.96-.79-3.23-.79s-2.48.29-3.48.86-1.78,1.38-2.32,2.41c-.54,1.03-.82,2.25-.82,3.66s.29,2.69.86,3.76c.57,1.08,1.39,1.91,2.45,2.49s2.28.88,3.66.88c1.15,0,2.2-.2,3.16-.6.96-.4,1.78-1,2.47-1.81l2.49,2.54c-1,1.15-2.21,2.02-3.61,2.62-1.4.6-2.91.9-4.51.9Z"/>
        <path class="cls-2" d="M2438.14,2881.56c-1.89,0-3.59-.47-5.1-1.4-1.5-.93-2.7-2.2-3.57-3.8-.88-1.61-1.31-3.41-1.31-5.42s.44-3.81,1.31-5.42c.87-1.61,2.06-2.88,3.57-3.83,1.51-.95,3.2-1.42,5.1-1.42,1.55,0,2.93.32,4.15.97,1.22.64,2.2,1.53,2.95,2.67.74,1.13,1.16,2.44,1.25,3.93v6.15c-.09,1.46-.49,2.77-1.22,3.91-.73,1.15-1.71,2.04-2.95,2.69-1.23.65-2.62.97-4.17.97ZM2438.79,2877.9c1.92,0,3.47-.65,4.64-1.96,1.18-1.3,1.76-2.97,1.76-5.01,0-1.38-.27-2.59-.82-3.66-.54-1.06-1.3-1.88-2.26-2.47-.96-.59-2.08-.88-3.38-.88s-2.43.3-3.42.9c-.99.6-1.76,1.43-2.32,2.47-.56,1.05-.84,2.24-.84,3.59s.28,2.59.84,3.63c.56,1.05,1.34,1.87,2.34,2.47,1,.6,2.15.9,3.44.9ZM2444.93,2881.13v-5.5l.73-4.99-.73-4.94v-4.99h3.91v20.42h-3.91Z"/>
        <path class="cls-2" d="M2454.91,2881.13v-30.7h3.87v30.7h-3.87Z"/>
        <path class="cls-2" d="M2462.99,2864.23v-3.53h13.93v3.53h-13.93ZM2468.02,2881.13v-28.98h3.87v28.98h-3.87Z"/>
        <path class="cls-2" d="M2481.14,2881.13v-30.7h3.87v30.7h-3.87ZM2495.54,2881.13v-11.91c0-1.55-.48-2.82-1.44-3.83-.96-1-2.21-1.51-3.76-1.51-1.03,0-1.95.23-2.75.69-.8.46-1.43,1.09-1.89,1.89-.46.8-.69,1.72-.69,2.75l-1.59-.9c0-1.55.34-2.92,1.03-4.13.69-1.2,1.65-2.16,2.88-2.86,1.23-.7,2.62-1.05,4.17-1.05s2.92.34,4.11,1.03c1.19.69,2.13,1.65,2.82,2.88.69,1.23,1.03,2.65,1.03,4.26v12.68h-3.91Z"/>
        <path class="cls-2" d="M2528.74,2881.56c-2.12,0-4.1-.39-5.93-1.18-1.83-.79-3.44-1.89-4.82-3.31-1.38-1.42-2.45-3.06-3.22-4.92-.77-1.86-1.16-3.86-1.16-5.98s.39-4.15,1.16-6c.77-1.85,1.84-3.48,3.2-4.88s2.95-2.49,4.77-3.27c1.82-.77,3.79-1.16,5.91-1.16s4.09.39,5.91,1.16c1.82.77,3.42,1.86,4.79,3.27,1.38,1.4,2.45,3.04,3.23,4.9s1.16,3.87,1.16,6.02-.39,4.11-1.16,5.98c-.77,1.86-1.84,3.5-3.2,4.9s-2.95,2.5-4.77,3.29c-1.82.79-3.78,1.18-5.87,1.18ZM2528.65,2877.69c2.12,0,4-.49,5.63-1.48,1.63-.99,2.92-2.35,3.85-4.09s1.4-3.72,1.4-5.96c0-1.66-.27-3.19-.8-4.58-.53-1.39-1.28-2.6-2.26-3.63-.97-1.03-2.12-1.83-3.44-2.39s-2.78-.84-4.39-.84c-2.12,0-3.99.49-5.61,1.46-1.62.97-2.9,2.32-3.83,4.04-.93,1.72-1.4,3.7-1.4,5.93,0,1.66.27,3.2.8,4.62.53,1.42,1.28,2.64,2.24,3.65.96,1.02,2.11,1.81,3.44,2.39,1.33.57,2.79.86,4.36.86Z"/>
        <path class="cls-2" d="M2549.04,2881.13v-20.42h3.87v20.42h-3.87ZM2552.9,2869.52l-1.46-.69c0-2.61.6-4.69,1.8-6.24,1.21-1.55,2.94-2.32,5.2-2.32,1.03,0,1.96.18,2.79.54.83.36,1.61.95,2.32,1.78l-2.54,2.62c-.43-.46-.9-.79-1.42-.99-.52-.2-1.12-.3-1.81-.3-1.43,0-2.61.46-3.53,1.38-.92.92-1.38,2.32-1.38,4.21Z"/>
        <path class="cls-2" d="M2574.53,2880.79c-1.86,0-3.53-.44-5.01-1.33-1.48-.89-2.64-2.11-3.5-3.68-.86-1.56-1.29-3.32-1.29-5.27s.42-3.69,1.27-5.22c.85-1.53,2.01-2.75,3.5-3.66,1.49-.9,3.15-1.35,4.99-1.35,1.6,0,3.03.32,4.28.95,1.25.63,2.23,1.51,2.95,2.64.72,1.13,1.12,2.46,1.2,3.98v5.42c-.09,1.49-.49,2.8-1.23,3.93-.73,1.13-1.71,2.01-2.95,2.64s-2.64.95-4.21.95ZM2574.53,2890.12c-2.12,0-3.99-.39-5.59-1.16-1.61-.77-2.91-1.86-3.91-3.27l2.54-2.54c.83,1.06,1.82,1.87,2.97,2.43s2.51.84,4.08.84c2.06,0,3.71-.55,4.94-1.66s1.85-2.59,1.85-4.45v-5.07l.69-4.6-.69-4.56v-5.38h3.87v19.61c0,1.95-.45,3.66-1.35,5.14-.9,1.48-2.17,2.62-3.78,3.44-1.62.82-3.49,1.23-5.61,1.23ZM2575.27,2877.13c1.29,0,2.41-.27,3.35-.82s1.68-1.31,2.21-2.3c.53-.99.79-2.14.79-3.46s-.27-2.47-.79-3.46c-.53-.99-1.28-1.76-2.24-2.32-.96-.56-2.07-.84-3.33-.84s-2.42.28-3.4.84c-.98.56-1.74,1.33-2.3,2.32-.56.99-.84,2.13-.84,3.42s.28,2.44.84,3.44c.56,1,1.33,1.78,2.32,2.34.99.56,2.11.84,3.38.84Z"/>
        <path class="cls-2" d="M2600.03,2881.56c-1.89,0-3.59-.47-5.09-1.4-1.51-.93-2.7-2.2-3.57-3.8-.87-1.61-1.31-3.41-1.31-5.42s.44-3.81,1.31-5.42c.88-1.61,2.06-2.88,3.57-3.83,1.5-.95,3.2-1.42,5.09-1.42,1.55,0,2.93.32,4.15.97s2.2,1.53,2.95,2.67c.75,1.13,1.16,2.44,1.25,3.93v6.15c-.09,1.46-.5,2.77-1.23,3.91-.73,1.15-1.71,2.04-2.95,2.69-1.23.65-2.62.97-4.17.97ZM2600.68,2877.9c1.92,0,3.47-.65,4.64-1.96,1.17-1.3,1.76-2.97,1.76-5.01,0-1.38-.27-2.59-.82-3.66-.54-1.06-1.3-1.88-2.26-2.47-.96-.59-2.09-.88-3.38-.88s-2.43.3-3.42.9-1.76,1.43-2.32,2.47c-.56,1.05-.84,2.24-.84,3.59s.28,2.59.84,3.63c.56,1.05,1.34,1.87,2.34,2.47,1,.6,2.15.9,3.44.9ZM2606.83,2881.13v-5.5l.73-4.99-.73-4.94v-4.99h3.91v20.42h-3.91Z"/>
        <path class="cls-2" d="M2616.8,2881.13v-20.42h3.87v20.42h-3.87ZM2631.21,2881.13v-11.91c0-1.55-.48-2.82-1.44-3.83-.96-1-2.21-1.51-3.76-1.51-1.03,0-1.95.23-2.75.69-.8.46-1.43,1.09-1.89,1.89s-.69,1.72-.69,2.75l-1.59-.9c0-1.55.34-2.92,1.03-4.13.69-1.2,1.65-2.16,2.88-2.86,1.23-.7,2.62-1.05,4.17-1.05s2.92.39,4.11,1.16c1.19.77,2.13,1.79,2.82,3.03.69,1.25,1.03,2.57,1.03,3.98v12.68h-3.91Z"/>
        <path class="cls-2" d="M2642.77,2856.62c-.72,0-1.3-.24-1.76-.71-.46-.47-.69-1.07-.69-1.78s.23-1.27.69-1.74c.46-.47,1.05-.71,1.76-.71s1.3.24,1.76.71c.46.47.69,1.05.69,1.74s-.23,1.31-.69,1.78c-.46.47-1.05.71-1.76.71ZM2640.79,2881.13v-20.42h3.91v20.42h-3.91Z"/>
        <path class="cls-2" d="M2649.18,2879.02l12.17-16.21h4.56l-12.13,16.21h-4.6ZM2649.18,2881.13v-2.11l3.48-1.42h12.99v3.53h-16.47ZM2649.95,2864.23v-3.53h15.95v2.11l-3.57,1.42h-12.38Z"/>
        <path class="cls-2" d="M2678.81,2881.56c-1.89,0-3.59-.47-5.09-1.4-1.51-.93-2.7-2.2-3.57-3.8-.87-1.61-1.31-3.41-1.31-5.42s.44-3.81,1.31-5.42c.88-1.61,2.06-2.88,3.57-3.83,1.5-.95,3.2-1.42,5.09-1.42,1.55,0,2.93.32,4.15.97s2.2,1.53,2.95,2.67c.75,1.13,1.16,2.44,1.25,3.93v6.15c-.09,1.46-.5,2.77-1.23,3.91-.73,1.15-1.71,2.04-2.95,2.69-1.23.65-2.62.97-4.17.97ZM2679.45,2877.9c1.92,0,3.47-.65,4.64-1.96,1.17-1.3,1.76-2.97,1.76-5.01,0-1.38-.27-2.59-.82-3.66-.54-1.06-1.3-1.88-2.26-2.47-.96-.59-2.09-.88-3.38-.88s-2.43.3-3.42.9-1.76,1.43-2.32,2.47c-.56,1.05-.84,2.24-.84,3.59s.28,2.59.84,3.63c.56,1.05,1.34,1.87,2.34,2.47,1,.6,2.15.9,3.44.9ZM2685.6,2881.13v-5.5l.73-4.99-.73-4.94v-4.99h3.91v20.42h-3.91Z"/>
        <path class="cls-2" d="M2693.6,2864.23v-3.53h13.93v3.53h-13.93ZM2698.63,2881.13v-28.98h3.87v28.98h-3.87Z"/>
        <path class="cls-2" d="M2713.72,2856.62c-.72,0-1.3-.24-1.76-.71-.46-.47-.69-1.07-.69-1.78s.23-1.27.69-1.74c.46-.47,1.05-.71,1.76-.71s1.3.24,1.76.71c.46.47.69,1.05.69,1.74s-.23,1.31-.69,1.78c-.46.47-1.05.71-1.76.71ZM2711.74,2881.13v-20.42h3.91v20.42h-3.91Z"/>
        <path class="cls-2" d="M2731.09,2881.56c-1.98,0-3.77-.47-5.38-1.42-1.61-.95-2.88-2.23-3.83-3.85-.95-1.62-1.42-3.43-1.42-5.44s.47-3.76,1.42-5.35c.95-1.59,2.22-2.86,3.83-3.81,1.6-.95,3.4-1.42,5.38-1.42s3.82.47,5.44,1.4c1.62.93,2.9,2.2,3.85,3.81.95,1.61,1.42,3.4,1.42,5.38s-.47,3.82-1.42,5.44c-.95,1.62-2.23,2.9-3.85,3.85-1.62.95-3.43,1.42-5.44,1.42ZM2731.09,2877.82c1.32,0,2.48-.3,3.48-.9,1-.6,1.79-1.43,2.37-2.47.57-1.05.86-2.24.86-3.59s-.29-2.49-.88-3.53c-.59-1.03-1.38-1.84-2.37-2.43-.99-.59-2.14-.88-3.46-.88s-2.39.29-3.4.88c-1,.59-1.79,1.4-2.37,2.43-.57,1.03-.86,2.21-.86,3.53s.29,2.54.86,3.59c.57,1.05,1.36,1.87,2.37,2.47s2.14.9,3.4.9Z"/>
        <path class="cls-2" d="M2746.53,2881.13v-20.42h3.87v20.42h-3.87ZM2760.94,2881.13v-11.91c0-1.55-.48-2.82-1.44-3.83-.96-1-2.21-1.51-3.76-1.51-1.03,0-1.95.23-2.75.69-.8.46-1.43,1.09-1.89,1.89-.46.8-.69,1.72-.69,2.75l-1.59-.9c0-1.55.34-2.92,1.03-4.13.69-1.2,1.65-2.16,2.88-2.86,1.23-.7,2.62-1.05,4.17-1.05s2.92.39,4.11,1.16c1.19.77,2.13,1.79,2.82,3.03.69,1.25,1.03,2.57,1.03,3.98v12.68h-3.91Z"/>
      </g>
    </g>
  </g>
</svg>